<?xml version="1.0" encoding="utf-8"?>
<!-- Generator: Adobe Illustrator 23.0.0, SVG Export Plug-In . SVG Version: 6.00 Build 0)  -->
<svg version="1.1" id="Capa_1" xmlns="http://www.w3.org/2000/svg" xmlns:xlink="http://www.w3.org/1999/xlink" x="0px" y="0px"
	 viewBox="0 0 1300 950" style="enable-background:new 0 0 1300 950;" xml:space="preserve">
<style type="text/css">
	.st0{fill:#F8F8F7;}
	.st1{fill:url(#SVGID_1_);}
	.st2{fill:url(#SVGID_2_);}
	.st3{fill:url(#SVGID_3_);}
	.st4{fill:url(#SVGID_4_);}
	.st5{fill:url(#SVGID_5_);}
	.st6{fill:url(#SVGID_6_);}
	.st7{fill:url(#SVGID_7_);}
	.st8{enable-background:new    ;}
	.st9{fill:#858585;}
</style>
<g transform="matrix( 1, 0, 0, 1, 0,0) ">
	<g>
		<g>
			<g id="Layer4_0_FILL_8_">
				<path class="st0" d="M1296,653c0-0.7,0-1.4,0-2.2c0-51.9-5.3-101.5-16.1-148.9c-1.7-7.4-3.5-14.7-5.4-22
					c-24.1-91-68.4-173.7-133.1-247.9c-10.8-12.4-22.2-24.6-34.2-36.6C981.6,69.6,829.8,6.8,651.9,6.8
					c-177.8,0-329.7,62.9-455.5,188.6c-83.3,83.3-139,178.2-167.1,284.5c-14.3,54-21.4,111-21.4,170.9c0,2.2,0,4.3,0.1,6.5v107.2
					c-0.1,1.2-0.1,2.4,0,3.6l0.1,49.5c0,5.9,0,11.7,0,17.6c-0.5,19.1,9,28.6,28.7,28.6h1230.7c17.4,0.3,26.9-8.4,28.5-26.2h0.2
					l-0.1-170.7c0-0.5,0-1,0-1.4C1296,661.4,1296,657.2,1296,653z"/>
			</g>
		</g>
	</g>
</g>
<path d="M562.5,710.7c-0.2-0.2-0.4-0.3-0.7-0.3h-28c-0.3,0-0.5,0.1-0.7,0.3s-0.3,0.4-0.3,0.7V752c0,0.3,0.1,0.5,0.3,0.7
	s0.4,0.3,0.7,0.3h28c0.3,0,0.5-0.1,0.7-0.3s0.3-0.4,0.3-0.7v-3c0-0.3-0.1-0.5-0.3-0.7s-0.4-0.3-0.7-0.3H538v-13.5h20
	c0.3,0,0.5-0.1,0.7-0.3s0.3-0.4,0.3-0.7v-2.9c0-0.3-0.1-0.5-0.3-0.7s-0.4-0.3-0.7-0.3h-20.1v-14.2h23.8c0.3,0,0.5-0.1,0.7-0.3
	s0.3-0.4,0.3-0.7v-3C562.8,711.1,562.6,710.9,562.5,710.7 M479.3,710.4h-15.9c-0.3,0-0.5,0.1-0.7,0.3s-0.3,0.4-0.3,0.7V752
	c0,0.3,0.1,0.5,0.3,0.7c0.2,0.2,0.4,0.3,0.7,0.3h15.9c4.3,0,8-1,11-2.8c3-1.9,5.2-4.5,6.7-7.7s2.3-6.8,2.3-10.8s-0.8-7.6-2.3-10.7
	c-1.5-3.3-3.7-5.9-6.7-7.8C487.2,711.4,483.6,710.4,479.3,710.4 M467.5,715.4h11.6c3.2,0,6,0.7,8.2,2.1c2.2,1.4,3.9,3.3,5,5.8
	c1.2,2.5,1.8,5.3,1.8,8.4c0,3.1-0.6,6-1.8,8.5c-1.1,2.4-2.8,4.3-5,5.7s-5,2.1-8.2,2.1h-11.6V715.4 M377.1,710.4
	c-0.3,0-0.5,0.1-0.7,0.3s-0.3,0.4-0.3,0.7v32.5l-26.3-33.1c-0.1-0.1-0.2-0.2-0.3-0.3c-0.2-0.1-0.3-0.1-0.5-0.1h-2.8
	c-0.3,0-0.5,0.1-0.7,0.3s-0.3,0.4-0.3,0.7V752c0,0.3,0.1,0.5,0.3,0.7c0.2,0.2,0.4,0.3,0.7,0.3h3.1c0.3,0,0.5-0.1,0.7-0.3
	s0.3-0.4,0.3-0.7v-32.5l26.4,33.1c0.1,0.1,0.2,0.2,0.4,0.3c0.1,0.1,0.3,0.1,0.4,0.1h2.8c0.3,0,0.5-0.1,0.7-0.3s0.3-0.4,0.3-0.7
	v-40.6c0-0.3-0.1-0.5-0.3-0.7c-0.2-0.2-0.4-0.3-0.7-0.3L377.1,710.4 M480.6,591.3L480.6,591.3c-5.8,0-11.1,1.1-16.1,3.2
	c-5,2-9.4,4.8-13.1,8.4c-3.8,3.6-6.8,7.8-8.9,12.6c-2.2,4.8-3.3,10-3.3,15.6c0.1,7.6,1.9,14.4,5.5,20.4l0,0
	c3.6,6,8.6,10.7,15.1,14.1c6.4,3.4,13.9,5.2,22.6,5.3l0,0c5.2-0.1,9.7-0.6,13.5-1.6l0,0c3.8-1.1,6.7-2.1,8.8-3.2
	c2.4-1.2,3.6-1.8,3.6-2c0.1-0.1,0.1-0.3,0.1-0.4c0-0.1,0-0.2,0-0.3l-4-11.3c-0.1-0.3-0.3-0.5-0.5-0.6c-0.3-0.1-0.5-0.1-0.8,0
	s-0.5,0.3-0.6,0.5c-0.1-0.1-0.9,0.2-2.4,0.9c-1.8,0.8-4.3,1.6-7.5,2.4c-3.2,0.8-6.8,1.2-11,1.3c-5.1,0-9.6-1.1-13.5-3.3
	s-7-5.1-9.3-8.9c-2.2-3.8-3.3-8.1-3.4-12.9l0,0c0.1-5,1.2-9.4,3.4-13.2c2.2-3.8,5.3-6.7,9.4-8.9s9-3.3,14.7-3.4
	c3.2,0.1,6.2,0.5,9.1,1.3s5.3,1.6,7.1,2.4h0.1c1.7,0.7,2.5,1,2.6,1c0.2,0.2,0.4,0.3,0.6,0.3s0.4,0,0.6-0.1s0.4-0.3,0.5-0.5l4.6-11.3
	c0-0.2,0-0.3,0-0.5c0-0.1,0-0.3-0.1-0.4c0-0.2-1.2-0.9-3.7-2c-2.2-1-5.2-2-9.3-3C490.9,592,486.1,591.4,480.6,591.3 M591.5,592h-3
	c-0.2,0-0.4,0-0.5,0.2c-0.2,0.1-0.3,0.2-0.3,0.4l-35.2,75.6c-0.1,0.2-0.1,0.4,0,0.6c0,0.2,0.2,0.4,0.3,0.5c0.2,0.1,0.4,0.2,0.6,0.2
	h13.8c0.2,0,0.4,0,0.5-0.1c0.2-0.1,0.3-0.3,0.4-0.5l6.3-14.4h30.8l6.3,14.4c0.1,0.2,0.2,0.3,0.4,0.5c0.2,0.1,0.3,0.1,0.5,0.1h14.2
	c0.2,0,0.4-0.1,0.6-0.2c0.2-0.2,0.3-0.3,0.4-0.5c0-0.2,0-0.4-0.1-0.6l-35.1-75.6c-0.1-0.2-0.2-0.3-0.4-0.4
	C591.9,592,591.8,592,591.5,592 M580,642l9.8-22.3l9.9,22.3H580 M295.2,711c-0.1-0.2-0.2-0.4-0.4-0.5c-0.2-0.1-0.4-0.1-0.6-0.1H291
	c-0.2,0-0.4,0-0.6,0.1s-0.3,0.3-0.4,0.5l-18.6,40.6c-0.1,0.2-0.1,0.4-0.1,0.7c0,0.2,0.2,0.4,0.4,0.5c0.2,0.1,0.4,0.2,0.6,0.2h3.4
	c0.2,0,0.4,0,0.5-0.2c0.2-0.1,0.3-0.2,0.4-0.4l3.9-8.6h24.2l3.9,8.6c0.1,0.2,0.2,0.3,0.4,0.4c0.2,0.1,0.4,0.2,0.5,0.2h3.4
	c0.2,0,0.4-0.1,0.6-0.2c0.2-0.2,0.3-0.3,0.4-0.5c0-0.2,0-0.5-0.1-0.7L295.2,711 M292.6,717.2l9.9,21.8h-19.7L292.6,717.2
	 M211.8,710.4h-3.4c-0.2,0-0.4,0.1-0.6,0.3c-0.2,0.1-0.3,0.3-0.4,0.5c-0.1,0.2-0.1,0.4,0.1,0.6l18.7,40.6c0.1,0.2,0.2,0.3,0.3,0.4
	c0.2,0.1,0.4,0.2,0.6,0.2h3.3c0.2,0,0.4,0,0.6-0.2c0.2-0.1,0.3-0.2,0.3-0.4l18.7-40.6c0.1-0.2,0.1-0.5,0.1-0.6
	c-0.1-0.2-0.2-0.4-0.3-0.5c-0.2-0.2-0.4-0.2-0.7-0.3h-3.4c-0.2,0-0.4,0-0.6,0.1s-0.3,0.3-0.4,0.5l-16,35.3l-16-35.3
	c-0.1-0.2-0.2-0.4-0.3-0.5C212.1,710.5,211.9,710.4,211.8,710.4 M135.9,715.1c0.2-0.2,0.3-0.4,0.3-0.7v-3c0-0.3-0.1-0.5-0.3-0.7
	s-0.4-0.3-0.7-0.3h-27.9c-0.3,0-0.5,0.1-0.7,0.3s-0.3,0.4-0.3,0.7V752c0,0.3,0.1,0.5,0.3,0.7c0.2,0.2,0.4,0.3,0.7,0.3h27.9
	c0.3,0,0.5-0.1,0.7-0.3s0.3-0.4,0.3-0.7v-3c0-0.3-0.1-0.5-0.3-0.7s-0.4-0.3-0.7-0.3h-23.8v-13.5h20.2c0.3,0,0.5-0.1,0.7-0.3
	s0.3-0.4,0.3-0.7v-2.9c0-0.3-0.1-0.5-0.3-0.7s-0.4-0.3-0.7-0.3h-20.2v-14.2h23.8C135.5,715.4,135.7,715.3,135.9,715.1 M69.8,715.1
	c-1.4-1.7-3.3-3-5.7-4c-2.4-1-5.2-1.5-8.4-1.5c-3.1,0-5.8,0.5-8,1.5l0,0c-2.3,1-4.1,2.3-5.4,4c-1.3,1.8-1.9,3.8-1.9,6.2l0,0
	c0,2,0.5,3.7,1.5,5.2c0.9,1.4,2.1,2.6,3.7,3.5h-0.1c1.5,0.9,3.1,1.7,4.9,2.4l0,0c1.7,0.6,3.4,1.1,5.1,1.6c2.3,0.7,4.4,1.4,6.3,2.2
	c1.7,0.7,3.1,1.5,4.2,2.5l0,0c0.9,0.9,1.4,2.1,1.4,3.6c0,1.9-0.8,3.4-2.5,4.6c-1.9,1.2-4.6,1.9-8.1,1.9c-2.5,0-4.6-0.3-6.4-1
	c-1.7-0.6-3.1-1.4-4-2.5c-0.9-1-1.3-2.1-1.3-3.4v-0.2c0-0.3-0.1-0.5-0.3-0.7s-0.4-0.3-0.7-0.3h-3c-0.3,0-0.5,0.1-0.7,0.3
	s-0.3,0.4-0.3,0.7v0.4c0,2.3,0.8,4.4,2.3,6.2c1.4,1.7,3.4,3,6,3.9c2.5,0.9,5.3,1.4,8.5,1.5c3.2,0,5.9-0.5,8.3-1.4l0,0
	c2.4-1,4.3-2.3,5.6-4l0,0c1.3-1.7,2-3.8,2.1-6.2l0,0c0-2.1-0.6-3.9-1.6-5.4s-2.3-2.7-3.9-3.6c-1.6-0.9-3.3-1.7-5.1-2.4v0.1
	c-1.7-0.7-3.4-1.2-5.1-1.7c-2.2-0.7-4.2-1.4-6-2.1c-1.7-0.7-3-1.5-4-2.5l0,0c-0.9-0.9-1.4-2.1-1.4-3.5c0.1-1.9,0.9-3.4,2.5-4.6
	c1.8-1.2,4.3-1.9,7.7-2l0,0c2.4,0,4.4,0.4,6.2,1c1.6,0.6,2.8,1.4,3.8,2.5c0.8,1,1.2,2.2,1.3,3.5v0.2c0,0.3,0.1,0.5,0.3,0.7
	c0.2,0.2,0.4,0.3,0.7,0.3h3c0.3,0,0.5-0.1,0.7-0.3s0.3-0.4,0.3-0.7v-0.4C72,718.9,71.3,716.8,69.8,715.1 M39,592.6
	c-0.3,0-0.5,0.1-0.7,0.3s-0.3,0.4-0.3,0.7v75c0,0.3,0.1,0.5,0.3,0.7s0.4,0.3,0.7,0.3h48.7c0.3,0,0.5-0.1,0.7-0.3s0.3-0.4,0.3-0.7
	v-12.1c0-0.3-0.1-0.5-0.3-0.7s-0.4-0.3-0.7-0.3H53.2v-61.9c0-0.3-0.1-0.5-0.3-0.7s-0.4-0.3-0.7-0.3H39 M301.5,593
	c-3.7-1-7.6-1.5-11.8-1.6h-0.1c-5.5,0.1-10.2,1.2-14.1,3.3s-6.9,4.8-8.9,8.3c-2.1,3.4-3.1,7.1-3.1,11.1c0,3.2,0.6,6.1,1.9,8.8
	s3.5,5.1,6.6,7.4c2.9,2.2,6.8,4.3,11.8,6c4.4,1.6,7.8,3.1,10.1,4.5c2.2,1.2,3.7,2.4,4.5,3.7c0.7,1.2,1.1,2.5,1,3.9l0,0
	c0,2.1-0.9,4-2.8,5.6c-2,1.6-5,2.4-9.1,2.5c-3.3,0-6.6-0.6-10-1.7c-3.5-1.1-6.7-2.7-9.8-4.8c-0.2-0.1-0.4-0.2-0.6-0.2
	s-0.4,0.1-0.6,0.2c-0.2,0.1-0.3,0.3-0.3,0.5l-4.6,11.9c-0.1,0.2-0.1,0.5,0,0.7s0.2,0.4,0.4,0.5c3.5,2.2,7.4,3.9,11.7,5.2
	c4.3,1.4,8.8,2.1,13.4,2.1c8.7-0.1,15.5-2,20.3-5.9c5-4,7.5-9.5,7.6-16.6c0-3.4-0.6-6.5-2-9.3l0,0c-1.4-2.8-3.7-5.4-7-7.8
	c-3.2-2.3-7.6-4.5-13.2-6.7l0,0c-5.1-1.8-8.8-3.6-11-5.3l0,0c-2-1.5-3-3.3-3-5.4l0,0c0-2.4,0.8-4.4,2.5-6s4.4-2.5,8.1-2.5
	c2.8,0.1,5.7,0.6,8.6,1.5c2.9,1,5.4,2.1,7.6,3.4c0.2,0.1,0.3,0.1,0.5,0.1s0.4-0.1,0.6-0.2s0.3-0.3,0.3-0.5l4.2-11.8
	c0.1-0.2,0.1-0.5,0-0.7s-0.3-0.4-0.5-0.5C308.3,595.1,305.2,593.9,301.5,593 M172.3,591.3L172.3,591.3c-7.9,0.1-14.8,1.9-20.9,5.4
	c-6.1,3.5-11,8.2-14.6,14.2c-3.6,5.9-5.5,12.6-5.6,20.1c0.1,7.6,1.9,14.4,5.4,20.4s8.4,10.7,14.6,14.1c6.1,3.4,13.1,5.1,21,5.2
	c7.9-0.1,14.9-1.8,21.1-5.2c6.2-3.5,11-8.2,14.6-14.2v0.1c3.6-6,5.4-12.8,5.4-20.4c-0.1-7.7-1.8-14.6-5.3-20.5h-0.1
	c-3.5-6-8.4-10.6-14.5-14C187.3,593.2,180.3,591.5,172.3,591.3 M159.6,608.8L159.6,608.8c3.8-2.3,8-3.4,12.8-3.5
	c4.9,0,9.1,1.2,12.8,3.5c3.7,2.2,6.6,5.3,8.8,9.2c2.1,3.9,3.2,8.3,3.2,13.3c0,4.9-1.1,9.4-3.3,13.3c-2.2,3.9-5.1,6.9-8.8,9.2
	c-3.8,2.3-8,3.4-12.6,3.4c-4.7,0-8.9-1.2-12.7-3.5c-3.7-2.3-6.6-5.3-8.8-9.3c-2.2-3.8-3.3-8.2-3.4-13l0,0c0.1-5,1.2-9.4,3.3-13.3
	C152.9,614,155.8,611,159.6,608.8 M1258.6,721.2c0-2.3-0.8-4.3-2.2-6.1c-1.4-1.7-3.3-3-5.7-4s-5.2-1.5-8.3-1.5c-3.1,0-5.8,0.5-8,1.5
	h-0.1c-2.3,1-4.1,2.3-5.4,4c-1.3,1.8-1.9,3.8-1.9,6.2l0,0c0,2,0.6,3.7,1.6,5.2c0.9,1.4,2.1,2.6,3.7,3.5h-0.1
	c1.5,0.9,3.1,1.7,4.9,2.4l0,0c1.7,0.6,3.4,1.1,5.1,1.6c2.3,0.7,4.3,1.4,6.3,2.2c1.7,0.7,3.1,1.5,4.2,2.5l0,0
	c0.9,0.9,1.4,2.1,1.4,3.6c0,1.9-0.8,3.4-2.5,4.6c-1.9,1.2-4.6,1.9-8.1,1.9c-2.5,0-4.7-0.3-6.4-1c-1.7-0.6-3.1-1.4-4-2.5
	c-0.9-1-1.3-2.1-1.3-3.4v-0.2c0-0.3-0.1-0.5-0.3-0.7s-0.4-0.3-0.7-0.3h-3c-0.3,0-0.5,0.1-0.7,0.3s-0.3,0.4-0.3,0.7v0.4
	c0,2.3,0.8,4.4,2.3,6.2c1.4,1.7,3.4,3,6,3.9c2.5,0.9,5.3,1.4,8.5,1.5c3.2,0,5.9-0.5,8.3-1.4l0,0c2.4-1,4.3-2.3,5.7-4l0,0
	c1.3-1.7,2-3.8,2-6.2l0,0c0-2.1-0.6-3.9-1.6-5.4s-2.3-2.7-3.9-3.6c-1.6-0.9-3.3-1.7-5.1-2.4v0.1c-1.7-0.7-3.4-1.2-5.1-1.7
	c-2.2-0.7-4.2-1.4-6-2.1c-1.7-0.7-3-1.5-4-2.5h-0.1c-0.9-0.9-1.4-2.1-1.4-3.5c0.1-1.9,0.9-3.4,2.5-4.6c1.8-1.2,4.3-1.9,7.7-2l0,0
	c2.4,0,4.4,0.4,6.2,1c1.6,0.6,2.9,1.4,3.8,2.5c0.8,1,1.2,2.2,1.3,3.5v0.2c0,0.3,0.1,0.5,0.3,0.7c0.2,0.2,0.4,0.3,0.7,0.3h3
	c0.3,0,0.5-0.1,0.7-0.3s0.3-0.4,0.3-0.7v-0.4 M1196.4,710.7c-0.2-0.2-0.4-0.3-0.7-0.3h-27.9c-0.3,0-0.5,0.1-0.7,0.3
	s-0.3,0.4-0.3,0.7V752c0,0.3,0.1,0.5,0.3,0.7c0.2,0.2,0.4,0.3,0.7,0.3h27.9c0.3,0,0.5-0.1,0.7-0.3s0.3-0.4,0.3-0.7v-3
	c0-0.3-0.1-0.5-0.3-0.7s-0.4-0.3-0.7-0.3h-23.8v-13.5h20.2c0.3,0,0.5-0.1,0.7-0.3s0.3-0.4,0.3-0.7v-2.9c0-0.3-0.1-0.5-0.3-0.7
	c-0.2-0.2-0.4-0.3-0.7-0.3h-20.2v-14.2h23.8c0.3,0,0.5-0.1,0.7-0.3s0.3-0.4,0.3-0.7v-3C1196.7,711.1,1196.6,710.9,1196.4,710.7
	 M1130.1,710.7c-0.2-0.2-0.4-0.3-0.7-0.3h-3.1c-0.3,0-0.5,0.1-0.7,0.3s-0.3,0.4-0.3,0.7v32.5l-26.3-33.1c-0.1-0.1-0.2-0.2-0.3-0.3
	c-0.2-0.1-0.3-0.1-0.5-0.1h-2.8c-0.3,0-0.5,0.1-0.7,0.3s-0.3,0.4-0.3,0.7V752c0,0.3,0.1,0.5,0.3,0.7c0.2,0.2,0.4,0.3,0.7,0.3h3.1
	c0.3,0,0.5-0.1,0.7-0.3s0.3-0.4,0.3-0.7v-32.5l26.3,33.1c0.1,0.1,0.2,0.2,0.3,0.3c0.1,0.1,0.3,0.1,0.4,0.1h2.8
	c0.3,0,0.5-0.1,0.7-0.3s0.3-0.4,0.3-0.7v-40.6C1130.4,711.1,1130.3,710.9,1130.1,710.7 M978.3,710.7c-0.2,0.2-0.3,0.4-0.3,0.7V752
	c0,0.3,0.1,0.5,0.3,0.7s0.4,0.3,0.7,0.3h3.1c0.3,0,0.5-0.1,0.7-0.3s0.3-0.4,0.3-0.7v-40.6c0-0.3-0.1-0.5-0.3-0.7s-0.4-0.3-0.7-0.3
	H979C978.7,710.4,978.5,710.5,978.3,710.7 M1047.4,711.3c-2.7-1.1-5.6-1.7-8.7-1.8c-3.1,0-5.9,0.6-8.6,1.8h-0.1
	c-2.6,1.1-5,2.7-7,4.8c-2.1,2-3.6,4.3-4.8,7s-1.8,5.5-1.8,8.6s0.6,5.9,1.8,8.6c1.1,2.7,2.7,5,4.8,7l0,0c2,2,4.4,3.6,7,4.8h0.1
	c2.7,1.1,5.5,1.7,8.6,1.7s6-0.6,8.7-1.7c2.6-1.2,5-2.8,7-4.8s3.6-4.4,4.8-7c1.1-2.7,1.7-5.5,1.7-8.6s-0.6-5.9-1.7-8.6
	c-1.2-2.6-2.8-5-4.8-7S1050,712.5,1047.4,711.3 M1047.3,717L1047.3,717c2.5,1.5,4.6,3.5,6.1,6.1l0,0c1.5,2.5,2.3,5.4,2.4,8.5
	c0,3.1-0.8,6-2.4,8.6c-1.5,2.6-3.5,4.6-6.1,6.1s-5.4,2.3-8.6,2.3s-6-0.8-8.6-2.3s-4.6-3.6-6.2-6.1h0.1c-1.5-2.6-2.3-5.4-2.4-8.6
	c0-3.1,0.8-6,2.3-8.5l0,0c1.5-2.6,3.6-4.7,6.2-6.2s5.4-2.3,8.6-2.3C1041.9,714.7,1044.8,715.5,1047.3,717 M1118.8,591.3
	L1118.8,591.3c-7.8,0.1-14.8,1.9-20.9,5.4s-11,8.2-14.6,14.2c-3.6,5.9-5.5,12.6-5.5,20.1c0.1,7.6,1.9,14.4,5.4,20.4
	s8.4,10.7,14.6,14.1c6.1,3.4,13.1,5.1,21,5.2c7.9-0.1,14.9-1.8,21-5.2c6.2-3.5,11-8.2,14.6-14.2v0.1c3.6-6,5.4-12.8,5.4-20.4
	c-0.1-7.7-1.8-14.6-5.3-20.5h-0.1c-3.5-6-8.4-10.6-14.5-14C1133.9,593.2,1126.8,591.5,1118.8,591.3 M1094.1,631.3
	c0.1-5,1.2-9.4,3.3-13.3c2.1-3.9,5.1-7,8.8-9.2h0.1c3.7-2.3,7.9-3.4,12.8-3.5c4.9,0,9.1,1.2,12.8,3.5c3.7,2.2,6.6,5.3,8.8,9.2
	c2.1,3.9,3.2,8.3,3.2,13.3c0,4.9-1.2,9.4-3.3,13.3c-2.2,3.9-5.1,6.9-8.8,9.2c-3.8,2.3-8,3.4-12.7,3.4s-8.9-1.2-12.7-3.5
	c-3.7-2.3-6.6-5.3-8.8-9.3C1095.3,640.5,1094.1,636.2,1094.1,631.3L1094.1,631.3 M1247.9,593c-3.7-1-7.6-1.5-11.8-1.6l0,0
	c-5.5,0.1-10.2,1.2-14.1,3.3s-6.9,4.8-9,8.3c-2.1,3.4-3.2,7.1-3.2,11.1c0,3.2,0.6,6.1,2,8.8c1.3,2.7,3.5,5.1,6.5,7.4
	c2.9,2.2,6.8,4.3,11.8,6c4.4,1.6,7.8,3.1,10.1,4.5c2.2,1.2,3.7,2.4,4.5,3.7c0.7,1.2,1.1,2.5,1.1,3.9l0,0c0,2.1-0.9,4-2.8,5.6
	c-2,1.6-5.1,2.4-9.2,2.5c-3.3,0-6.7-0.6-10.1-1.7c-3.5-1.1-6.7-2.7-9.8-4.8c-0.2-0.1-0.4-0.2-0.6-0.2s-0.4,0.1-0.5,0.2
	c-0.2,0.1-0.3,0.3-0.4,0.5l-4.5,11.9c-0.1,0.2-0.1,0.5-0.1,0.7c0.1,0.2,0.2,0.4,0.5,0.5c3.5,2.2,7.4,3.9,11.7,5.2
	c4.3,1.4,8.8,2.1,13.3,2.1c8.7-0.1,15.5-2,20.3-5.9c5-4,7.5-9.5,7.5-16.6c0-3.4-0.6-6.5-1.9-9.3l0,0c-1.4-2.8-3.7-5.4-7-7.8
	c-3.2-2.3-7.6-4.5-13.2-6.7h-0.1c-5.1-1.8-8.8-3.6-11.1-5.3h0.1c-2-1.5-3-3.3-2.9-5.4l0,0c0-2.4,0.8-4.4,2.5-6s4.4-2.5,8-2.5h0.1
	c2.8,0.1,5.6,0.6,8.5,1.5c2.9,1,5.5,2.1,7.7,3.4c0.2,0.1,0.4,0.1,0.6,0.1s0.4-0.1,0.5-0.2s0.3-0.3,0.4-0.5l4.2-11.8
	c0.1-0.2,0.1-0.5,0-0.7s-0.3-0.4-0.4-0.5C1254.8,595.1,1251.7,593.9,1247.9,593 M934.2,717L934.2,717c2.6,1.5,4.6,3.5,6.1,6
	c0.1,0.2,0.3,0.4,0.5,0.5s0.5,0,0.8,0l2.9-1.4c0.2-0.1,0.3-0.2,0.4-0.3c0.1-0.2,0.2-0.3,0.2-0.5s0-0.4-0.2-0.5
	c-1.3-2.2-3-4.2-4.8-5.8c-2-1.7-4.2-3-6.6-3.9c-2.4-0.9-5-1.4-7.7-1.5l0,0c-3.1,0-5.9,0.6-8.6,1.8l0,0c-2.6,1.1-5,2.7-7,4.8
	c-2.1,2-3.7,4.3-4.8,7c-1.2,2.7-1.8,5.5-1.8,8.6s0.6,5.9,1.8,8.6c1.1,2.7,2.7,5,4.8,7l0,0c2,2,4.4,3.6,7,4.8l0,0
	c2.7,1.1,5.5,1.7,8.6,1.7l0,0c2.7,0,5.3-0.5,7.8-1.4l0,0c2.4-1,4.6-2.3,6.5-3.9l0,0c2-1.7,3.6-3.6,4.9-5.8c0.1-0.2,0.1-0.3,0.1-0.5
	s0-0.4-0.1-0.6c-0.1-0.2-0.2-0.3-0.4-0.3l-2.8-1.3c-0.2-0.1-0.5-0.1-0.7-0.1c-0.3,0.1-0.5,0.2-0.6,0.5c-1.5,2.5-3.6,4.6-6.2,6.1
	c-2.6,1.5-5.4,2.3-8.5,2.3c-3.2,0-6-0.8-8.6-2.3s-4.6-3.6-6.1-6.1l0,0c-1.5-2.6-2.3-5.4-2.3-8.6c0-3.1,0.8-6,2.3-8.5l0,0
	c1.5-2.6,3.6-4.7,6.1-6.2c2.6-1.5,5.4-2.3,8.6-2.3C928.8,714.7,931.7,715.5,934.2,717 M857.7,710.4h-3.4c-0.2,0-0.4,0-0.5,0.1
	c-0.2,0.1-0.3,0.3-0.3,0.5l-18.6,40.6c-0.1,0.2-0.1,0.4,0,0.7c0,0.2,0.2,0.4,0.4,0.5s0.4,0.2,0.6,0.2h3.4c0.2,0,0.4,0,0.5-0.2
	c0.2-0.1,0.3-0.2,0.3-0.4l3.9-8.6h24.2l3.9,8.6c0.1,0.2,0.2,0.3,0.4,0.4c0.2,0.1,0.3,0.2,0.5,0.2h3.4c0.2,0,0.5-0.1,0.7-0.2
	c0.2-0.2,0.3-0.3,0.3-0.5s0-0.5-0.1-0.7L858.6,711c-0.1-0.2-0.2-0.4-0.3-0.5S857.9,710.4,857.7,710.4 M856,717.2l9.9,21.8h-19.7
	L856,717.2 M797.3,717L797.3,717c2.6,1.5,4.6,3.5,6.1,6c0.1,0.2,0.3,0.4,0.5,0.5s0.5,0,0.8,0l2.8-1.4c0.2-0.1,0.3-0.2,0.4-0.3
	s0.2-0.3,0.2-0.5s0-0.4-0.2-0.5c-1.3-2.2-3-4.2-4.8-5.8c-2-1.7-4.2-3-6.6-3.9c-2.4-0.9-4.9-1.4-7.6-1.5h-0.1c-3.1,0-5.9,0.6-8.6,1.8
	l0,0c-2.6,1.1-5,2.7-7,4.8c-2.1,2-3.7,4.3-4.8,7c-1.2,2.7-1.8,5.5-1.8,8.6s0.6,5.9,1.8,8.6c1.1,2.7,2.7,5,4.8,7l0,0
	c2,2,4.4,3.6,7,4.8l0,0c2.7,1.1,5.5,1.7,8.6,1.7h0.1c2.7,0,5.3-0.5,7.8-1.4l0,0c2.4-1,4.6-2.3,6.5-3.9l0,0c2-1.7,3.6-3.6,4.9-5.8
	c0.1-0.2,0.1-0.3,0.1-0.5s-0.1-0.4-0.2-0.6c-0.1-0.2-0.2-0.3-0.4-0.3l-2.8-1.3c-0.2-0.1-0.5-0.1-0.7-0.1c-0.3,0.1-0.5,0.2-0.6,0.5
	c-1.5,2.5-3.6,4.6-6.1,6.1c-2.6,1.5-5.4,2.3-8.6,2.3c-3.2,0-6-0.8-8.6-2.3s-4.6-3.6-6.2-6.1h0.1c-1.5-2.6-2.3-5.4-2.4-8.6
	c0-3.1,0.8-6,2.3-8.5l0,0c1.5-2.6,3.6-4.7,6.2-6.2c2.6-1.5,5.4-2.3,8.6-2.3C792,714.7,794.8,715.5,797.3,717 M675.5,710.4h-3.4
	c-0.2,0-0.4,0-0.6,0.1s-0.3,0.3-0.3,0.5l-16,35.3l-16-35.3c-0.1-0.2-0.2-0.4-0.3-0.5s-0.4-0.1-0.6-0.1H635c-0.2,0-0.4,0.1-0.6,0.3
	c-0.2,0.1-0.3,0.3-0.3,0.5c-0.1,0.2,0,0.4,0,0.6l18.7,40.6c0.1,0.2,0.2,0.3,0.3,0.4c0.2,0.1,0.3,0.2,0.5,0.2h3.3
	c0.2,0,0.4,0,0.5-0.2c0.2-0.1,0.3-0.2,0.3-0.4l18.7-40.6c0.1-0.2,0.1-0.5,0.1-0.6c-0.1-0.2-0.2-0.4-0.3-0.5
	C676,710.5,675.8,710.4,675.5,710.4 M721.8,711c-0.1-0.2-0.2-0.4-0.3-0.5c-0.2-0.1-0.4-0.1-0.6-0.1h-3.3c-0.2,0-0.4,0-0.5,0.1
	c-0.2,0.1-0.3,0.3-0.4,0.5L698,751.6c-0.1,0.2-0.1,0.4,0,0.7c0,0.2,0.2,0.4,0.3,0.5c0.2,0.1,0.4,0.2,0.6,0.2h3.4
	c0.2,0,0.4,0,0.5-0.2c0.2-0.1,0.3-0.2,0.4-0.4l3.9-8.6h24.2l3.9,8.6c0.1,0.2,0.2,0.3,0.3,0.4c0.2,0.1,0.3,0.2,0.5,0.2h3.4
	c0.2,0,0.5-0.1,0.7-0.2c0.2-0.2,0.3-0.3,0.3-0.5s0-0.5-0.1-0.7L721.8,711 M709.3,738.9l9.9-21.8l9.8,21.8H709.3 M792.5,592.6
	c-0.3,0-0.5,0.1-0.7,0.3s-0.3,0.4-0.3,0.7v75c0,0.3,0.1,0.5,0.3,0.7s0.4,0.3,0.7,0.3h13.2c0.3,0,0.5-0.1,0.7-0.3s0.3-0.4,0.3-0.7
	v-20.8h7.3c2.2,0,4.3-0.1,6.3-0.3l15.5,21.6c0.1,0.1,0.2,0.2,0.4,0.3c0.1,0.1,0.3,0.1,0.4,0.1H852c0.3,0,0.5-0.1,0.7-0.3
	s0.3-0.4,0.3-0.6s0-0.5-0.2-0.7l-18.4-24.4c4.3-2.2,7.5-5.3,9.7-9.1c2.2-4.1,3.4-8.8,3.4-14.2s-1.1-10.2-3.4-14.3v-0.1
	c-2.3-4.1-5.8-7.4-10.5-9.7c-4.6-2.3-10.2-3.5-17-3.6L792.5,592.6 M806.8,634.1v-27.3h8.8c4,0,7.1,0.6,9.5,1.8
	c2.2,1.2,3.8,2.7,4.8,4.7c1,2.1,1.5,4.4,1.5,7s-0.5,5-1.5,7.1c-1,2-2.6,3.7-4.8,4.9c-2.3,1.2-5.5,1.9-9.4,1.9h-8.9 M679.1,592.6
	c-0.3,0-0.5,0.1-0.7,0.3s-0.3,0.4-0.3,0.7v75c0,0.3,0.1,0.5,0.3,0.7s0.4,0.3,0.7,0.3h13.2c0.3,0,0.5-0.1,0.7-0.3s0.3-0.4,0.3-0.7
	v-20.8h7.3c2.2,0,4.3-0.1,6.3-0.3l15.5,21.6c0.1,0.1,0.2,0.2,0.4,0.3c0.1,0.1,0.3,0.1,0.5,0.1h15.4c0.3,0,0.5-0.1,0.7-0.3
	s0.3-0.4,0.3-0.6s0-0.5-0.2-0.7L721,643.5c4.3-2.2,7.5-5.3,9.7-9.1c2.2-4.1,3.3-8.8,3.3-14.2s-1.1-10.2-3.4-14.3v-0.1
	c-2.3-4.1-5.8-7.4-10.4-9.7c-4.6-2.3-10.3-3.5-17.1-3.6L679.1,592.6 M711.5,608.5c2.2,1.2,3.8,2.7,4.8,4.7c1,2.1,1.5,4.4,1.5,7
	s-0.5,5-1.5,7.1c-1,2-2.6,3.7-4.8,4.9c-2.3,1.2-5.5,1.9-9.4,1.9h-8.8v-27.3h8.8C706.1,606.8,709.2,607.4,711.5,608.5 M971.1,592.6
	c-0.3,0-0.5,0.1-0.7,0.3s-0.3,0.4-0.3,0.7v12.2c0,0.3,0.1,0.5,0.3,0.7s0.4,0.3,0.7,0.3h24v61.8c0,0.3,0.1,0.5,0.3,0.7
	s0.4,0.3,0.7,0.3h13.4c0.3,0,0.5-0.1,0.7-0.3s0.3-0.4,0.3-0.7v-61.8h23.6c0.3,0,0.5-0.1,0.7-0.3s0.3-0.4,0.3-0.7v-12.2
	c0-0.3-0.1-0.5-0.3-0.7s-0.4-0.3-0.7-0.3H971.1 M919.2,592.6H906c-0.3,0-0.5,0.1-0.7,0.3s-0.3,0.4-0.3,0.7v75c0,0.3,0.1,0.5,0.3,0.7
	s0.4,0.3,0.7,0.3h13.2c0.3,0,0.5-0.1,0.7-0.3s0.3-0.4,0.3-0.7v-75c0-0.3-0.1-0.5-0.3-0.7S919.4,592.6,919.2,592.6z"/>
<linearGradient id="SVGID_1_" gradientUnits="userSpaceOnUse" x1="38.375" y1="880.5" x2="1261.025" y2="880.5" gradientTransform="matrix(1 0 0 -1 0 1700)">
	<stop  offset="0.102" style="stop-color:#FFCC00"/>
	<stop  offset="1" style="stop-color:#FF4F8A"/>
</linearGradient>
<path class="st1" d="M1260.6,818.5c-0.3-0.3-0.6-0.4-1-0.5H747.7c-0.4,0-0.8,0.2-1.1,0.5s-0.4,0.6-0.4,1s0.2,0.8,0.4,1
	c0.3,0.3,0.6,0.4,1.1,0.5h511.9c0.4,0,0.8-0.2,1-0.5c0.3-0.3,0.4-0.6,0.5-1C1261,819.1,1260.9,818.7,1260.6,818.5z"/>
<linearGradient id="SVGID_2_" gradientUnits="userSpaceOnUse" x1="38.4" y1="881.85" x2="1261.05" y2="881.85" gradientTransform="matrix(1 0 0 -1 0 1700)">
	<stop  offset="0.102" style="stop-color:#FFCC00"/>
	<stop  offset="1" style="stop-color:#FF6699"/>
</linearGradient>
<path class="st2" d="M557.8,818.5c-0.3-0.3-0.6-0.4-1-0.5H39.9c-0.4,0-0.8,0.2-1.1,0.5s-0.4,0.6-0.4,1s0.2,0.8,0.4,1
	c0.3,0.3,0.6,0.4,1.1,0.5h516.9c0.4,0,0.8-0.2,1-0.5c0.3-0.3,0.4-0.6,0.5-1C558.3,819.1,558.1,818.7,557.8,818.5 M669.4,812
	c0.5,0.3,0.9,0.6,1.2,1.1s0.4,1,0.4,1.5s-0.1,1-0.2,1.6c-0.1,0.6-0.4,1.2-0.8,1.8c-0.4,0.7-0.9,1.4-1.6,2.3c-0.5,0.7-1.2,1.3-1.9,2
	c-0.7,0.6-1.3,1.2-2,1.8c-0.6,0.6-1.2,1-1.6,1.3l-0.7,0.5v1.8H675v-3h-7.1c0,0,0.2-0.1,0.4-0.3c0.3-0.2,0.6-0.5,1-0.8
	s0.8-0.6,1.2-0.9c0.4-0.4,0.7-0.7,1-1c0.8-0.9,1.4-1.8,1.9-2.5c0.4-0.8,0.8-1.6,1-2.3c0.2-0.8,0.3-1.5,0.3-2.3c0-1.1-0.3-2.2-0.8-3
	c-0.5-0.9-1.3-1.6-2.3-2.1s-2.3-0.8-3.9-0.8c-1.2,0-2.2,0.2-3,0.5c-0.8,0.2-1.4,0.5-1.8,0.8l-0.6,0.4l1.2,2.8c0,0,0.2-0.2,0.5-0.4
	s0.8-0.5,1.4-0.6c0.6-0.2,1.4-0.3,2.3-0.4C668.3,811.6,668.9,811.8,669.4,812 M698.4,811.5c-1.4,1.2-2.5,2.5-3.4,4
	c-0.8,1.5-1.3,3.3-1.3,5.5c0,1.4,0.3,2.7,0.9,3.8c0.6,1,1.3,1.8,2.3,2.5c1,0.6,2.2,0.8,3.5,0.8c1.4,0,2.7-0.3,3.7-0.8
	c1-0.6,1.8-1.3,2.3-2.3c0.5-0.9,0.8-2,0.8-3.2c0-2-0.5-3.5-1.5-4.5s-2.4-1.6-4.2-1.6c-0.6,0-1.2,0.1-1.6,0.3
	c-0.5,0.2-0.9,0.4-1.3,0.7c-0.3,0.3-0.6,0.5-0.8,0.8c0.2-0.7,0.7-1.4,1.4-2.2s1.5-1.5,2.5-2.2s2.2-1.4,3.5-2l-1.8-2.9
	C701.5,809.2,699.8,810.3,698.4,811.5 M700.6,818.3c0.6,0,1.1,0.1,1.6,0.4c0.5,0.2,0.8,0.6,1.1,1.1s0.4,1.1,0.5,1.9
	c0,0.7-0.2,1.3-0.5,1.8s-0.7,0.9-1.1,1.2c-0.5,0.2-1,0.3-1.6,0.3s-1.1-0.1-1.6-0.4c-0.5-0.2-0.8-0.6-1.1-1.1s-0.4-1.1-0.4-1.8
	s0.1-1.4,0.4-1.9c0.3-0.5,0.6-0.9,1.1-1.1C699.5,818.4,700,818.3,700.6,818.3 M594.5,809c-0.8,0.2-1.4,0.5-1.8,0.8l-0.6,0.4l1.2,2.8
	c0,0,0.1-0.2,0.5-0.4c0.3-0.2,0.8-0.5,1.4-0.6c0.6-0.2,1.4-0.3,2.3-0.4c0.8,0,1.4,0.2,1.9,0.5s0.9,0.6,1.2,1.1s0.4,1,0.4,1.5
	s-0.1,1-0.2,1.6c-0.1,0.6-0.4,1.2-0.8,1.8c-0.4,0.7-1,1.4-1.7,2.3c-0.5,0.7-1.2,1.3-1.8,2c-0.7,0.6-1.3,1.2-2,1.8
	c-0.6,0.6-1.2,1-1.6,1.3l-0.6,0.5v1.8H605v-3h-7.1c0,0,0.2-0.1,0.4-0.3c0.3-0.2,0.6-0.5,1-0.8s0.8-0.6,1.1-0.9c0.4-0.4,0.7-0.7,1-1
	c0.8-0.9,1.4-1.8,1.9-2.5c0.4-0.8,0.8-1.6,1-2.3c0.2-0.8,0.3-1.5,0.3-2.3c0-1.1-0.3-2.2-0.8-3c-0.5-0.9-1.3-1.6-2.3-2.1
	s-2.3-0.8-3.8-0.8C596.3,808.6,595.3,808.8,594.5,809 M633.8,808.6c-1.9,0-3.6,0.5-5.1,1.3c-1.5,0.9-2.7,2-3.6,3.5
	c-0.9,1.4-1.3,3.1-1.3,4.9c0,1.9,0.5,3.5,1.3,5c0.9,1.4,2,2.6,3.5,3.4c1.5,0.9,3.2,1.3,5.2,1.3s3.7-0.4,5.2-1.3
	c1.5-0.8,2.7-2,3.5-3.5c0.9-1.4,1.3-3.1,1.3-5s-0.4-3.6-1.3-5c-0.8-1.5-2-2.6-3.5-3.4C637.4,809.1,635.7,808.6,633.8,808.6
	 M628.2,814.9c0.6-1,1.3-1.8,2.3-2.4c1-0.6,2.1-0.9,3.3-0.9c1.3,0,2.4,0.3,3.3,0.9c1,0.6,1.7,1.4,2.3,2.4c0.5,1,0.8,2.1,0.8,3.4
	c0,1.3-0.3,2.5-0.9,3.5c-0.6,1-1.3,1.8-2.3,2.4s-2.1,0.9-3.3,0.9s-2.3-0.3-3.3-0.9s-1.7-1.4-2.3-2.4s-0.9-2.2-0.9-3.5
	C627.3,817,627.6,815.9,628.2,814.9z"/>
<linearGradient id="SVGID_3_" gradientUnits="userSpaceOnUse" x1="35.5" y1="1299.1" x2="1262.9" y2="1299.1" gradientTransform="matrix(1 0 0 -1 0 1700)">
	<stop  offset="0.102" style="stop-color:#FFCC00"/>
	<stop  offset="1" style="stop-color:#FF6699"/>
</linearGradient>
<path class="st3" d="M317.4,361.1c0.1-0.7,0.1-1.1,0-1.3c-0.1-0.3-0.6-0.4-1.5-0.4c-0.5,0-0.7,0.3-0.7,0.8c0,0.4,0.2,1.1,0.7,2.3
	l0.5,1.5c0.1,0.3-0.1,1.2-0.6,2.8c0,1.1,0.6,2.4,1.9,3.9c0.1,0.1,0.2,0.2,0.3,0.3c0.7,0.8,2,2.2,4,4.1c0.6,0.5,1.1,0.9,1.8,1.1
	c0.4,0.1,0.5-0.1,0.3-0.5c-0.2-0.3-0.4-0.6-0.6-0.9c-0.5-0.8-1.3-2.2-2.2-4.1c-0.9-1.9-1.6-3.4-1.9-4.6s-0.7-2.1-1.1-3
	c0-0.1-0.1-0.1-0.1-0.2c-0.2-0.3-0.3-0.5-0.4-0.6C317.4,362.1,317.4,361.7,317.4,361.1 M721.3,468.4c-2.2-3.2-4.6-4.8-7.1-4.8
	c-2.5,0.1-4.9,1.7-7.3,4.9c-2.3,3.1-3.5,6.4-3.5,9.6v28.7h21.3v-28.7C724.7,474.9,723.5,471.6,721.3,468.4 M652.3,478.1
	c0-3.3-1.1-6.5-3.4-9.8c-2.2-3.2-4.6-4.8-7.1-4.8c-2.5,0.1-4.9,1.7-7.3,4.9c-2.3,3.1-3.5,6.4-3.5,9.6v28.7h21.3V478.1 M682.8,468.5
	c-2.3,3.1-3.5,6.4-3.5,9.6v28.7h21.3v-28.7c0-3.3-1.1-6.5-3.3-9.8c-2.3-3.2-4.6-4.8-7.1-4.8C687.5,463.7,685.1,465.3,682.8,468.5
	 M665.9,463.6c-2.5,0.1-5,1.7-7.3,4.9c-2.3,3.1-3.4,6.4-3.4,9.6v28.7h21.3v-28.7c0-3.3-1.1-6.5-3.4-9.8
	C670.8,465.2,668.4,463.6,665.9,463.6 M786.6,463.6c-2.5,0.1-4.9,1.7-7.3,4.9c-2.3,3.1-3.5,6.4-3.5,9.6v28.7H797v-28.7
	c0-3.3-1.1-6.5-3.3-9.8C791.5,465.2,789.1,463.6,786.6,463.6 M745.5,468.4c-2.3-3.2-4.7-4.8-7.2-4.8c-2.5,0.1-4.9,1.7-7.3,4.9
	c-2.3,3.1-3.5,6.4-3.5,9.6v28.7h21.3v-28.7C748.8,474.9,747.7,471.6,745.5,468.4 M762.5,463.6c-2.5,0.1-4.9,1.7-7.3,4.9
	c-2.3,3.1-3.5,6.4-3.5,9.6v28.7H773v-28.7c0-3.3-1.1-6.5-3.4-9.8C767.3,465.2,765,463.6,762.5,463.6 M817.9,468.4
	c-2.2-3.2-4.6-4.8-7.1-4.8c-2.5,0.1-4.9,1.7-7.3,4.9c-2.4,3.1-3.5,6.4-3.5,9.6v28.7h21.3v-28.7C821.3,474.9,820.1,471.6,817.9,468.4
	 M321.5,418.5c0.1,0,0.3,0,0.5,0v-0.3l-0.9,0.2c0,0,0,0.1,0.1,0.1C321.3,418.6,321.4,418.5,321.5,418.5 M321.6,414.4L321.6,414.4
	L321.6,414.4L321.6,414.4 M320.1,355.5c0-0.1,0-0.2-0.1-0.3c-0.1-0.1-0.2-0.1-0.3-0.1s-0.3,0-0.4,0.1s-0.1,0.2-0.1,0.3
	c0,0.1,0,0.2,0.1,0.3c0.1,0.1,0.2,0.1,0.4,0.1s0.2,0,0.3-0.1C320.1,355.7,320.1,355.6,320.1,355.5 M375,362.8c0,0.4,0.1,0.6,0.4,0.7
	c0.1,0,0.5,0,1.1,0c0.4,0,0.9-0.1,1.3-0.3l0,0h-0.1c-0.4,0-0.7-0.1-0.8-0.4c-0.1-0.2-0.3-0.4-0.6-0.4c-0.1,0-0.1,0.1-0.2,0.1
	C375.9,362.7,375.5,362.8,375,362.8 M368.8,370.4c-0.2,0-0.6,0.3-1.3,0.8c-1.2,0.7-1.9,1.1-2.1,1.3c-0.3,0.2-0.4,0.5-0.4,1
	c0,0.6,0.1,1,0.1,1.2c0.1,0.2,0.4,0.3,0.8,0.3c1,0,2.1-0.6,3.3-1.9c1.1-1.2,1.7-2.3,1.8-3.3v-0.1h-0.2c-0.1,0.3-0.1,0.4-0.2,0.5
	s-0.2,0.1-0.5,0.2c-0.3,0-0.7,0-1.3-0.2C368.8,370.3,368.8,370.4,368.8,370.4 M365.2,370.9c0,0.1,0,0.3,0.1,0.4
	c0,0.1,0.1,0.1,0.1,0.1c0.3-0.1,0.7-0.2,1.1-0.5c0.5-0.4,0.8-0.7,1-1c0,0-0.1,0-0.1-0.1C366.5,370.3,365.7,370.6,365.2,370.9
	 M365.1,370.1c0.8-0.3,1.3-0.4,1.5-0.5c0-0.1-0.1-0.3-0.3-0.4c-0.3-0.1-0.5-0.2-0.6-0.2H365C364.9,369.5,364.9,369.9,365.1,370.1
	 M368.6,366c0.3-0.1,0.4-0.2,0.4-0.2c0.1-0.1,0.2-0.2,0.2-0.4c0-0.1,0-0.2-0.1-0.2H369c-0.1,0-0.2,0.1-0.3,0.1
	c-0.1,0.1-0.2,0.1-0.3,0.1c0,0.1,0,0.2,0.1,0.4C368.5,366,368.6,366,368.6,366 M363.7,378.8c0,0-0.1,0.1-0.2,0.1
	c2.5-0.3,4-0.5,4.6-0.8c0.3-0.1,0.8-0.5,1.4-1c-0.1-0.1-0.1-0.1-0.1-0.1c-0.1,0-0.5,0-1.3,0c-0.6,0-1.2,0.2-1.9,0.5
	C365.5,377.8,364.7,378.2,363.7,378.8 M355,379.2c0.3-0.2,0.4-0.7,0.4-1.5s-0.2-1.3-0.5-1.6c-0.4-0.3-1.2-0.5-2.4-0.5
	c-0.6,0-1.4,0.8-2.4,2.3c-0.9,1.6-1.4,2.6-1.6,2.8c0,0.3,0.1,0.4,0.2,0.5c0,0,0.2,0,0.5,0c0.7,0,1.4-0.1,2-0.5
	c1.1-0.5,1.6-0.8,1.7-0.8C354.2,379.6,354.9,379.3,355,379.2 M361.6,375.8c-0.3-0.1-0.7-0.2-1-0.3c-0.3-0.1-0.5-0.1-0.5-0.1
	c-1.3,0-2.4,0.2-3.2,0.6c-0.6,0.3-0.9,0.6-0.9,1c0,1.1,0.5,1.8,1.4,2.1c0.3,0.1,0.9,0.2,1.8,0.2h0.7c0.6-0.1,1.2-0.3,1.8-0.6
	c0.1,0,0.3-0.1,0.4-0.1c0.2-0.1,0.4-0.2,0.6-0.4c0.3-0.2,0.5-0.4,0.6-0.5c0.5-0.4,0.8-0.8,0.9-1.2c0,0-0.3-0.1-0.9-0.3
	C362.9,376.1,362.3,376,361.6,375.8 M360.3,374c0.5-0.3,1-0.6,1.4-1c0.3-0.3,0.4-0.5,0.5-0.7c-2.1,0.7-3.3,1.4-3.8,2.2
	c0.2,0,0.4-0.1,0.6-0.1C359.7,374.2,360.1,374.1,360.3,374 M364.4,373.9c-0.1-0.6-0.2-1-0.2-1.5c-0.1,0-0.2,0-0.4,0l-0.9,0.8
	c-0.6,0.6-1.3,0.9-1.9,0.9l0.1,0.2c0,0,0.2,0.2,0.5,0.4c0.3,0.3,0.5,0.4,0.6,0.5c0.2,0.1,0.5,0.1,0.7,0.1h0.4c0.3,0,0.6-0.1,0.9-0.1
	c0.2,0,0.3-0.1,0.3-0.1s0.1-0.1,0.1-0.3C364.5,374.8,364.4,374.4,364.4,373.9 M341.8,360.4c0-0.4,0-0.6-0.1-0.6
	c-0.2-0.2-0.5-0.4-0.9-0.5c0.1,0.4-0.2,1-0.9,1.7c-0.7,0.7-1,1.3-1,1.6c0.6-0.4,1.3-0.8,2.1-1.3
	C341.5,360.8,341.8,360.6,341.8,360.4 M327,369.1c-0.2-1-0.9-2.8-2.2-5.6c-0.7-1.4-1.1-2.3-1.3-2.7c-0.6-0.9-1.2-1.5-1.8-1.6
	c-0.1,0-0.3,0-0.4,0V359l0.3-0.1c0.2,0,0.3-0.1,0.4-0.1c-0.2-0.6-0.4-1-0.6-1.3c-0.2-0.1-0.9-0.5-2.1-1.1v1.8l-0.2,1.4
	c-0.4,2,0.3,4.8,2.1,8.5c1.9,4,3.3,6.1,4.1,6.4c0.8,0.3,1.2,0.5,1.3,0.6c0.5,0,0.8-0.1,0.7-0.3c0-0.1,0-0.3,0-0.5
	C327.3,371.5,327.2,369.8,327,369.1 M325,360.4c0.1,0.2,0.3,0.5,0.5,0.8s0.3,0.2,0.2-0.4c-0.2-0.5-0.3-0.9-0.3-1s0-0.2-0.1-0.3
	c-0.1-0.1-0.1-0.1-0.2-0.1s-0.2,0-0.3,0.1c-0.1,0.1-0.1,0.2-0.1,0.3C324.8,360,324.9,360.2,325,360.4 M328.9,359h-0.1
	c-0.1,0.2-0.4,0.3-0.8,0.4s-0.8,0.1-1.2,0.1c0,0,0.1,0.2,0.2,0.5c0,0.2,0.1,0.3,0.2,0.3c0.2,0,0.5-0.1,0.8-0.4
	C328.3,359.7,328.6,359.4,328.9,359 M329.4,360L329.4,360c-0.2,0-0.3,0-0.4,0c0,0-0.6,0.3-1.8,1c0.1,0.2,0.2,0.3,0.2,0.3
	c0,0.1,0.1,0.1,0.2,0.1s0.3-0.1,0.6-0.4C328.4,360.9,328.8,360.5,329.4,360 M332.6,358.5h-0.4c-0.1,0-0.1,0-0.1,0.1
	c0,0,0.1,0.1,0.1,0.2c-0.1,0.2-0.5,0.6-1.3,1c-0.5,0.3-1,0.7-1.5,1l-2.3,1.7c-0.1,0.5,0.2,1.4,0.8,2.6c0.5,1.1,1,2,1.5,2.5
	c0.4,0.5,0.8,0.8,1.1,0.8c0.9,0,2-0.8,3.4-2.5c1.3-1.5,1.9-2.5,1.9-3.1c0-0.2-0.3-0.7-0.9-1.5C333.9,360.1,333.2,359.2,332.6,358.5
	 M324.8,358.5c0-0.2-0.2-0.4-0.5-0.6c-0.4-0.2-0.5-0.6-0.5-1.3c0-0.3,0.1-0.5,0.1-0.8c0-0.5-0.1-0.9-0.3-1.2
	c-0.4-1.1-1.6-1.6-3.4-1.6c0.1,0.6,0.6,1.5,1.3,2.7c0.8,1.2,1.8,2.2,3.1,3.3c0-0.1,0.1-0.2,0.1-0.3L324.8,358.5 M328.6,355.4
	c0,0.1,0.2,0.3,0.4,0.7c0.2,0.3,0.2,0.6,0.2,1.1c0.1,0,0.2,0,0.3,0l0.6,0.1c0.1,0,0.1,0,0.2-0.1s0.1-0.4,0.1-0.7V356h0.2v0.3
	l0.8,0.8c-0.2,0.6-0.2,0.9-0.2,1c0.1,0,0.3-0.2,0.5-0.5c0.3-0.4,0.4-0.7,0.4-1c0-0.1,0-0.2,0-0.2v-0.1h-0.4h-0.6c0-0.7,0-1.1,0-1.3
	h-0.4c0,0-0.1,0.2-0.1,0.6c0,0.1-0.1,0.2-0.2,0.2c-0.3-0.2-0.6-0.4-0.8-0.4C329.4,355.4,329.1,355.4,328.6,355.4 M339.6,358.1
	c0-0.2-0.2-0.4-0.6-0.5s-0.9-0.1-1.6-0.1c-0.4-0.1-0.7-0.2-0.9-0.1c-0.5,0.1-0.5,0.7,0,1.7c0.4,0.8,0.7,1.3,0.8,1.5
	c0.1,0.2,0.2,0.3,0.4,0.3c0.1,0,0.4-0.3,1-1C339.3,359.1,339.6,358.5,339.6,358.1 M364.2,371L364.2,371c0,0,0,0-0.1,0
	c-0.2,0.3-0.5,0.5-0.8,0.6c-0.3,0.2-0.5,0.3-0.5,0.5s0,0.2,0,0.2c0.4,0,0.7-0.1,0.9-0.4c0.3-0.2,0.4-0.5,0.4-0.8V371 M355.1,362.9
	c0,0.3,0.2,0.4,0.5,0.4c0.4,0,0.9-0.1,1.7-0.3c0.8-0.2,1.3-0.4,1.4-0.5l0,0c-0.3,0-1.4-0.2-3.3-0.7
	C355.4,361.9,355.3,362.3,355.1,362.9 M355.5,364.8c0.1,0,0.3-0.1,0.7-0.3c0.4-0.2,0.7-0.3,0.8-0.4c0,0-0.1-0.1-0.2-0.1
	s-0.3,0-0.4,0s-0.1,0-0.1,0.1l0,0c0,0.1-0.4,0.1-1.3,0.1c0,0.2,0,0.3,0.1,0.4C355.2,364.8,355.3,364.8,355.5,364.8 M361.6,364.7
	c0-0.1-0.1-0.1-0.2-0.2c-0.3,1.2-0.7,2.5-1.4,3.8c0,0.1,0,0.2,0.1,0.4c0.1,0,0.1,0.1,0.1,0.1v0.1c-0.2,0.2-0.4,0.7-0.5,1.3
	c-0.2,0.6-0.4,1.1-0.5,1.5c-0.2,0.4-0.3,0.6-0.3,0.8c-0.1,0.2,0,0.3,0.1,0.3s0.4-0.1,1.1-0.3c0.1,0,0.1,0,0.2-0.1
	c0.9-0.3,1.6-0.6,2.3-0.9c0.9-0.5,1.5-1,1.7-1.6l-0.2-0.9c-0.4,0-0.8,0-1-0.1c-0.6-0.1-0.9-0.3-1-0.8c0.2,0,0.3-0.1,0.4-0.3
	c0-0.1-0.1-0.1-0.2-0.3c-0.1-0.1-0.2-0.2-0.2-0.2c0.2,0,0.3-0.1,0.4-0.3c-0.4-0.3-0.6-0.6-0.7-0.7c-0.3-0.4-0.4-0.9-0.3-1.3
	L361.6,364.7 M360.5,364.6h-0.2c-0.2-0.1-0.4-0.1-0.5-0.1c-0.6,0-1.3,0.1-2.2,0.4c-1,0.3-2,0.7-2.9,1.3c-2.4,1.5-3.6,3.7-3.6,6.4
	c0,0.9,0.2,1.5,0.7,1.8c0.5,0.4,1.6,0.6,3.3,0.6c0.9,0,1.7-0.3,2.2-1c0.5-0.6,1-1.7,1.5-3.3c0.5-1.7,1-3.1,1.3-4.2
	c0.1-0.4,0.2-0.8,0.3-1.1C360.4,365.1,360.5,364.8,360.5,364.6 M353.4,364.7l-0.1-0.1c-0.2-0.1-0.3-0.1-0.5-0.1
	c-0.3,0-1.5,0.4-3.6,1.3c-1.2,0.3-3.5,1-6.9,2.1c-0.5,0.1-0.8,0.1-0.9,0.1c-0.1,0.1-0.6,0.2-1.3,0.3c-0.2,0-0.4,0.1-0.5,0.1
	s-0.4,0-0.8,0.1c-0.9,0.2-1.6,0.6-2.1,1.1c-0.1,0.1-0.4,0.2-0.9,0.4c-0.5,0.2-0.8,0.4-1,0.5c-0.3,0.4-0.8,1-1.7,1.8
	c-0.8,0.7-1.2,1.2-1.2,1.4c-0.1,0.2-0.1,0.7-0.2,1.6c-0.1,1-0.1,1.6-0.1,1.7c-0.1,0.7-0.3,1.3-0.5,1.8c-0.2,0.4-0.4,0.7-0.4,1
	c0,0.8,0.1,1.3,0.3,1.5c0.1,0.3,0.2,0.5,0.3,0.7c0,0.3-0.1,0.6-0.4,1c-0.2,0.3-0.4,0.5-0.4,0.5c0,0.1,0,0.4,0.1,1.1s0.1,1,0.1,1.1
	s0,0.4-0.1,1s-0.1,1-0.1,1.1c0,0.6,0.1,1,0.3,1.4c0.2,0.4,0.5,0.6,0.9,0.6c1.5,0,4.5-1.5,9-4.6c1.2-0.8,2.8-2,4.9-3.5
	c0.2-0.2,0.3-0.3,0.5-0.5c1.7-2.1,2.8-3.9,3.5-5.4c0.4-1,0.7-2.1,0.8-3.5c0.1-1.4,0.3-2.5,0.5-3.2
	C351.1,367.9,352,366.4,353.4,364.7 M352.4,363.5c0.8,0,1.4-0.1,1.7-0.3c0.3-0.2,0.5-0.8,0.5-1.6c0-0.8-0.4-1-1.1-0.4
	s-1.2,1.3-1.4,2.2L352.4,363.5 M350.6,361.9c-0.1-0.1-0.3-0.1-0.6-0.1c-0.8,0.1-2.5,0.1-5,0.3l-0.1-0.1c-0.1-0.1-0.2-0.1-0.3-0.1
	c-1.8-0.3-3.5,0.2-5,1.6s-2.4,2.4-2.9,2.9c-1.3,1.4-1.9,2.3-2,2.6c2.2-1.2,4-2,5.4-2.4c1.5-0.3,2.5-0.5,3.1-0.5
	c1.6-0.1,3.3-0.6,5-1.5c1.5-0.8,2.3-1.6,2.6-2.3C350.7,362,350.7,361.9,350.6,361.9 M351.2,361.1c-0.2-0.3-0.6-0.5-1.1-0.9
	c-0.4-0.2-0.6-0.3-0.8-0.3c0,0-0.3,0.1-0.7,0.3c-0.4,0.2-0.6,0.3-0.8,0.3c0,0-0.1-0.1-0.3-0.1l-0.3-0.1c-0.3,0-0.6,0.2-1.1,0.5
	s-0.8,0.5-0.9,0.5c0.1,0.1,0.3,0.1,0.5,0.1s0.4,0,0.7,0c0.3,0,0.6,0,1,0.1c0.2,0,0.7,0.1,1.5,0.1c0.9,0,1.5-0.1,1.8-0.2
	c0.1,0,0.2-0.1,0.2-0.1C351,361.2,351.1,361.2,351.2,361.1 M346.5,358.4c0,0.1-0.1,0.2-0.4,0.4c-0.2,0.1-0.9,0.5-2.1,1.2
	c0.5-0.1,0.9-0.1,1.1-0.1s0.5,0,0.8,0s0.6-0.1,0.9-0.2c0.4-0.2,0.8-0.5,1.1-0.9C347.6,358.5,347.1,358.4,346.5,358.4l-0.1-0.1
	L346.5,358.4 M444.4,457.1v8.9h5.8v-8.9H444.4 M450.1,394.9h-5.8v13.3h5.8V394.9 M427.2,345h-10.3v7h10.3V345 M432.1,316.9v4h4.1v-4
	H432.1 M442.5,307l-1.8-4.9l-1.9,4.9H442.5 M477.6,345h-10.3v7h10.3V345 M458.3,316.9v4h4.1v-4H458.3 M454.1,302.1l-1.9,4.9h3.6
	L454.1,302.1 M445.5,307h3.7l-1.8-4.9L445.5,307 M455.7,295.1h-3.6l1.8,4.8L455.7,295.1 M456.9,295.1c0,0.1,0,0.1,0,0.1l-2.2,5.7
	l2.3,5.9v0.1h0.9V295L456.9,295.1 M450.3,295.1c0,0.1,0,0.1,0,0.1l-2.1,5.7l2.2,5.9v0.1h0.8c0-0.1,0-0.1,0-0.1l2.1-5.9l-2.1-5.7
	l-0.1-0.1H450.3 M449.1,295h-3.5l1.8,4.8L449.1,295 M442.5,295h-3.6l1.8,4.8L442.5,295 M443.5,295.1c0,0.1,0,0.1,0,0.1l-2.1,5.7
	l2.2,5.9v0.1h0.8c0-0.1,0-0.1,0.1-0.1l2.1-5.9l-2.1-5.7v-0.1H443.5 M437.9,295.1h-1.1V307h1c0-0.1,0-0.1,0.1-0.1l2.1-5.9l-2.1-5.7
	C437.9,295.3,437.9,295.2,437.9,295.1 M481.5,482c-1.1,0-2.1,0.4-2.9,1.2c-0.8,0.8-1.2,1.8-1.2,3v14.6h8.4v-14.6
	c0-1.2-0.4-2.2-1.3-3C483.7,482.4,482.7,482,481.5,482L481.5,482 M444.9,483.4c-0.7,0.8-1.1,1.7-1.1,2.8v14.6h8.4v-14.6
	c0-1.2-0.4-2.2-1.3-3c-0.8-0.8-1.8-1.2-2.9-1.2l0,0c-1.1,0-2.1,0.4-3,1.2C444.9,483.2,444.9,483.3,444.9,483.4 M414.4,482
	c-0.9,0-1.7,0.2-2.4,0.7c-0.2,0.1-0.4,0.3-0.6,0.5c-0.8,0.8-1.2,1.8-1.2,3v14.6h8.3v-14.6c0-1.2-0.4-2.2-1.3-3
	C416.5,482.4,415.5,482,414.4,482L414.4,482 M302.1,365.6c0.6,0.3,1,0.5,1.2,0.5c0.3-0.1,0.5-0.2,0.7-0.3c-0.1-0.2-0.6-0.4-1.5-0.7
	c-0.9-0.3-1.5-0.5-1.7-0.6C301,364.9,301.4,365.3,302.1,365.6 M302.6,364.3c-0.1-0.1-0.2-0.2-0.3-0.3c-0.2-0.2-0.3-0.4-0.5-0.5
	c-0.6-0.4-1.3-0.3-2,0.3c0.4,0.3,1.1,0.5,2.1,0.6c0.2,0,0.4,0.1,0.5,0.1C302.6,364.4,302.6,364.4,302.6,364.3L302.6,364.3
	 M309,367.6c0.4,0,0.8-0.1,1.2-0.4s0.6-0.5,0.6-0.8c0-0.1-0.3-0.3-0.8-0.5c-0.6-0.2-1.6-0.5-2.9-0.7l-2.4-0.3
	c0.7,0.7,1.5,1.3,2.3,1.8C307.9,367.4,308.6,367.6,309,367.6 M312.9,366.5c-0.2,0-0.5,0.1-1,0.4s-0.8,0.5-1,0.6
	c0.1,0.3,0.6,0.7,1.5,1.2s1.9,0.9,3,1.4c0-0.1,0-0.2,0-0.4c0-0.7-0.1-1.3-0.4-1.9C314.5,367,313.8,366.5,312.9,366.5 M305.6,363.3
	c-0.2,0.5-0.4,0.9-0.4,1.1s0.8,0.3,2.3,0.4c-0.2-0.4-0.5-0.7-0.7-1c-0.3-0.3-0.5-0.6-0.6-0.9C306.1,362.6,305.9,362.7,305.6,363.3
	 M304.5,364.3c0.1,0,0.2-0.2,0.4-0.5c0.1-0.3,0.3-0.8,0.4-1.5s-0.4-0.6-1.5,0.1c-0.9,0.3-1.4,0.4-1.5,0.4c0.1,0.4,0.5,0.7,1.2,1.1
	C303.8,364.1,304.1,364.2,304.5,364.3 M309.4,360.6c-0.2,0.3-0.4,0.5-0.5,0.7c-0.2,0-0.5,0.1-0.7,0.1c-0.5,0.1-0.9,0.4-1.3,0.9
	l0.6,1.3l0.1,0.2c0.2,0.3,0.5,0.6,0.9,0.9c0.5,0.5,0.9,0.7,1.1,0.7v-0.1c0.1-0.1,0.1-0.1,0.2-0.2c-0.1-0.4-0.2-0.6-0.5-0.8
	c-0.3-0.2-0.5-0.3-0.5-0.5h0.2c0.1,0.1,0.2,0.1,0.4,0.2c0.1,0.1,0.2,0.1,0.3,0.1c0.1,0,0.2,0,0.2,0c0-1.6-0.1-2.9-0.1-3.8
	c-0.1,0-0.1,0-0.1,0C309.6,360.3,309.5,360.5,309.4,360.6 M310.5,360c-0.1,0.1-0.1,0.3-0.2,0.7c0,0.3-0.1,0.6-0.1,1l0.1,1.6
	c0.1,1.3,0.7,2.1,1.6,2.6c0.6,0.3,1.5,0.4,2.6,0.4c0.2,0,0.5-0.2,0.7-0.6c0.3-0.5,0.5-1,0.5-1.6c0-1-0.8-1.9-2.4-2.9
	C312.8,360.9,311.8,360.5,310.5,360 M312,359.7c0.2,0.5,0.6,0.8,1.2,1c0.3,0.2,0.6,0.3,0.8,0.3c0.1,0,0.2-0.1,0.4-0.3
	c0.1-0.2,0.2-0.5,0.2-0.8c0-0.1,0-0.2-0.1-0.2h-0.1C313.5,359.3,312.7,359.3,312,359.7 M317.4,356.7c0.1-0.2,0.2-0.4,0.2-0.6
	c0-0.1-0.4-0.3-1.1-0.6c-0.8-0.3-1.4-0.5-1.9-0.4c0.1,0.5,0.4,0.9,0.9,1.3s1.1,0.6,1.6,0.6C317.2,357,317.3,356.9,317.4,356.7
	 M315,356.9c0,0.2,0.1,0.4,0.1,0.8c0.1,0.3,0.1,0.5,0.1,0.8s0.1,0.5,0.5,0.4c0.3,0,0.6,0,0.7,0.1c0.1,0,0.3,0,0.5,0s0.3,0,0.4,0
	c-0.1-0.3-0.3-0.6-0.6-1C316.2,357.6,315.7,357.3,315,356.9 M314.4,358c0-0.6,0.1-0.9,0.1-1l-0.3-0.1c-0.4,0.5-0.6,0.9-0.7,1.2
	c-0.1,0.4,0.2,0.6,0.7,0.6c0.2,0,0.3,0,0.3-0.1s0-0.2,0.1-0.3c0-0.1-0.1-0.1-0.1-0.2C314.4,358.1,314.4,358.1,314.4,358
	 M316.5,354.8c0.2,0,0.3-0.1,0.3-0.1s-0.4-0.2-1-0.4s-1-0.4-1.2-0.4c0.1,0.4,0.3,0.7,0.8,0.9c0.2,0.1,0.5,0.1,0.7,0.1
	C316.2,354.9,316.3,354.9,316.5,354.8 M317.6,353.3c-0.1-0.1-0.3-0.1-0.5-0.1s-0.4,0-0.5,0.1s-0.2,0.2-0.2,0.4
	c0,0.1,0.1,0.2,0.2,0.3c0.1,0.1,0.3,0.1,0.5,0.1s0.4,0,0.5-0.1s0.2-0.2,0.2-0.3C317.8,353.5,317.7,353.4,317.6,353.3 M607.7,427h3
	v-11.4h-3V427 M666.7,426.5c-1.1,0-2,0.4-2.8,1.3s-1.1,1.9-1.1,3.1v15h7.9v-15c0-1.2-0.4-2.2-1.1-3.1
	C668.7,426.9,667.8,426.5,666.7,426.5 M659.8,430.8c0-1.2-0.4-2.2-1.1-3.1c-0.8-0.8-1.7-1.2-2.8-1.3c-1.1,0-2,0.4-2.8,1.3
	c-0.4,0.4-0.6,0.9-0.8,1.4s-0.3,1.1-0.3,1.7v15h7.9v-15 M700.5,430.8c0-1.2-0.4-2.2-1.1-3.1c-0.8-0.8-1.7-1.2-2.8-1.3
	c-1.1,0-2,0.4-2.8,1.3c-0.4,0.4-0.7,0.9-0.8,1.4c-0.2,0.5-0.3,1.1-0.3,1.7v15h7.9v-15 M704.5,427.7c-0.8,0.9-1.2,1.9-1.2,3.1v15h8
	v-15c0-1.2-0.4-2.2-1.1-3.1c-0.8-0.8-1.7-1.2-2.8-1.3C706.3,426.5,705.3,426.9,704.5,427.7 M741.3,430.8c0-1.2-0.4-2.2-1.2-3.1
	c-0.8-0.8-1.7-1.2-2.8-1.3c-1.1,0-2,0.4-2.8,1.3c-0.4,0.4-0.7,0.9-0.9,1.4s-0.3,1.1-0.3,1.7v15h8V430.8 M745.2,427.7
	c-0.8,0.9-1.2,1.9-1.2,3.1v15h7.9v-15c0-1.2-0.4-2.2-1.2-3.1c-0.8-0.8-1.7-1.2-2.8-1.3C746.9,426.5,746,426.9,745.2,427.7
	 M781.9,430.8c0-1.2-0.4-2.2-1.2-3.1c-0.8-0.8-1.7-1.2-2.8-1.3c-1.1,0-2,0.4-2.8,1.3c-0.4,0.4-0.7,0.9-0.9,1.4s-0.3,1.1-0.3,1.7v15
	h7.9L781.9,430.8 M788.7,426.5c-1.1,0-2,0.4-2.8,1.3s-1.2,1.9-1.2,3.1v15h8v-15c0-1.2-0.4-2.2-1.2-3.1S789.8,426.5,788.7,426.5
	 M834.5,414.6V426h3v-11.4H834.5 M194.6,428c0-1-0.4-1.9-1.1-2.7c-0.7-0.7-1.6-1.1-2.7-1.1h-0.1c-1,0-1.9,0.4-2.6,1.1
	c-0.8,0.8-1.2,1.7-1.2,2.7v14.4c0,0.1,0,0.3,0,0.4l7.7-0.4L194.6,428 M222.9,441.1h6.1v-11.6c-0.1-4-1.2-6.8-3.3-8.2
	c-1.7,1.5-2.6,4-2.8,7.4V441.1 M208.1,421.5c-1.7,1.5-2.7,4-2.8,7.4v12.2l6.1,0.1v-11.6C211.4,425.6,210.3,422.9,208.1,421.5
	 M216.9,421.5c-1.7,1.5-2.7,4-2.8,7.4v12.2l4.9,0.1l1.3-0.1v-11.5C220.1,425.6,219,422.9,216.9,421.5 M255.4,377.9
	c0-0.3-0.1-0.5-0.2-0.6c-0.2-0.1-0.4-0.2-0.6-0.2h-0.1c-0.2,0-0.4,0.1-0.6,0.2c-0.2,0.1-0.3,0.4-0.3,0.6v8.9c0,0.3,0.1,0.5,0.3,0.7
	c0.1,0.2,0.3,0.3,0.6,0.3h0.1c0.2,0,0.4-0.1,0.6-0.3c0.1-0.2,0.2-0.4,0.2-0.7V377.9 M212.5,388.3c-2.9,1.5-4.5,4-4.7,7.4v7.3h10.4
	v-6.5C218,392.4,216.1,389.7,212.5,388.3z"/>
<path class="st0" d="M1075.6,251.9l2.7,3.3c2.6,2.4,6,4.5,10.2,6.2c13,5.4,31.1,6.1,54.2,2.3c7.7-0.8,14.7-3.6,21-8.3l6.1,1.4
	c4.9,1,9.7,1.7,14.2,2.1c11.2,0.9,27.4,0.8,48.8-0.1c21.3-1,32.8-3.4,34.4-7.3c1.6-3.8-2-6.8-10.8-9c-9.5-2.4-17.3-3.6-23.4-3.6
	c-2.9,0-5.6,0.2-8.1,0.7c-0.3-0.3-0.6-0.7-0.8-0.9c-2.6-2.9-5.6-5.1-9.3-6.6c-8.2-3.5-19.1-3.6-32.8-0.3c-7.5-9.9-18-16.7-31.5-20.5
	c-13.6-3.9-29.6-1.6-48.1,6.9c-4.1-0.8-8.4-1.4-12.8-1.9c-21.3-2.3-37.3,0.6-47.9,8.6c-6.3-1.7-13-2.9-20.2-3.4
	c-14.4-1.2-24.1,1.2-29,7.1c-12.3,0.1-24.6,0.4-37,0.8c-16.8,0.7-27.9,1.6-33.3,2.8c-2.5,0.6-3.8,1.2-3.8,1.9
	c-0.1,4.1,24,6.2,72.3,6.3l2.7,2c2.3,1.5,4.8,2.8,7.3,3.9c8.1,3.6,15.7,4.4,22.7,2.3l4.9,2.4c4.1,1.8,8.3,3.2,12.5,4.3
	C1054.2,258.4,1065.9,257.4,1075.6,251.9 M1122.5,357c-2,0-3.8,0.6-5.3,1.9c-0.4,0.3-0.7,0.8-0.8,1.3c0,0.6,0.1,1.1,0.4,1.5
	s0.8,0.7,1.3,0.7c0.6,0.1,1.1-0.1,1.5-0.4c0.8-0.6,1.8-1,2.8-1c1.1,0,2,0.3,2.8,0.9v0.1c0.1,0.1,0.3,0.2,0.3,0.3
	c0.5,0.5,0.9,1,1.1,1.6c0.2,0.4,0.4,0.7,0.8,0.9c0.3,0.2,0.7,0.4,1.1,0.4s0.8-0.1,1.2-0.4c0.3-0.2,0.6-0.5,0.7-1
	c0.2-0.5,0.6-1,1-1.5l-0.2,0.1c0.2-0.1,0.4-0.3,0.6-0.4v-0.1c0.8-0.6,1.8-0.9,2.9-0.9s2,0.3,2.8,1c0.4,0.3,0.9,0.5,1.4,0.4
	c0.6,0,1-0.3,1.3-0.7c0.3-0.4,0.5-0.9,0.4-1.5c0-0.5-0.3-1-0.7-1.3c-1.5-1.2-3.3-1.8-5.3-1.9c-2,0-3.8,0.6-5.4,1.9l0,0
	c-0.2,0.2-0.4,0.3-0.6,0.5c0,0-0.1,0.1-0.2,0.1c0,0,0,0.1-0.1,0l0,0c-0.2-0.2-0.4-0.4-0.7-0.6l0,0
	C1126.3,357.6,1124.5,357,1122.5,357 M148.6,393.9c-0.5-0.1-1,0-1.5,0.3c-0.8,0.5-1.6,1.1-2.4,1.9l-0.1,0.1
	c-0.3,0.3-0.6,0.6-0.9,0.9c0,0.1-0.1,0.1-0.1,0.2c-0.3,0.4-0.6,0.7-0.8,1.1c-0.2-0.4-0.5-0.7-0.8-1.1s-0.7-0.8-1.1-1.2
	c-0.7-0.7-1.5-1.3-2.3-1.9c-0.5-0.3-1-0.4-1.5-0.3s-1,0.4-1.3,0.9s-0.4,1-0.3,1.5c0.1,0.5,0.4,1,0.9,1.3c0.6,0.4,1.1,0.8,1.6,1.3
	c0.3,0.3,0.6,0.6,0.8,0.9c0.9,1.1,1.6,2.4,2,3.8c0.1,0.4,0.4,0.8,0.8,1c0.4,0.3,0.8,0.4,1.2,0.4s0.8-0.2,1.1-0.4
	c0.4-0.2,0.6-0.6,0.7-1c0.4-1.4,1.1-2.6,1.9-3.8l-0.1,0.1c0.4-0.3,0.7-0.7,1-1.1c0.5-0.5,1.1-0.9,1.6-1.3c0.5-0.3,0.8-0.7,0.9-1.3
	c0.1-0.5,0-1-0.3-1.5C149.5,394.3,149.1,394,148.6,393.9 M541,196.1c-3.2-1.3-6.7-1.9-10.5-1.9c-4.1,0-7.9,0.8-11.3,2.3
	c-3.3,1.5-5.7,3.5-7,5.9H512c-2.6,0-4.9,0.4-7.1,1.3c-2.1,0.9-3.7,2.1-4.7,3.6l-1.1-0.1c-2.2,0-4.1,0.4-5.8,1.4
	c-2.4,2.1-3.8,3.2-4.2,3.2c-1,0-2,0.2-3,0.6c-0.8,0.4-8,0.7-21.6,0.9c-5.9,0.6-8.5,1.9-8,3.8c0.5,1.9,8.9,2.2,25.4,0.9
	s26-1.9,28.5-1.8c2.5,0.2,6.1,0.3,10.9,0.3c4.8,0,11.4,0.4,19.8,1.3c8.4,0.8,16.8,0.8,25.2-0.1s12.7-2.7,12.9-5.2
	c0.1-2.5-2.7-5.1-8.6-7.6c-5.9-2.5-10.6-3.9-14.3-4c-3.7-0.2-6.4,0-8.2,0.5C546.5,199.1,544.1,197.3,541,196.1 M789.3,345.3
	c-0.5,0.1-0.9,0.4-1.3,0.9c-0.3,0.5-0.4,1-0.3,1.5c0.1,0.6,0.4,1,0.8,1.3c0.5,0.3,1,0.4,1.5,0.3s1-0.2,1.5-0.2
	c1.7,0,3.1,0.6,4.3,1.8c0.6,0.6,1,1.2,1.3,1.9c0.2,0.5,0.6,0.8,1.1,1.1c0.5,0.2,1,0.2,1.5,0s0.8-0.6,1-1.1c0.3-0.7,0.8-1.3,1.3-1.9
	c1.2-1.2,2.6-1.7,4.3-1.8c0.1,0,0.2,0,0.3,0c0.6,0.1,1.1,0,1.5-0.3c0.5-0.3,0.7-0.7,0.8-1.3c0.1-0.5,0-1-0.4-1.4
	c-0.3-0.5-0.7-0.7-1.3-0.9c-0.3,0-0.6-0.1-1-0.1c-2.8,0-5.2,1-7.1,2.9c-0.1,0.1-0.2,0.2-0.3,0.3c-0.1-0.1-0.2-0.2-0.3-0.3
	c-1.9-1.9-4.3-2.9-7.1-2.9C790.8,345.1,790,345.1,789.3,345.3 M781.3,329.1c-0.2-0.5-0.6-0.8-1.2-1c-0.5-0.2-1-0.1-1.5,0.1
	c-1,0.5-2,1.1-2.9,1.8c0,0,0,0.1-0.1,0c-0.4,0.4-0.8,0.7-1.2,1c0,0-0.1,0.1-0.2,0.1c-0.5,0.6-1,1.2-1.5,1.8c-0.5-0.6-1-1.2-1.5-1.8
	c-0.4-0.4-0.8-0.7-1.3-1.1l0,0c-0.9-0.7-1.9-1.3-2.9-1.8c-0.5-0.2-1-0.3-1.5-0.1c-0.5,0.2-0.9,0.5-1.1,1c-0.2,0.5-0.3,1-0.1,1.5
	s0.5,0.9,1,1.2c0.7,0.4,1.5,0.8,2.2,1.4l0,0c0.4,0.3,0.7,0.6,0.9,0.9c1.2,1.1,2,2.4,2.6,3.8c0.2,0.4,0.4,0.7,0.8,0.9
	c0.3,0.2,0.7,0.4,1.1,0.3c0.4,0,0.8-0.1,1.2-0.4c0.3-0.2,0.6-0.5,0.7-0.9c0.5-1.4,1.3-2.6,2.4-3.8l-0.1,0.1c0.4-0.3,0.8-0.7,1.2-1
	l0,0c0.7-0.5,1.4-1,2.1-1.4c0.5-0.2,0.8-0.6,1-1.1C781.5,330.1,781.5,329.6,781.3,329.1 M392.2,115.5l-6.1,1.4
	c-10.6-7.9-26.6-10.8-47.9-8.5c-0.8,0.1-1.7,0.2-2.6,0.3h-0.1c-2.6-0.8-5.8-1.5-9.5-2.1c-22.7-3.5-39-2.8-49,2.2s-19.9,6.5-29.9,4.5
	c-9.9-2-16.9-2.4-21-1.4s-11.9,3.9-23.4,8.8c-16-7.2-26.6-5.9-31.9,3.8c-5.3,9.8-3.9,16.6,4.3,20.4c5.9,2.8,14.4,3.8,25.6,2.9
	c4.5-0.4,9.2-1.1,14.1-2.1l6.1-1.4c10.6,7.9,26.6,10.8,47.9,8.5c0.8-0.1,1.5-0.1,2.3-0.3c0.1,0,0.1-0.1,0.3-0.1
	c2.7,0.8,5.9,1.5,9.7,2.1c22.7,3.5,39,2.8,49-2.2s19.9-6.5,29.9-4.5c9.9,2,16.9,2.4,21,1.4s11.9-4,23.4-8.8c7,2.1,14.6,1.4,22.7-2.3
	c4-1.8,7.4-3.8,10-6c45.2-0.1,68-1.7,68.4-4.8c0.4-3.1-10.7-5.1-33.1-6.1l-37-0.8c-4.9-5.9-14.5-8.3-28.9-7.2
	C401.9,113.8,397.1,114.5,392.2,115.5z"/>
<linearGradient id="SVGID_4_" gradientUnits="userSpaceOnUse" x1="35.5" y1="1427.3625" x2="1262.9" y2="1427.3625" gradientTransform="matrix(1 0 0 -1 0 1700)">
	<stop  offset="0.102" style="stop-color:#FFCC00"/>
	<stop  offset="1" style="stop-color:#FF4F8A"/>
</linearGradient>
<path class="st4" d="M1102.2,218.1c-2.8-2.9-5.6-5.8-8.4-8.6c-47.7-47.7-99.3-86.1-154.7-115.3c-17.5-9.2-35.3-17.5-53.5-24.8
	c-1.5-0.6-2.9-1.2-4.4-1.8c-16.5-6.5-33.3-12.2-50.5-17.2c-11.1-3.2-22.3-6.2-33.7-8.8c-3.3-0.7-6.5-1.5-9.8-2.2
	c-43.7-9.2-89.4-13.8-137-13.8c-23.6,0-46.8,1.1-69.5,3.4c-23,2.3-45.5,5.8-67.5,10.4c-3.3,0.7-6.5,1.4-9.7,2.2
	c-28.9,6.6-57,15.3-84.3,26c-1.5,0.6-2.9,1.1-4.4,1.8c-23.1,9.3-45.5,20-67.3,32.3c-4.1,2.3-8.1,4.6-12.1,7c0.1,0,0.1,0,0.1,0
	c0.9-0.1,1.7-0.2,2.6-0.3c21.3-2.3,37.3,0.6,47.9,8.5l6.1-1.4c4.9-1,9.6-1.7,14.1-2.1c14.4-1.1,24,1.3,28.9,7.2l37,0.8
	c22.4,1,33.5,3,33.1,6.1s-23.2,4.7-68.4,4.8c-2.6,2.2-5.9,4.2-10,6c-8.1,3.6-15.7,4.4-22.7,2.3c-11.5,4.8-19.3,7.7-23.4,8.8
	c-4.1,1-11.1,0.5-21-1.4c-10-1.9-19.9-0.4-29.9,4.5c-10,5-26.3,5.7-49,2.2c-3.8-0.6-7-1.3-9.7-2.1c-0.1,0-0.2,0-0.3,0.1
	c-22.2,17.2-43.7,36.2-64.4,56.9c-23.8,23.8-45.2,48.5-64.4,74.2c-33.5,44.8-59.9,92.6-79.2,143.3c-6.9,21.2-10.8,38.8-12,53
	c-0.1,1.2-0.1,2.5-0.2,3.6c-0.3,7,0.1,13.1,1.3,18.2c2.2,9.1,6.9,14.7,14.3,16.8c4.5,1.3,9.9,1.3,16.3,0c1.4-0.3,2.8-0.6,4.2-1
	c1.4-1.5,2.6-3.4,3.6-5.5c0.1-0.3,0.3-0.6,0.4-0.9c3.6-1,6.8-1.9,9.7-2.6c1.4-3.3,3.2-7.2,5.4-11.7c-0.2-0.1-0.4-0.2-0.5-0.3
	c-0.2-0.2-0.3-0.5-0.3-0.8c0-0.4,0.2-0.6,0.5-0.6c-0.4-0.2-0.5-0.5-0.4-1c0.1-0.4,0.4-0.6,0.8-0.6c-0.3-0.1-0.6-0.3-0.8-0.5
	c-0.2-0.4-0.1-0.7,0.1-1c0.2-0.2,0.5-0.2,1,0s0.9,0.2,1.1,0.1c-0.5-0.1-0.7-0.4-0.8-1c0-0.2,0.1-0.4,0.3-0.6
	c0.2-0.2,0.4-0.3,0.6-0.3c-0.3-0.3-0.4-0.6-0.3-1c0.1-0.2,0.3-0.3,0.5-0.4c0.3,0,0.5,0,0.7,0.2c0.3,0.1,0.6,0.5,1,1s0.8,0.7,1.2,0.7
	c-0.3-0.3-0.5-0.6-0.6-0.9c-0.1-0.4,0-0.8,0.3-1.1c0.3-0.2,0.6-0.2,1,0.1l0.1-0.1c0.1,0,0.1,0,0.2,0c-0.1-0.4-0.1-0.8-0.1-1.2
	c0.1-0.4,0.2-0.6,0.4-0.8c0.3-0.2,0.7-0.2,1.3-0.1c0.7,0.2,1.1,0.3,1.3,0.3c0-0.3-0.2-0.6-0.7-0.8c-0.6-0.3-1-0.6-1.1-0.8
	c-0.2-0.4-0.1-0.7,0.2-1c0.2-0.3,0.5-0.4,0.9-0.1c-0.2-0.4-0.3-0.7-0.4-0.9c-0.1-0.3-0.2-0.5-0.3-0.6c-0.2-0.6-0.1-1.1,0.3-1.6
	c-0.5,0.5-1,0.6-1.5,0.4c-0.3-0.1-0.4-0.3-0.4-0.6c-0.1-0.3,0-0.6,0.3-0.7c-0.4-0.1-0.8-0.3-1.1-0.5c-0.1-0.1-0.2-0.2-0.3-0.3
	c-0.2-0.2-0.3-0.4-0.3-0.7c0-0.3,0.1-0.5,0.3-0.6c0.1-0.1,0.4-0.2,0.8-0.3c0.3,0,0.7-0.1,1.2-0.3c0.5-0.1,0.8-0.1,1.2,0.1
	c0-0.3,0.1-0.5,0.4-0.8c-0.6-0.6-0.9-1.2-0.9-1.7c-0.1-0.3,0-0.6,0.2-0.9s0.4-0.5,0.8-0.5c-0.1-0.2-0.1-0.4,0-0.7
	c0.2-0.2,0.4-0.3,0.7-0.3c0.4,0,0.8,0.3,1.2,0.8c-0.1-0.4,0.1-0.6,0.6-0.8c0.2-0.1,0.6-0.1,1.1,0c-0.2-0.1-0.3-0.2-0.4-0.4
	c-0.1-0.2-0.1-0.4,0-0.6s0.2-0.4,0.3-0.5c0.2-0.1,0.4-0.1,0.6-0.1c-0.1-0.5,0.1-0.9,0.7-1.2c0.3-0.1,0.8-0.2,1.5-0.2v-1.5
	c0-0.4,0.1-0.8,0.2-1c0.2-0.5,0.6-0.8,1.2-0.8c-0.3-0.9-0.3-1.4,0.1-1.8l0.9-0.3c0.5-0.2,0.8-0.3,0.8-0.3c0.5,0,0.9,0.3,1.2,0.9
	l0.1,0.1c0.2,0,0.4,0.1,0.6,0.3c0.1,0,0.1,0.1,0.2,0.2c-0.1-0.9,0.1-1.6,0.6-2c0.4-0.4,1.2-0.7,2.5-0.8c-0.2-0.3-0.2-0.6,0.1-1
	c0.2-0.3,0.5-0.5,0.8-0.5c-0.1-0.9,0.1-1.4,0.4-1.6c0.4-0.1,0.8,0,1.2,0.3s0.8,0.7,1.1,1.2c0.1,0,0.2,0,0.3,0c0-0.5,0.3-0.8,0.7-1
	c0.2-0.1,0.4,0,0.6,0.1c0.2,0.1,0.4,0.3,0.4,0.5c0.1,0,0.4,0,0.9,0c0.4,0,0.7,0,0.9,0.1c0.3,0.2,0.4,0.5,0.5,0.9
	c0.2,0.5,0.2,1,0.1,1.5c0.2,0.1,0.3,0.3,0.4,0.4V448l3.6-0.1v4.9l1.2-0.1v-4.8l4.8-0.3v4.9l2.5-0.1v-4.9l6.2-0.4v4.9l3.2-0.3v-4.8
	l5.7-0.3v4.9l4.8-0.3v-4.9l5.5-0.3v4.8l4.1-0.3v-58l-3.3-8v-17.1c1.4-0.6,3.3-1.2,5.8-1.7v7.6c0.3,0,0.7-0.1,0.9-0.1
	c0.1,0,0.2,0,0.3-0.1v-7.6c2.1-0.4,4.4-0.7,6.8-0.9c1-0.1,2-0.2,3.1-0.3v7.6c1.2-0.1,2.5-0.2,3.8-0.3v-7.5c2.9-0.2,6-0.3,9.2-0.3
	c0.8,0,1.5,0,2.2,0.1v7.5c1.8,0,3.4,0,5,0.1v-7.6c3.4,0.1,6.6,0.3,9.5,0.6c0.6,0.1,1.1,0.1,1.7,0.2v7.7c1.1,0.1,2.2,0.3,3.3,0.5
	v-7.6c0.5,0,1,0.1,1.4,0.2c1.4,0.2,2.6,0.5,3.6,0.8l-2-7.9v-19.2c0.8-0.3,1.9-0.7,3.4-1c1.7-0.3,3.6-0.6,5.6-0.7v7.5
	c1.1-0.1,2.2-0.1,3.3-0.2v-7.5c1.3,0,2.7-0.1,4.1-0.1c2.5,0,4.8,0.1,6.9,0.3v7.5c0.9,0.1,1.8,0.1,2.6,0.3v-7.6
	c1.3,0.1,2.4,0.3,3.5,0.5c0.6,0.1,1.1,0.2,1.6,0.4c0.8,0.2,1.4,0.4,1.9,0.6v19.5l-2.9,6.1V405l3.4,0.2v4.6l1.7,0.1v-4.7l9.1,0.5v4.6
	l3.4,0.2v-4.6l6.9,0.4v4.5l2.8,0.1v-4.4l6.8,0.3v4.5h2.4v-4.4l4.4,0.1v11c0.4-0.2,0.7-0.3,1-0.4l-0.1-0.1c-0.3-0.3-0.5-0.6-0.6-0.9
	c-0.1-0.4-0.1-0.8,0.2-1.1c0.2-0.4,0.5-0.6,0.9-0.7c-0.6-0.5-0.7-1.1-0.4-1.8c0.1-0.2,0.3-0.4,0.5-0.6c-0.2-0.2-0.4-0.4-0.6-0.5
	c-0.3-0.3-0.4-0.5-0.4-0.7c0.1-0.3,0.4-0.4,0.9-0.3c0.4,0.1,0.7,0.1,0.9-0.1c-0.2-0.1-0.3-0.4-0.3-0.7c0-0.3,0.2-0.6,0.4-0.7
	c-0.3-0.2-0.4-0.4-0.4-0.8s0.1-0.6,0.4-0.8c-0.3-0.1-0.4-0.3-0.4-0.6c0-0.3,0.1-0.6,0.4-0.8c0.6-0.2,1.1-0.1,1.6,0.4
	c-0.1-0.2,0-0.4,0.1-0.6c0.2-0.2,0.4-0.3,0.6-0.3h0.1c0.2-0.2,0.5-0.3,0.8-0.3s0.5,0,0.7,0.1c0.1-0.1,0.2-0.1,0.3-0.1
	c0.2-0.1,0.5-0.1,0.7,0.1c0.3,0.2,0.4,0.4,0.3,0.7l1.4,0.6c-0.1-0.3-0.2-0.5-0.1-0.6c0.1-0.3,0.2-0.5,0.5-0.4c0.1,0,0.2,0.1,0.3,0.4
	l0.4,0.7c0.1-0.1,0.3-0.2,0.5-0.3c0.1,0,0.2,0,0.4,0v-0.1c0.2-0.2,0.4-0.3,0.6-0.3s0.4,0,0.5,0.2c0.1,0.1,0.2,0.4,0.1,0.8
	c0.2,0.3,0.3,0.6,0.3,1.1c0.2-0.1,0.3-0.3,0.5-0.5c0.3-0.4,0.6-0.5,0.8-0.5c0.3,0.1,0.4,0.4,0.4,0.9c0,0.7-0.1,1.4-0.3,2
	c0.2,0,0.3,0,0.4,0.1c0.4,0.2,0.7,0.5,0.9,0.9c0,0.1,0.1,0.3,0.1,0.4c0.4-0.4,0.8-0.5,1.2-0.2c0,0,0.1-0.1,0.2-0.1
	c0.1-0.1,0.2-0.2,0.3-0.3c0.2-0.2,0.4-0.3,0.5-0.3c0.3,0.1,0.4,0.3,0.4,0.7c0,0.4,0.1,0.7,0.1,1.1c0.3-0.2,0.6-0.3,0.9-0.3
	c0.7,0,1.2,0.3,1.4,1c0.2-0.1,0.5-0.1,0.8-0.2l0.2-3.7c0.3-5.5,0.5-8.4,0.6-8.8c0.1-0.3,0.1-0.4,0.1-0.5s-0.1-0.4-0.2-0.9
	s-0.2-0.9-0.2-1.3c0.2-1.2,0.4-2.7,0.8-4.6c0-0.1,0.4-1.6,1.2-4.4l-0.1-0.1c-0.1-0.2-0.1-0.5-0.1-0.9c0-0.1,0-0.4,0.1-1
	s0.1-0.9,0.1-0.9c0-0.4-0.1-1-0.3-1.7s-0.3-1.2-0.3-1.6c0-0.2,0-0.5,0.1-0.9c0-0.1,0.1-0.2,0.1-0.3c0.1-0.2,0.2-0.3,0.3-0.5
	c0-0.1,0-0.2,0-0.2c0-0.1,0-0.2,0-0.3c0-0.8-0.5-1.5-1.4-2.3c-1.2-0.7-2-1.3-2.5-1.6c-0.3-0.2-0.9-0.8-1.8-1.9
	c-0.3-0.5-0.7-1-1.2-1.5c-1.1-1.1-2.5-2.1-4.4-3.1c-0.8-0.4-1.6-0.8-2.3-1.2c-1.2-0.5-2.3-0.9-3.3-1.3c0,0,0,0.1-0.1,0.1l-0.9-0.4
	c-2.7-0.4-4.9-1.3-6.6-2.9c-0.5-0.4-0.8-0.6-1-0.6c-0.2-0.2-0.5-0.3-0.8-0.3c0,0-0.4,0.1-1,0.5c-0.7,0.3-1.1,0.5-1.5,0.6
	s-1.1,0.2-2.1,0.2c-1.1,0-1.8,0-2.3,0l0,0c0,0.1-0.1,0.1-0.1,0.2c-0.1,0.1-0.2,0.2-0.3,0.3c-0.2,0.2-0.4,0.3-0.6,0.3
	c-0.3,0.1-0.5,0-0.6-0.1c0,0.3-0.1,0.6-0.3,0.8c-0.2,0.2-0.5,0.2-0.8,0.2c-0.2,0-0.4-0.1-0.6-0.1c-0.2-0.1-0.4-0.3-0.4-0.5
	c0-0.1-0.1-0.2-0.1-0.4c-0.1-0.1-0.3-0.1-0.5-0.2c0.1,0.1,0.1,0.1,0.1,0.3c0.1,0.1,0.1,0.1,0.1,0.2s-0.1,0.3-0.1,0.4
	c-0.1,0.1-0.2,0.1-0.3,0.1c-0.1,0-0.2-0.1-0.3-0.3c-0.4-0.1-0.7-0.1-1-0.3c-0.2-0.1-0.5-0.2-0.9-0.2c-0.1,0.1-0.3,0.1-0.5,0.3
	c-0.5,0.2-1.1,0.2-1.9,0.3c-0.1,0-0.4,0-1-0.1c-0.5-0.1-0.8-0.1-0.9-0.1c-0.2,0-0.6,0.1-1.2,0.3c-0.6,0.2-0.9,0.2-1,0.3
	c-0.7,0-1.3-0.1-1.9-0.3c-0.2,0.1-0.3,0.1-0.4,0.1c-0.2,0.1-0.3,0.1-0.4,0.1c-0.2,0-0.3,0-0.5,0c-0.1-0.1-0.2-0.2-0.3-0.4
	c-0.1-0.2,0-0.5,0.2-0.6c0.1-0.1,0.1-0.1,0.3-0.2c0-0.1-0.1-0.1-0.1-0.2c0.3-0.3,0.6-0.5,0.8-0.6c0.1,0,0.2-0.1,0.2-0.3l-0.1-0.2
	c-0.1-0.1-0.1-0.3-0.1-0.6c0-1.4,0.9-2.6,2.8-3.4c0.4-0.2,0.9-0.4,1.5-0.6c0-0.1,0-0.2,0-0.3c0-0.1,0.1-0.2,0.3-0.3
	c0.1,0,0.3,0,0.4,0s0.2,0.1,0.3,0.1c0,0.1,0.1,0.1,0.1,0.2c0.1,0,0.1,0,0.3-0.1c0.1-0.3,0.2-0.4,0.4-0.5c0.1,0,0.2,0,0.3,0
	c0.1,0,0.2,0.1,0.3,0.2c0.1,0.2,0.1,0.5-0.1,0.8c0,0.2-0.1,0.3-0.2,0.5c0.3-0.1,0.7-0.5,1.1-1.3c0.5-0.9,0.8-1.3,1-1.4
	c0.8-0.3,1.5-0.8,2.1-1.6c0.5-0.9,0.9-1.5,1.1-1.8c-0.1-0.1-0.3-0.1-0.7-0.1c-0.2,0-0.3,0-0.4-0.1c-0.2,0-0.4,0.1-0.6,0.1
	c-0.3,0-0.4-0.1-0.5-0.3c0-0.1,0-0.3,0.2-0.4c-0.1-0.1-0.1-0.1-0.1-0.2c-0.1,0-0.3-0.1-0.4-0.1c-0.2-0.2-0.3-0.3-0.2-0.5
	c0-0.1,0.2-0.2,0.5-0.1l0.8,0.2c0.1,0,0.2,0,0.4,0c0.2,0,0.4-0.1,0.8-0.4s0.5-0.5,0.5-0.7c-0.2,0-0.4,0-0.4-0.1
	c-0.2-0.1-0.3-0.3-0.3-0.5l-0.1-0.1c-0.1,0-0.2-0.1-0.3-0.1c-0.1-0.1-0.1-0.3,0-0.4c0-0.1,0.1-0.1,0.3-0.1c0.2,0,0.3,0,0.5,0
	c0.1,0,0.1-0.1,0.1-0.1c0.2-0.1,0.3-0.3,0.4-0.5c0-0.1,0-0.1-0.1-0.1c-0.1-0.1-0.1-0.1-0.1-0.1c0-0.1-0.1-0.1-0.1-0.2s0-0.1,0.1-0.2
	c0-0.1,0.1-0.1,0.1-0.1c0.1,0,0.2,0,0.4,0c0-0.2,0.1-0.3,0.3-0.3c0.1,0,0.3,0,0.4,0.1l0.1,0.1h0.2c-0.1-0.1-0.2-0.2-0.3-0.3
	c-0.2-0.2-0.3-0.4-0.3-0.6c0-0.1,0.1-0.2,0.3-0.2c0.1,0,0.2,0,0.3,0.1l0.1,0.1c0.2,0,0.4-0.1,0.5-0.2c0-0.1,0-0.2-0.1-0.3
	c-0.1-0.1-0.1-0.3-0.1-0.4c0-0.2,0.1-0.3,0.3-0.4l0.1-0.1c0-0.1-0.1-0.1-0.1-0.3c-0.1-0.2-0.1-0.5-0.1-0.8c0-1.4,0.5-2.7,1.6-4
	c1-1.2,2.1-1.8,3.2-1.8c0.3,0,0.6,0.1,0.8,0.3c0.1,0.1,0.2,0.3,0.4,0.6c0.3,0.6,0.8,0.9,1.5,0.9c0.3,0,0.6-0.1,0.9-0.4
	c-0.1,0-0.1-0.1-0.2-0.1c-0.2-0.1-0.2-0.3-0.2-0.6s0.2-0.4,0.5-0.5c0,0,0.1,0,0.1-0.1c0,0,0-0.1,0-0.2s0-0.2,0-0.4
	c0-0.1,0.1-0.2,0.2-0.3l0.1-0.1l0.1-0.1c0,0,0-0.1,0-0.3c0-0.2,0-0.3,0-0.5c-0.2-0.1-0.4-0.2-0.5-0.4c0-0.1,0-0.2,0-0.3
	c0-0.2,0-0.3,0.1-0.4s0.2-0.2,0.4-0.2c0.3,0,0.8,0,1.4,0.1v0.1c0.2-0.2,0.4-0.4,0.7-0.6c0.3-0.2,0.7-0.3,1.1-0.3
	c0.3,0,0.7,0,1.2,0.1c0.1,0,0.2,0,0.3,0.1c0.4-0.6,0.8-1,1.3-1.4c0-0.1,0.1-0.1,0.1-0.1c0.1,0,0.1,0,0.3,0c0-0.1,0-0.1,0-0.2
	s0.1-0.2,0.2-0.2c0.1-0.1,0.2-0.1,0.3,0l0.1,0.1c0.1,0,0.1,0,0.1,0c0,0.2,0.1,0.3,0.2,0.3c0-0.1,0.1-0.2,0.1-0.3
	c0.1-0.3,0.3-0.4,0.4-0.4s0.2,0.1,0.2,0.2c0.1,0.1,0.1,0.3,0,0.4c0,0,0,0,0,0.1l0,0c0,0.1,0,0.2,0,0.2l-0.1,0.1v0.1v0.1h-0.1l0,0
	c0,0-0.1,0-0.1,0.1c0,0.2,0,0.4,0.1,0.6c0.1,0,0.1-0.1,0.2-0.1c0.1-0.1,0.2-0.3,0.3-0.6c0-0.3,0-0.4,0.1-0.5
	c0.1-0.2,0.3-0.3,0.5-0.3c0.2,0.1,0.3,0.2,0.3,0.5c0.1-0.1,0.2-0.2,0.3-0.4c0.1-0.1,0.3-0.3,0.6-0.4c0.4-0.1,0.9-0.2,1.6-0.3
	c0.9-0.1,1.5-0.2,1.7-0.2s0.5-0.1,0.9-0.1s0.6,0,0.8,0.1c0.1,0.1,0.2,0.1,0.3,0.1l0,0h0.1c0.1,0,0.2-0.1,0.4-0.3
	c0.3-0.2,0.5-0.3,0.7-0.1c0.1,0.1,0.1,0.2,0.3,0.3c0.1,0.2,0.2,0.4,0.2,0.4c0.1,0.2,0.2,0.3,0.4,0.4c0.2,0,0.3,0,0.5,0
	c0.1,0,0.2-0.1,0.3-0.2c0.1-0.1,0.2-0.1,0.3-0.1c0.1-0.1,0.3-0.1,0.4-0.1h0.1c0.1,0,0.3,0.1,0.6,0.1c0-0.2,0.1-0.3,0.2-0.5
	c0.1-0.1,0.3-0.2,0.5-0.1c0.1,0,0.2,0,0.4,0.1c0.1,0,0.1,0,0.1,0l0,0c0.1,0,0.3,0,0.4-0.1l0.1-0.1c0.1,0,0.1,0,0.2,0l0.1-0.1
	c0.2-0.2,0.3-0.3,0.5-0.3c0-0.1,0-0.3,0.1-0.4s0.2-0.2,0.3-0.2c0.1,0,0.4,0.1,0.6,0.2c0.1,0.1,0.3,0.2,0.4,0.2
	c0.1-0.1,0.1-0.2,0.2-0.3c-0.1-0.2-0.1-0.4-0.1-0.5c0-0.3,0.1-0.6,0.3-0.8c0.1-0.1,0.3-0.2,0.5-0.3c0.2,0,0.3-0.1,0.4-0.1l0.1-0.1
	c0.1,0,0.2-0.1,0.4-0.3c0.2-0.1,0.3-0.1,0.4-0.1s0.2,0.1,0.4,0.1c0,0,0.1,0,0.4-0.1c0.1,0,0.3,0,0.4,0.1s0.3,0.2,0.4,0.3
	c0.1-0.1,0.2-0.2,0.3-0.3c0.1,0,0.2,0,0.3,0c0.3,0.1,0.4,0.3,0.5,0.7c0.1-0.2,0.2-0.4,0.4-0.6c0.2-0.1,0.4-0.1,0.5-0.1
	s0.5,0.1,0.9,0.3c0.3,0.1,0.5,0.1,0.7,0.1c0.1,0,0.2-0.1,0.4-0.3c0.2-0.1,0.3-0.2,0.5-0.2s0.3,0,0.4,0.1s0.2,0.3,0.3,0.5
	c0.2-0.3,0.5-0.3,1-0.2c0.1,0.1,0.3,0.2,0.5,0.3v-0.1c0-0.1-0.1-0.1-0.1-0.2s0-0.1,0-0.3c0-0.1,0-0.1,0-0.3h0.1
	c0.1-0.1,0.2-0.2,0.5-0.3c0.7-0.2,1.5-0.2,2.3,0c0.2,0.1,0.5,0.2,0.8,0.3c0.6,0.3,1,0.5,1.3,0.8c0.2,0.1,0.3,0.2,0.4,0.1
	c0,0,0.1-0.1,0.3-0.2c0.2-0.1,0.3-0.2,0.5-0.3c0.2,0,0.4,0.1,0.6,0.2c0.1,0,0.1,0.1,0.2,0.1s0.2,0.1,0.3,0.1c0,0,0.1,0,0.3-0.1
	c0.2-0.1,0.5-0.1,0.9-0.1c1.1-0.1,2.1,0,3.2,0.3c0.4,0.1,0.7,0.1,0.9,0.1c0.1-0.1,0.3-0.2,0.5-0.4c0.2-0.1,0.4-0.2,0.6-0.3
	c0.2,0,0.4,0,0.7,0c0.5,0.1,0.8,0.2,1,0.4c0.2,0.2,0.3,0.4,0.3,0.6c0.1,0.3,0.1,0.5,0,0.6c0.2,0.1,0.4,0.1,0.7-0.1
	c0.1,0,0.2-0.1,0.3-0.3c0.1-0.1,0.2-0.2,0.3-0.2c0.3-0.1,0.5-0.1,0.8,0.1c0.1,0,0.2,0.1,0.3,0.1c0,0,0.1,0,0.3,0
	c0.3-0.1,0.6-0.1,1,0c0.2,0.1,0.5,0.1,0.9,0.3c0.8,0.3,1.4,0.5,1.7,0.6c0.4,0.2,0.7,0.4,0.9,0.7l0.1,0.3c0.1,0.1,0.1,0.2,0.2,0.2
	c0,0,0.1,0.1,0.2,0.1h0.1c0.3,0,0.6,0,0.9,0c0.4-0.2,0.8-0.3,1.1-0.4c0.5-0.1,0.9,0.1,1.3,0.4c0.2,0.2,0.4,0.4,0.4,0.6
	c0.1,0.2,0.1,0.5,0.1,0.7c0.1,0.1,0.1,0.1,0.2,0.2c0.3,0.1,0.5,0.2,0.8,0.4l0.7,0.6c0.3,0.2,0.5,0.3,0.6,0.4s0.3,0.1,0.5,0
	c0.3,0,0.5,0,0.5,0c0.3,0,0.5,0.2,0.6,0.5c0.5-0.4,1-0.7,1.5-0.8c0.6-0.1,1.1,0.1,1.5,0.5c0.3,0.3,0.5,0.8,0.6,1.4
	c0.1,0.4,0.2,1,0.2,1.6c0,0.3,0,0.4,0,0.5s0.1,0.2,0.1,0.4c0.1,0.2,0.1,0.3,0.2,0.5c0.1,0.1,0.3,0.3,0.7,0.6
	c0.3,0.2,0.5,0.5,0.6,0.7s0.1,0.4,0.1,0.6s-0.1,0.3-0.1,0.5h0.1c0.2,0.1,0.4,0.2,0.7,0.4c0.4,0.2,1,0.4,1.9,0.5c0.1,0,0.3,0,0.4,0.1
	c0.5,0,0.8,0.1,1.1,0.3c0.3,0.2,0.5,0.4,0.6,0.4s0.3,0,0.6-0.1c0.3-0.1,0.5-0.1,0.6-0.1c0.3,0,0.7,0.1,1.2,0.1
	c0.4,0.1,0.9,0.1,1.4,0.1c3.3,3,5.4,4.8,6.4,5.5c0.5,0.4,1.3,0.7,2.3,1.1c0.3,0.1,1.1,0.3,2.4,0.6c1.1,0.4,1.6,0.8,1.6,1.3
	s0,0.8,0,0.9c-0.1,0.3-0.3,0.4-0.6,0.3c0.1,0.3,0.2,0.5,0.5,0.6c0.1,0.1,0.3,0.1,0.4,0.1c0,0.5-0.1,0.9-0.3,1.3
	c-0.2,0.3-0.4,0.5-0.4,0.6c0,0.3,0.2,0.5,0.6,0.8c0.2,0.1,0.6,0.3,1.3,0.5c1.3,0.5,1.9,1.1,1.9,1.9c0,0.4,0,0.6-0.1,0.8
	c-0.1,0.1-0.1,0.3-0.1,0.4c0,0.2,0.1,0.4,0.4,0.5s0.4,0.3,0.4,0.5s-0.1,0.3-0.3,0.3c-0.2,0-0.4,0-0.5,0c-0.1,0.1-0.1,0.2-0.3,0.3
	c-0.2,0.2-0.4,0.3-0.6,0.3c0,0.2,0,0.4,0.1,0.8c0.2,0.3,0.2,0.5,0.3,0.5c0,0.5-0.3,0.8-0.9,0.9s-0.9,0.3-0.9,0.6v0.3l0.6-0.1
	c0.3,0,0.5,0,0.6,0.1c0.2,0,0.3,0.1,0.3,0.3c0.1,0.1,0.1,0.2,0,0.3c0,0.1-0.1,0.2-0.1,0.3c-0.1,0.1-0.2,0.2-0.4,0.3
	c-0.3,0.1-0.6,0.1-0.9,0c-0.1,0-0.2,0-0.2,0c-0.1,0-0.3,0-0.4,0s-0.2,0-0.4,0c-0.1,0-0.2-0.1-0.3-0.1v-0.1c-0.4-0.2-0.6-0.3-0.6-0.3
	c-0.3,0-0.7,0.1-1.2,0.4c-0.5,0.2-1.1,0.3-1.8,0.3c-0.4,0-0.6,0-0.6-0.1c-0.2,0-0.4-0.1-0.6-0.1l0,0c0.1,0,0.2,0.1,0.4,0.1
	c0.2,0,0.3,0.1,0.4,0.1c0.2,0.1,0.3,0.3,0.3,0.6c0,0.2-0.1,0.4-0.2,0.6c-0.1,0.1-0.3,0.1-0.5,0.1c-0.3,0-0.6,0-0.9,0
	c-0.2,0-0.4,0-0.5-0.1c0,0-0.1-0.1-0.3-0.4l-0.1-0.1c-0.2-0.1-0.4-0.1-0.6-0.3l-0.1-0.1h-0.1l-0.4,0.3c-0.1,0-0.2,0.1-0.4,0.1
	c-0.2,0-0.3-0.1-0.4-0.1s-0.3,0-0.4,0s-0.2-0.1-0.3-0.2c0-0.1,0-0.2,0-0.3c0-0.1,0-0.2,0.1-0.3c0.1-0.1,0.2-0.2,0.4-0.3
	c0.1-0.1,0.3-0.1,0.4-0.1h0.1c0-0.1,0.1-0.2,0.1-0.4c-0.1,0-0.1,0-0.1,0c-0.1,0-0.2,0-0.3,0.1c-0.1,0-0.1,0-0.2,0
	c-0.2,0-0.3-0.1-0.4-0.3c-0.1-0.1-0.2-0.2-0.2-0.4c0-0.1,0.1-0.3,0.1-0.4c0.1,0,0.2-0.1,0.3-0.1l0.3-0.1c-0.9-0.5-2.3-1-4-1.5
	c-1.6-0.4-2.8-0.6-3.5-0.6c-0.6,0-1,0-1.2,0s-0.4,0.1-0.5,0.1c-0.4,0.5-1,1.3-1.9,2.1c-0.1,0-0.5,0.1-1,0.4c-0.5,0.2-0.9,0.3-1,0.3
	h-0.2v0.5l0,0h0.1c0.1,0,0.3-0.1,0.6-0.3c0.3-0.2,0.5-0.3,0.5-0.3c0.1,0,0.2,0.1,0.5,0.4c0.3,0.2,0.5,0.3,0.8,0.3
	c0.1-0.5,0.4-0.8,0.8-0.8c0.1,0,0.2,0.1,0.2,0.1c0,0.1,0,0.3,0,0.6c0,0.1,0,0.2,0,0.3c0,0-0.1,0-0.2,0c0,0.2,0,0.4,0.1,0.5
	c0.3-0.2,0.6-0.3,0.8-0.4c0.1,0,0.2,0,0.3,0c0.1,0,0.2,0.1,0.3,0.3c0.1,0.2,0.1,0.3,0,0.5c-0.1,0.1-0.2,0.3-0.4,0.4
	c-0.2,0.1-0.4,0.1-0.5,0.2s-0.1,0.1-0.3,0.1c-0.5,0.3-0.9,0.7-1,1c-0.1,0.5-0.3,0.8-0.4,1c0,0.1,0,0.1,0,0.2c0,0,0,0.1,0.1,0.1
	c0,0,0.7-0.6,2-1.8h0.2c0,0,0,0,0,0.1c-0.6,0.5-1.2,1.1-1.9,1.9c-0.9,1-1.4,1.6-1.6,2c0,0.1,0.5,0.1,1.3,0v0.3h-0.8
	c-0.3,0-0.7,0.1-1,0.2c-0.4,0.2-0.7,0.4-1,0.7c-0.2,0.2-0.4,0.4-0.6,0.8l0.1,0.1v0.1c0,0,0.1,0,0.2,0c1.8,0,3.4-0.2,4.5-0.6
	c0.6-0.2,1.2-0.4,1.6-0.5h0.1v0.1c0,0-0.1,0.1-0.4,0.2c-0.2,0.2-1.1,0.5-2.6,1c1.4-0.1,2.2-0.1,2.2-0.1c0.3,0.1,0.7,0.2,1.2,0.4v0.1
	c-0.1,0-0.2,0-0.3,0c-1.6-0.1-2.9,0.2-3.9,0.9c-0.5,0.3-1.1,0.7-1.6,1.1c-0.3,0.1-0.7,0.2-1.2,0.3c-0.5,0.1-0.9,0.2-1.4,0.2
	c-1,0.1-2.1,0.3-3.1,0.6c-0.3,0.1-0.7,0.2-1.2,0.3h-0.4c-0.4,0-0.7,0.1-0.9,0.2c-0.3,0.1-0.4,0.2-0.4,0.4c0,0.2,0.3,0.4,0.8,0.6
	c0.2,0.2,0.5,0.4,0.8,0.5c0.1,0,0.7,0.1,1.7,0.2c0.1,0,0.6,0.1,1.4,0.5c0.8,0.3,1.3,0.4,1.4,0.4c2.9,0.1,4.7,0.1,5.4,0.1v0.3h-5.8
	c-0.3-0.1-0.9-0.3-1.9-0.4c-1.1-0.1-1.8-0.3-2.1-0.4c-0.6-0.1-1.3-0.5-2.1-1c-0.2-0.1-0.3-0.2-0.5-0.3c-0.8-0.2-1.2-0.3-1.3-0.3
	c0,0-0.2,0-0.5,0.1s-0.6,0.1-0.9,0.2c-0.5,0.1-0.8,0.2-1,0.2s-0.5,0.1-0.9,0.4c-0.2,0.1-0.4,0.3-0.6,0.4c-0.3,0-0.9,0.2-1.6,0.5
	c-0.9,0.4-1.6,0.6-1.9,0.8c-0.6,0.2-1.5,0.2-2.8,0.3c-0.2,0-0.4,0.1-0.6,0.3c-0.2,0.1-0.5,0.3-0.8,0.6c-2.3,1.8-4,3.3-5.4,4.4
	c-0.1,0.1-0.2,0.2-0.3,0.3c-0.8,0.6-1.9,1.3-3.3,1.9c-1.6,0.7-3,1.7-4.1,3.1s-2.1,4.5-3.1,9.3c-0.3,1.6-0.6,2.6-0.8,3.3
	c-0.1,0.8-0.2,1.6-0.2,2.4c-0.1,1.7-0.2,4-0.4,6.6c-0.2,2.4-0.3,4-0.3,4.9c0,0.2,0,0.3,0,0.3v0.1l1.3,2c-0.1,0-0.1,0.1-0.1,0.2
	c-0.1,0.4-0.4,1.1-0.7,1.9c-0.6,1.5-0.9,3.5-0.9,5.9c0,1,0.1,1.9,0.1,2.7c0.3,0.1,0.5,0.2,0.8,0.3c0.1,0.1,0.2,0.2,0.3,0.3
	c0,0.2,0.1,0.3,0.1,0.3c0.1-0.1,0.2-0.2,0.3-0.3c0.1,0,0.2,0.1,0.3,0.3c0,0,0,0.1,0,0.3c0,0.2,0,0.4,0,0.4c0,0.1,0.1,0.1,0.1,0.1
	c0-0.1,0.1-0.2,0.1-0.3V435h-0.1v-0.1H330v-0.1v-0.1l0,0h0.1c0-0.1,0-0.2,0-0.2c0.1-0.1,0.1-0.1,0.1-0.1c0.1,0,0.2,0.1,0.2,0.4
	c0,0.1,0,0.1,0,0.2c0.1,0,0.1,0,0.1-0.1h0.1h0.1h0.1c0.1,0,0.1,0.1,0.1,0.1v0.1h0.1c0,0,0.1,0,0.1,0.1c0.2,0.3,0.4,0.7,0.5,1.1
	c0.1,0,0.1,0,0.2,0c0.3,0,0.6,0.1,0.8,0.2c0.2,0,0.4,0.1,0.5,0.3c0.1,0.1,0.3,0.3,0.4,0.5c0.4,0,0.6,0.1,0.9,0.1
	c0.1,0.1,0.2,0.1,0.2,0.1c0,0.1,0,0.1,0,0.3c0,0.1,0,0.1-0.1,0.2s-0.2,0.2-0.3,0.3c0,0.1,0,0.2-0.1,0.3v0.2c0,0.1,0,0.1,0,0.1
	c0,0.1,0,0.1,0.1,0.2v0.1c0,0.1,0,0.2,0,0.3l-0.1,0.1h0.1c0.1,0.2,0.2,0.3,0.1,0.5c0,0.2-0.1,0.3-0.3,0.3c0,0,0,0.1-0.1,0.1
	c0.1,0.2,0.3,0.3,0.5,0.4c0.4,0.1,0.8,0,1-0.4c0.1-0.2,0.3-0.3,0.4-0.3c0.1-0.1,0.3-0.2,0.5-0.1c0.7,0.2,1.2,0.7,1.6,1.7
	s0.5,1.9,0.3,2.8c-0.1,0.2-0.1,0.4-0.2,0.5s-0.1,0.1-0.1,0.2c0,0,0.1,0,0.1,0.1c0.1,0.1,0.1,0.2,0,0.3c0,0.1,0,0.1-0.1,0.1
	c0,0.1-0.1,0.1-0.1,0.1c0.1,0.1,0.2,0.2,0.3,0.2h0.1c0.1,0,0.1,0,0.1,0c0.1,0,0.1,0.1,0.1,0.2s-0.1,0.2-0.3,0.4
	c-0.1,0-0.1,0.1-0.2,0.1l0.1,0.1l0.1-0.1c0.1,0,0.1,0,0.2,0c0.1,0.1,0.1,0.1,0.1,0.3c0.1,0,0.1,0,0.2,0l0.1,0.1v0.1
	c0,0.1,0,0.1,0,0.1c-0.1,0-0.1,0-0.1,0l-0.1,0.1c0,0.1,0.1,0.3,0.1,0.4c0,0,0.1,0,0.1,0.1c0.1,0,0.2,0,0.3,0c0.1,0,0.1,0.1,0.1,0.1
	c0,0.1,0,0.2-0.1,0.3c-0.1,0-0.1,0.1-0.2,0.1h0.2c-0.1,0.1-0.2,0.2-0.3,0.3c-0.1,0-0.2,0-0.3,0c0,0.1,0.1,0.3,0.2,0.5
	c0.2,0.2,0.4,0.4,0.5,0.4s0.1,0.1,0.2,0.1h0.5c0.2,0,0.3,0.1,0.3,0.2s-0.1,0.2-0.3,0.3c-0.1,0-0.1,0.1-0.2,0.1s-0.1,0-0.1,0.1
	c0.1,0.1,0.1,0.3,0,0.4l0,0c0.1,0.1,0.1,0.2,0.2,0.3c0.3,0.5,0.4,1.1,0.2,1.6c-0.2,0.5-0.2,1-0.1,1.5c0.3,0.6,0.6,1.2,0.9,1.8
	c0.1,0.3,0.3,0.5,0.5,0.8c0.1,0.2,0.3,0.3,0.4,0.5c-0.1,0.2-0.1,0.4-0.1,0.6c0.1,0.1,0.1,0.1,0.2,0.2c0.8,0.6,1.1,1.1,1.1,1.4
	c0,0.2-0.1,0.4-0.2,0.6s-0.2,0.4-0.2,0.5c0,0.7,0.5,1.9,1.6,3.4s1.6,2.6,1.6,3.3c0,0.3-0.1,1-0.4,2.1c0,0.6,0.3,1.9,0.8,3.9h2.5
	c0.5-0.3,0.8-0.4,1.1-0.4c0.7,0,1.5,1.1,2.3,3.3c0,0.4-0.1,0.8-0.4,1.2c-0.3,0.4-0.4,0.7-0.4,0.9c0,0.4,0.1,0.7,0.4,0.9
	c0.3,0.2,0.6,0.2,0.9,0.2c0,0.2,0,0.4,0,0.6c0.2,1,0.5,1.8,1.1,2.4c0.3,0.3,0.9,1,1.9,2c0.6,0.3,1.3,0.7,2.1,1.1
	c0.6,0.4,1.3,0.7,2,1.1c0.4,0.2,0.7,0.4,1,0.5c0.2,1.3,0.5,2.9,1,5c0.7,0.6,1.4,1.5,2,2.7c0.3,0.6,1.1,0.9,2.4,0.9
	c1,0,1.8,0.3,2.2,1c0.7,1,1,1.5,1,1.5c0.4,0.3,1.2,0.6,2.3,0.9c1.1,0.2,1.9,0.5,2.3,0.7c0.1,0,0.3,0,0.4-0.1c0-0.1-0.1-0.3-0.4-0.4
	s-0.4-0.3-0.4-0.4c0-0.4,0.5-0.5,1.5-0.5c0.5,0,0.8,0.1,1,0.3c0.2,0.1,0.3,0.4,0.4,0.7c0.2,0,1-0.1,2.3-0.2c1.1,0,1.6,0.4,1.3,1v0.1
	c0.5-0.2,0.9-0.3,1.1-0.3c0.6,0,1,0.1,1.4,0.4c0.4,0.2,0.6,0.5,0.6,0.8h1.1c0.3-0.2,0.5-0.3,0.6-0.3s0.1-0.1,0.1-0.2
	c0,0-0.2-0.2-0.5-0.4c-0.4-0.3-0.6-0.4-0.6-0.5c0-0.3,0.8-0.5,2.3-0.8c0.4-0.1,0.7-0.1,1-0.1v-19.8l-1.2-1.2l1.2-1.2v-5l-2-2v-2.1
	h2.4l0.5-2.6c-0.2-0.1-0.3-0.1-0.5-0.2c-0.1-0.1-0.2-0.2-0.3-0.2c-0.3-0.4-0.5-0.8-0.5-1.3s0.2-0.9,0.5-1.3c0.4-0.4,0.8-0.6,1.3-0.6
	h0.1c0.5,0,0.8,0.2,1.1,0.6c0.4,0.3,0.5,0.8,0.5,1.3s-0.2,0.9-0.5,1.3c-0.1,0.1-0.1,0.1-0.3,0.2c-0.1,0.1-0.2,0.1-0.4,0.2l0.4,2.6
	h23l6.5-107.2c-1-2.6-2.6-4.3-4.6-5.3V352h1.9v-7.4c0-0.1,0.1-0.2,0.2-0.3c0.1-0.1,0.2-0.1,0.3-0.1h10.7v-4l4-4v-9.8l-2.5-2.5l2.6-3
	v-4.4c0-0.1,0-0.2,0.1-0.3c0.1-0.1,0.2-0.2,0.3-0.2h4.5v-5.5l-1.6-1.6l1.1-1.1c0-0.1,0-0.1,0-0.1v-13.2c0-0.1,0-0.1,0-0.1l-1.1-1
	l1.6-1.6c0.1-1.6,0.5-3,1-4.3c0.1-0.3,0.2-0.6,0.3-0.9c0.1-0.2,0.1-0.3,0.2-0.4c1.5-2.9,4.1-4.9,7.9-6.2v-3.6c0.1-1.2,0.6-2,1.6-2.2
	c1,0.2,1.6,1,1.7,2.2v3.6c3.7,1.3,6.3,3.3,7.8,6.2c0.1,0.1,0.2,0.3,0.3,0.4c0.1,0.3,0.3,0.5,0.4,0.9c0.5,1.3,0.8,2.7,0.9,4.3
	l1.6,1.6l-0.9,1v0.1v13.2v0.1l0.9,1.1l-1.6,1.6v5.5h4.5c0.1,0,0.2,0.1,0.3,0.2c0.1,0.1,0.1,0.2,0.1,0.3v4.4l2.5,3l-2.4,2.5v9.8l4,4
	v4H478c0.1,0,0.2,0,0.3,0.1c0.1,0.1,0.1,0.2,0.1,0.3v7.4h1.9v3.1c-2,0.9-3.5,2.7-4.5,5.3l6.4,107.2h23l0.4-2.6
	c-0.1-0.1-0.3-0.1-0.4-0.2s-0.1-0.1-0.3-0.2c-0.3-0.4-0.5-0.8-0.5-1.3s0.2-0.9,0.5-1.3c0.3-0.3,0.7-0.5,1.1-0.6h0.1
	c0.5,0,0.9,0.2,1.3,0.6c0.3,0.3,0.5,0.8,0.5,1.3s-0.2,0.9-0.5,1.3c-0.1,0-0.1,0.1-0.2,0.2c-0.2,0.1-0.3,0.1-0.5,0.2l0.5,2.6h2.4v2.1
	l-2,2v5l1.2,1.2l-1.2,1.2v27.6c0.3,0.1,0.7,0.3,1.1,0.4c1.2,0.3,2.5,0.5,3.8,0.5l0,0c3.7,0,6.8-1.3,9.4-3.9c0.4-0.4,0.7-0.8,1-1.2
	c0.3,0.4,0.6,0.8,1,1.2c2.6,2.6,5.7,3.9,9.4,3.9c0.8,0,1.6,0,2.3-0.1c0-0.4-0.1-0.9-0.1-1.3c0-1.2,0-2.5-0.1-4
	c-0.1-3.8-0.3-8.8-0.7-14.9c0,0,0-0.1,0-0.2l-0.2-2.8c-0.1-1.4-0.1-2.8-0.2-4.1c0-0.6-0.1-1.2-0.1-1.8c-0.8-15-1.1-29.2-1.1-42.5
	c0-4.8,0-9.2,0.1-13.3c0.1-3.5,0.3-6.5,0.5-9.1c-1,1.8-2.3,3.5-3.8,5.1l-3-1.1l1.4,2.7c-1.2,1.1-2.4,2.1-3.7,3.1
	c-1.4-2.5-2.1-3.6-2.2-3.3c0,0.2,0.2,1.6,0.7,4.3c-1.3,0.9-2.7,1.7-4,2.4c-0.7,0.3-1.3,0.6-1.7,0.8c0.3-4,1.3-7.6,3.1-11
	c1.4-2.6,3.3-4.9,5.7-6.9c-2.1,1.1-4.1,2.2-6.1,3.1l-0.7-3.3l-0.5,3.9c-1.7,0.8-3.3,1.5-4.6,2l-0.7-3.1l-1,3.8
	c-1.2,0.4-2.3,0.8-3.3,1.1c-0.6,0.2-1.3,0.4-1.9,0.5c-0.3,0.1-0.6,0.2-0.9,0.3v-1.5c0.9-1.7,1.8-3.3,2.8-4.8c2.5-3.6,5.3-6.3,8.5-8
	c3.5-1.9,7.4-2.6,11.5-2.1c-1.5-0.6-3.3-1.4-5.2-2.6l2.5-1.3l-3.5,0.7c-1-0.6-1.8-1.2-2.5-1.7l4.6-2.2l-6.3,0.9
	c-0.8-0.6-1.9-1.5-3.2-2.5l3-1.5l-4.4,0.4c-1.1-0.9-1.9-1.7-2.6-2.4c7.2-2.3,13.2-1.5,17.8,2.4c0.3,0.2,0.5,0.5,0.8,0.7
	c2.5,2.3,4.4,5.3,5.6,9c1.9-3,4.3-5.5,7.1-7.4c1-0.6,2-1.2,3-1.6c4.2-1.8,8.7-1.8,13.5,0l-1,0.8c-0.9,0.7-1.8,1.4-2.8,2
	c-1.2-0.5-2.2-1-3-1.3l1.5,2.3c-1.5,1-3,1.9-4.4,2.7l-4.2-1.3l2.5,2.1c-2.5,1.3-4.9,2.3-7.1,3c4.3,0.2,8.1,1.7,11.3,4.5
	c4.6,4.1,7.6,10.7,8.8,19.8l-1-0.6c-0.9-0.5-1.8-1-2.7-1.5l-1.8-5.8l-0.5,4.4c-1.7-1.1-3.3-2.3-4.8-3.4l-0.7-7.6l-1.5,6
	c-2.3-1.8-4.4-3.6-6.3-5.4c2,3.7,3.4,7.9,4.2,12.4c1,5.3,0.9,9.8-0.3,13.6c-1-1.6-2-3.7-3.3-6.3l1.4-2.7l-2.1,1.3
	c-0.7-1.6-1.3-3.2-2-4.8l1.4-5.3l-0.8,0.9c-0.7,0.7-1.2,1.2-1.6,1.6c-1.4-4-2.3-7.8-2.9-11.4c-0.3,3.3-0.4,6.7-0.5,10.2
	c-0.1,14.9,0.6,30.5,2,47c0.2,2.9,0.5,5.8,0.8,8.8c0.1,0.6,0.1,1.2,0.2,1.8c0.6,7.4,1.3,14.8,1.8,22c0,0.1,0,0.2,0,0.3
	c0,1,0.1,2,0.2,2.9c0.6-0.5,1.3-1,1.8-1.6c0.4-0.4,0.7-0.8,1-1.2c0.3,0.4,0.6,0.8,1,1.2c2.1,2.1,4.5,3.3,7.2,3.8c0.1,0,0.2,0,0.3,0
	V470l2-2.3l2.1,2.3v4.3h2.1V470l2-2.3l2,2.3v4.3h2.1V470l2-2.3l2,2.3v4.3h2V470l2-2.3l2.1,2.3v4.3h2.1V470l2-2.3l2,2.3v4.3h3v-87.9
	l2.6-2.6l2.6,2.6v8h5.6v-8l2.6-2.6l2.6,2.6v8h5.6v-8l2.6-2.6l2.6,2.6v8h5.7v-8l2.5-2.6l2.6,2.6v8h5.7v-8l2.6-2.6l2.6,2.6v24.3H695
	v-19.3h18.3v-3.8h1.4V373l-1.5-1.6h4.5v-7.6l-0.3-1.4c0.7-2.7,1.9-4.3,3.5-4.8l2-11.7l1.9,11.7c1.7,0.5,2.9,2.1,3.6,4.8l-0.4,1.4
	v7.6h4.5L731,373v14.5h1.4v3.8h18.3v19.3h62.7v-24.3l2.5-2.6l2.6,2.6v8h5.7v-8l2.5-2.6l2.6,2.6v8h5.7v-8l2.6-2.6l2.6,2.6v8h5.6v-8
	l2.6-2.6l2.6,2.6v8h5.6v-8l2.6-2.6l2.6,2.6v52.9h8.5v6.3h3v-6.3h12.2v6.3h3v-6.3h7.8c4.2-41.8,5.7-70.4,4.5-85.8
	c-0.9,5.4-2.3,11.1-4.4,17.1c-0.6-0.7-1.4-1.5-2.4-2.5l-1.3-1.4l2.1,8c-0.9,2.4-1.9,4.8-3,7.1l-3.1-2l2.1,4.1c-1.8,3.8-3.5,7-5,9.4
	c-1.8-5.6-1.9-12.4-0.5-20.3c1.3-6.8,3.4-13.1,6.4-18.7c-2.8,2.7-5.9,5.4-9.4,8.1l-2.2-9.1l-1,11.5c-0.4,0.3-0.8,0.6-1.3,1
	c-1.9,1.4-3.9,2.8-6,4.1l-0.8-6.5l-2.6,8.7c-1.3,0.8-2.5,1.5-3.7,2.1c-0.1,0.1-0.2,0.1-0.3,0.1l-1.4,0.9c0.4-3.1,1-6.1,1.7-8.8
	c1-4.2,2.4-7.9,4-11.1c2-4,4.5-7.3,7.5-9.9c0.5-0.5,1-0.9,1.5-1.3c0.1-0.1,0.1-0.1,0.2-0.2c0.9-0.7,1.8-1.3,2.7-1.8
	c3.7-2.2,7.8-3.3,12.4-3.5c-3.3-1.1-6.9-2.6-10.7-4.6l3.8-3.2l-6.3,1.8c-2.2-1.2-4.3-2.5-6.5-4l2.3-3.5c-1.2,0.6-2.7,1.2-4.5,2
	c-0.8-0.6-1.6-1.1-2.4-1.7c-0.6-0.5-1.2-0.9-1.8-1.4l-1.5-1.2c1.1-0.4,2.3-0.7,3.3-1c4.2-1,8.2-1.2,12-0.4c3.3,0.7,6.4,2,9.4,4
	c1.1,0.7,2.2,1.5,3.2,2.4c3,2.5,5.5,5.4,7.6,8.8c1.1-3.3,2.5-6.2,4.3-8.8c1.5-2.2,3.3-4.1,5.3-5.8c6.8-5.7,15.5-6.9,26.1-3.7v0.8
	c-0.9,0.8-2,1.8-3.3,2.9l-6.5-0.6l4.4,2.4c-1.9,1.6-3.5,2.8-4.8,3.8L917,326l6.9,3.3c-1.1,0.8-2.3,1.6-3.8,2.6l-5.2-1.1l3.9,1.9
	c-1.6,1-3.2,1.9-4.7,2.6c-1.1,0.5-2.1,1-3.1,1.4c1-0.1,2.1-0.2,3.1-0.2c5-0.2,9.8,0.9,14.2,3.3c2.9,1.6,5.7,3.7,8.2,6.4
	c3.2,3.4,6.1,7.7,8.6,12.9v2.3c-0.4-0.1-0.8-0.2-1.3-0.3c-2.2-0.5-4.6-1.2-7.3-2.3c-0.1-0.1-0.3-0.1-0.4-0.2l-1.5-5.7l-1,4.7
	c-2-0.8-4.4-1.8-7-3l-0.8-5.8l-1.1,4.9c-2.9-1.4-6-3-9.1-4.6c3.6,3,6.4,6.5,8.5,10.4c2.7,4.9,4.3,10.4,4.7,16.5
	c-0.6-0.3-1.5-0.7-2.5-1.2c-2.1-1.1-4.1-2.3-6.1-3.6c0.7-4,1-6.2,1-6.5c-0.1-0.4-1.1,1.3-3.2,5c-1.4-1-2.7-2-3.9-3.1
	c-0.6-0.5-1.1-1-1.7-1.5l2.1-4l-4.5,1.6c-1.7-1.9-3.3-3.8-4.5-5.8c-0.4-0.6-0.8-1.3-1.2-1.9c0.7,6.6,1,15.1,1,25.7
	c0,7.5-0.6,27-1.7,58.5H916v6.3h3v-6.3h10.3c11.1-5.5,18-9.4,20.5-11.7c2.6-2.3,5.4-3.7,8.6-4.3c3.1-0.6,5.8-1.4,8.1-2.4
	c2.2-1.1,4.9-2.6,7.9-4.5s5.2-3.9,6.5-6.1c0.1-0.3,0.3-0.5,0.4-0.8c0.2-0.4,0.3-0.7,0.4-1c0.2-0.1,0.4-0.1,0.7-0.2
	c1.7-0.5,3.1-1.1,4-1.6c0.6-0.4,1.8-1.7,3.6-3.9c0.9-1.2,1.9-2,2.9-2.5c0.5-0.2,1-0.4,1.5-0.4c0.6-0.7,1.6-1.7,3-3
	c1.4-1.4,2.6-2.8,3.7-4.2c0.7-1,1.2-2.8,1.5-5.5c0.1-2.2,0.9-3.6,2.4-4.1c0.6-0.2,1.5-0.7,2.6-1.4c1-0.7,1.5-1,1.6-1.1
	c1.9-0.5,3.4-1,4.3-1.6c1.6-1,3.1-2.2,4.4-3.7c1.4-1.4,2.3-2.7,2.7-3.8c1,0.2,3.3,0.7,6.7,1.6c0.9,0.3,5.8-4.5,14.7-14.2l14.1-4
	c8.5,11,14.2,18,17.3,20.9c3.1,2.9,5,4.7,5.8,5.4c0.8,0.7,1.8,1.8,3.2,3.3c0.4,0.5,0.9,1.3,1.6,2.5c0.8,1.5,1.4,2.6,1.7,3.1
	c0.4,0.7,1.2,1.6,2.2,2.8c0.6,0.7,1.5,1.6,2.6,2.9c0.6,0.6,1.4,1.6,2.5,2.9c-0.7-0.6-1.5-1.2-2.3-1.9c-5.7-4.6-10.1-8.3-13.3-11.2
	c-3.1-2.8-6.3-6.6-9.4-11.3c-3.2-4.7-4.9-7.3-5.1-7.6l-0.4-0.1c0.7,2.9,1.9,6.1,3.6,9.7s4.2,7.7,7.5,12.4c-3.6-0.7-7.4-2.1-11.5-4.1
	c-1.4-0.4-2.8-0.9-4.1-1.5c1.7,2.7,3.9,5.6,6.6,8.6c1.2,1.3,4.6,4.6,10.3,10.1c0.1-0.1-0.8-1.6-2.8-4.4s-3.6-5-4.7-6.8
	c3.5,2.5,9.5,5.4,18.1,8.9c5.5,2.2,9.5,3.6,11.8,4.1c2,1.9,4.1,3.4,6.3,4.5c0.8,0.4,2.3,1.2,4.5,2.5c2.1,1.1,3.8,1.7,5.2,1.9
	c1.2,0.2,2.7,0.9,4.3,2.1c0.1,0,0.3,0.2,0.7,0.5c0.7,0.5,1.8,1.5,3.5,2.8c1.8,1.4,4.4,3.5,7.8,6.3c2.9,2.2,5,3.4,6.2,3.7
	c1.2,0.3,4.2,0.5,9,0.8c4.8,0.2,7.6,0.2,8.5,0.1c7.5,4.4,11.9,8.1,13.2,11.1c1.3,3,3.8,7.7,7.6,14.1c3.8,6.4,7.8,10.6,12.3,12.9
	c4.4,2.2,7.8,3.8,10.1,4.8c2.3,1,4.8,1.9,7.3,2.8c0.7,1.4,1.8,3.2,3.2,5.6c0.7,1.1,1.4,2.3,2.3,3.6c0.8,1.3,1.6,2.8,2.6,4.3
	c3.1,5,6.7,9.7,10.8,14.1c1,1.1,2,2.1,3.1,3.1c5.4,5.2,11,7.9,16.8,8.2c5.9,0.3,10.1-1.9,12.7-6.6c0.8-1.3,1.3-2.9,1.7-4.8
	c0.9-4.5,0.8-10.5-0.6-18.1c0-0.1,0-0.2,0-0.3c-0.3-1.2-0.7-2.4-1-3.6c-19.6-70.7-51.9-136.1-96.8-196.3c-5-6.7-10.2-13.4-15.6-20
	c-23.1,3.8-41.2,3.1-54.2-2.3c-4.2-1.7-7.6-3.8-10.2-6.2l-2.7-3.3c-9.7,5.5-21.4,6.5-35,3.2c-4.2-1.1-8.4-2.5-12.5-4.3l-4.9-2.4
	c-7,2.1-14.6,1.4-22.7-2.3c-2.5-1.1-5-2.4-7.3-3.9l-2.7-2c-48.3-0.1-72.3-2.2-72.3-6.3c0-0.7,1.3-1.3,3.8-1.9
	c5.4-1.2,16.5-2.1,33.3-2.8c12.3-0.5,24.7-0.7,37-0.8c4.9-5.9,14.5-8.2,29-7.1c7.2,0.6,13.9,1.7,20.2,3.4c10.6-8,26.6-10.8,47.9-8.6
	C1093.8,216.6,1098.1,217.3,1102.2,218.1 M780.1,328.1c0.5,0.2,0.9,0.5,1.2,1c0.2,0.5,0.3,1,0,1.5c-0.2,0.5-0.5,0.9-1,1.1
	c-0.8,0.4-1.5,0.8-2.1,1.4l0,0c-0.4,0.3-0.8,0.7-1.2,1l0.1-0.1c-1.1,1.1-1.9,2.4-2.4,3.8c-0.1,0.4-0.4,0.7-0.7,0.9
	c-0.3,0.3-0.7,0.4-1.2,0.4c-0.4,0-0.8-0.1-1.1-0.3c-0.3-0.2-0.6-0.5-0.8-0.9c-0.6-1.4-1.4-2.7-2.6-3.8c-0.3-0.3-0.6-0.6-0.9-0.9l0,0
	c-0.7-0.5-1.4-1-2.2-1.4c-0.5-0.3-0.8-0.7-1-1.2s-0.1-1,0.1-1.5c0.3-0.5,0.6-0.8,1.1-1s1.1-0.1,1.5,0.1c1,0.5,1.9,1.1,2.9,1.8
	c0,0,0,0.1,0,0c0.5,0.4,0.9,0.7,1.3,1.1c0.6,0.6,1.1,1.2,1.5,1.8c0.5-0.6,1-1.2,1.5-1.8c0.1,0,0.1-0.1,0.2-0.1
	c0.4-0.3,0.8-0.6,1.2-1c0,0,0,0,0.1,0c0.9-0.7,1.9-1.3,2.9-1.8C779.1,328,779.6,327.9,780.1,328.1 M788,346.1
	c0.3-0.4,0.7-0.7,1.3-0.9c0.8-0.2,1.5-0.2,2.3-0.3c2.8,0,5.2,1,7.1,2.9c0.1,0.1,0.2,0.2,0.3,0.3c0.1-0.1,0.2-0.2,0.3-0.3
	c2-1.9,4.4-2.9,7.1-2.9c0.4,0,0.7,0,1,0.1c0.6,0.1,1,0.4,1.3,0.9c0.3,0.4,0.5,0.9,0.4,1.4c-0.1,0.6-0.3,1-0.8,1.3
	c-0.4,0.3-0.9,0.5-1.5,0.3c-0.1,0-0.2,0-0.3,0c-1.7,0-3.1,0.6-4.3,1.8c-0.5,0.6-1,1.2-1.3,1.9c-0.2,0.5-0.6,0.8-1,1.1
	c-0.5,0.2-1,0.2-1.5,0s-0.9-0.6-1.1-1.1c-0.3-0.7-0.7-1.3-1.3-1.9c-1.2-1.2-2.6-1.7-4.3-1.8c-0.5,0-1,0-1.5,0.2
	c-0.5,0.1-1,0-1.5-0.3c-0.4-0.3-0.7-0.7-0.8-1.3C787.6,347.1,787.7,346.6,788,346.1 M530.5,194.1c3.8,0,7.4,0.6,10.5,1.9
	c3.1,1.3,5.5,3,7,5.1c1.8-0.5,4.5-0.7,8.2-0.5c3.7,0.1,8.4,1.5,14.3,4c5.8,2.5,8.7,5.1,8.6,7.6c-0.2,2.5-4.5,4.3-12.9,5.2
	s-16.8,1-25.2,0.1c-8.4-0.8-15-1.3-19.8-1.3s-8.4-0.1-10.9-0.3c-2.5-0.2-12,0.4-28.5,1.8c-16.5,1.3-25,1-25.4-0.9
	c-0.5-2,2.2-3.3,8-3.8c13.6-0.2,20.9-0.5,21.6-0.9c1-0.4,2-0.6,3-0.6c0.4,0,1.8-1.1,4.2-3.2c1.7-0.9,3.6-1.4,5.8-1.4l1.1,0.1
	c1-1.5,2.6-2.6,4.7-3.6c2.2-0.9,4.6-1.3,7.1-1.3h0.2c1.3-2.4,3.7-4.4,7-5.9C522.6,194.9,526.4,194.1,530.5,194.1 M147.1,394.1
	c0.5-0.3,1-0.4,1.5-0.3s1,0.4,1.3,0.9s0.4,1,0.3,1.5c-0.1,0.5-0.4,1-0.9,1.3c-0.6,0.3-1.1,0.8-1.6,1.3c-0.3,0.4-0.6,0.7-1,1.1
	l0.1-0.1c-0.9,1.1-1.5,2.4-1.9,3.8c-0.1,0.4-0.3,0.8-0.7,1c-0.3,0.3-0.7,0.4-1.1,0.4c-0.4,0-0.8-0.1-1.2-0.4c-0.4-0.2-0.6-0.6-0.8-1
	c-0.5-1.4-1.1-2.7-2-3.8c-0.2-0.3-0.5-0.6-0.8-0.9c-0.5-0.5-1-0.9-1.6-1.3c-0.5-0.3-0.8-0.7-0.9-1.3c-0.1-0.5,0-1,0.3-1.5
	s0.7-0.8,1.3-0.9c0.5-0.1,1,0,1.5,0.3c0.8,0.5,1.6,1.1,2.3,1.9c0.4,0.4,0.7,0.8,1.1,1.2c0.3,0.4,0.6,0.7,0.8,1.1
	c0.2-0.4,0.5-0.7,0.8-1.1c0-0.1,0.1-0.1,0.1-0.2c0.3-0.3,0.6-0.6,0.9-0.9l0.1-0.1C145.4,395.3,146.2,394.7,147.1,394.1
	 M1117.2,358.9c1.5-1.2,3.3-1.8,5.3-1.9c2,0,3.8,0.6,5.3,1.9l0,0c0.3,0.2,0.5,0.4,0.7,0.6c0,0,0.1,0.1,0,0c0,0,0,0,0.1,0
	s0.1-0.1,0.2-0.1c0.2-0.2,0.4-0.3,0.6-0.5l0,0c1.5-1.2,3.3-1.8,5.4-1.9c2,0,3.8,0.6,5.3,1.9c0.4,0.3,0.7,0.8,0.7,1.3
	c0.1,0.6-0.1,1.1-0.4,1.5s-0.8,0.7-1.3,0.7c-0.5,0.1-1-0.1-1.4-0.4c-0.8-0.6-1.8-1-2.8-1c-1.1,0-2,0.3-2.9,0.9v0.1
	c-0.2,0.2-0.4,0.3-0.6,0.4l0.2-0.1c-0.4,0.5-0.8,1-1,1.5c-0.1,0.4-0.4,0.7-0.7,1c-0.3,0.3-0.7,0.4-1.2,0.4c-0.4,0-0.8-0.1-1.1-0.4
	c-0.3-0.2-0.6-0.5-0.8-0.9c-0.2-0.6-0.6-1.1-1.1-1.6c-0.1-0.1-0.2-0.2-0.3-0.3v-0.1c-0.8-0.6-1.7-0.9-2.8-0.9c-1.1,0-2,0.3-2.8,1
	c-0.4,0.3-0.9,0.5-1.5,0.4c-0.5,0-1-0.3-1.3-0.7c-0.3-0.4-0.5-0.9-0.4-1.5C1116.5,359.6,1116.7,359.2,1117.2,358.9 M1017.9,388.5
	c0.1-2.7-0.2-6-0.7-9.9c-1.9,5.1-4.8,10.6-8.9,16.5c-3.2,4.5-7.6,9.6-13.3,15.2c6.8-3.2,11.2-5.5,13.1-6.8c2.3-1.6,5.9-4.8,10.8-9.6
	c4.9-4.7,9.3-10.4,13-16.9s6.3-11.5,7.8-15L1017.9,388.5z"/>
<linearGradient id="SVGID_5_" gradientUnits="userSpaceOnUse" x1="427.3" y1="1228.5" x2="1163.7" y2="1228.5" gradientTransform="matrix(1 0 0 -1 0 1700)">
	<stop  offset="0.102" style="stop-color:#FFCC00"/>
	<stop  offset="1" style="stop-color:#FF6699"/>
</linearGradient>
<path class="st5" d="M874.5,466.5c-0.5-0.5-1-0.7-1.7-0.8c-0.7,0-1.2,0.3-1.7,0.8c-0.2,0.3-0.4,0.5-0.5,0.8s-0.1,0.7-0.1,1v9h4.8v-9
	C875.2,467.6,874.9,467,874.5,466.5 M880.9,466.5c-0.5-0.5-1-0.7-1.7-0.8c-0.7,0-1.2,0.3-1.7,0.8s-0.8,1.1-0.8,1.8v9h4.8v-9
	C881.6,467.6,881.4,467,880.9,466.5z"/>
<linearGradient id="SVGID_6_" gradientUnits="userSpaceOnUse" x1="25.5" y1="1326.7" x2="1252.9" y2="1326.7" gradientTransform="matrix(1 0 0 -1 0 1700)">
	<stop  offset="0.102" style="stop-color:#FFCC00"/>
	<stop  offset="1" style="stop-color:#FF6699"/>
</linearGradient>
<path class="st6" d="M1044.4,364.3c0.9,1.6,1.9,3.4,2.8,5.2c1.1,2.2,3.3,6.5,6.5,12.8c-0.8-4.4-0.5-8,0.9-10.9
	C1051.5,371.6,1048.1,369.2,1044.4,364.3z"/>
<linearGradient id="SVGID_7_" gradientUnits="userSpaceOnUse" x1="-35.3" y1="1301.85" x2="1192.1" y2="1301.85" gradientTransform="matrix(1 0 0 -1 0 1700)">
	<stop  offset="0.102" style="stop-color:#FFCC00"/>
	<stop  offset="1" style="stop-color:#FF6699"/>
</linearGradient>
<path class="st7" d="M184.6,393.7c0-0.3-0.1-0.5-0.2-0.7c-0.2-0.1-0.4-0.2-0.6-0.2h-0.1c-0.2,0-0.4,0.1-0.6,0.2
	c-0.2,0.1-0.3,0.4-0.3,0.7v8.9c0,0.3,0.1,0.5,0.3,0.6c0.1,0.2,0.3,0.3,0.6,0.3h0.1c0.2,0,0.4-0.1,0.6-0.3c0.1-0.2,0.2-0.4,0.2-0.6
	V393.7z"/>
<g class="st8">
	<path class="st9" d="M50.6,914.6c-1.4,0-2.7-0.2-3.9-0.7s-2.2-1.1-3.1-1.9c-0.9-0.8-1.6-1.8-2.1-3c-0.5-1.1-0.7-2.4-0.7-3.7
		c0-1.4,0.2-2.6,0.7-3.7c0.5-1.1,1.2-2.1,2.1-3s1.9-1.5,3.1-1.9c1.2-0.5,2.5-0.7,3.9-0.7c1.6,0,3,0.3,4.2,0.8s2.3,1.3,3.2,2.4
		l-2.7,2.5c-0.6-0.7-1.3-1.2-2.1-1.6c-0.8-0.4-1.6-0.5-2.5-0.5c-0.8,0-1.6,0.1-2.3,0.4c-0.7,0.3-1.3,0.7-1.8,1.2s-0.9,1.1-1.2,1.8
		s-0.4,1.5-0.4,2.3c0,0.9,0.1,1.6,0.4,2.3s0.7,1.3,1.2,1.8s1.1,0.9,1.8,1.2s1.5,0.4,2.3,0.4c0.9,0,1.7-0.2,2.5-0.5
		c0.8-0.4,1.4-0.9,2.1-1.6l2.7,2.5c-0.9,1-1.9,1.8-3.2,2.4C53.6,914.3,52.2,914.6,50.6,914.6z"/>
	<path class="st9" d="M79.6,914.6c-1.4,0-2.7-0.2-4-0.7c-1.2-0.5-2.3-1.1-3.1-2s-1.6-1.8-2.1-3c-0.5-1.1-0.7-2.4-0.7-3.7
		s0.2-2.6,0.7-3.7c0.5-1.1,1.2-2.1,2.1-3c0.9-0.8,1.9-1.5,3.1-2s2.5-0.7,3.9-0.7s2.7,0.2,3.9,0.7c1.2,0.5,2.2,1.1,3.1,2
		s1.6,1.8,2.1,3c0.5,1.1,0.7,2.4,0.7,3.7s-0.2,2.6-0.7,3.7c-0.5,1.1-1.2,2.1-2.1,3c-0.9,0.8-1.9,1.5-3.1,1.9
		C82.3,914.3,81,914.6,79.6,914.6z M79.6,911c0.8,0,1.6-0.1,2.2-0.4c0.7-0.3,1.3-0.7,1.8-1.2s0.9-1.1,1.2-1.8s0.4-1.5,0.4-2.3
		c0-0.9-0.1-1.6-0.4-2.3s-0.7-1.3-1.2-1.8s-1.1-0.9-1.8-1.2c-0.7-0.3-1.4-0.4-2.2-0.4s-1.6,0.1-2.2,0.4c-0.7,0.3-1.3,0.7-1.8,1.2
		s-0.9,1.1-1.2,1.8c-0.3,0.7-0.4,1.5-0.4,2.3s0.1,1.6,0.4,2.3s0.7,1.3,1.2,1.8s1.1,0.9,1.8,1.2S78.8,911,79.6,911z"/>
	<path class="st9" d="M108.8,914.6c-1.4,0-2.8-0.2-4.2-0.6c-1.3-0.4-2.4-0.9-3.2-1.5l1.4-3.1c0.8,0.6,1.7,1,2.7,1.4
		c1.1,0.4,2.1,0.5,3.2,0.5c0.8,0,1.5-0.1,2-0.2c0.5-0.2,0.9-0.4,1.1-0.7s0.4-0.6,0.4-1c0-0.5-0.2-0.9-0.6-1.1
		c-0.4-0.3-0.9-0.5-1.5-0.7s-1.3-0.4-2.1-0.5c-0.7-0.2-1.5-0.4-2.2-0.6c-0.7-0.2-1.4-0.5-2.1-0.9c-0.6-0.4-1.1-0.9-1.5-1.5
		s-0.6-1.4-0.6-2.4s0.3-2,0.8-2.8c0.6-0.9,1.4-1.5,2.5-2s2.5-0.8,4.2-0.8c1.1,0,2.3,0.1,3.4,0.4c1.1,0.3,2.1,0.7,2.9,1.2l-1.3,3.2
		c-0.8-0.5-1.7-0.8-2.5-1.1c-0.8-0.2-1.7-0.3-2.5-0.3s-1.5,0.1-2,0.3s-0.9,0.4-1.1,0.7s-0.3,0.6-0.3,1c0,0.5,0.2,0.8,0.6,1.1
		s0.9,0.5,1.5,0.7s1.3,0.3,2.1,0.5c0.7,0.2,1.5,0.4,2.2,0.6c0.7,0.2,1.4,0.5,2.1,0.9s1.1,0.9,1.5,1.5s0.6,1.4,0.6,2.3
		c0,1-0.3,1.9-0.9,2.8c-0.6,0.8-1.4,1.5-2.5,2C112,914.3,110.6,914.6,108.8,914.6z"/>
	<path class="st9" d="M133.2,914.3v-14.7h-5.8v-3.4h15.7v3.4h-5.8v14.7H133.2z"/>
	<path class="st9" d="M152.4,914.3l8-18.1h4.1l8.1,18.1h-4.4l-6.6-15.9h1.7l-6.6,15.9H152.4z M156.4,910.4l1.1-3.2h9.3l1.1,3.2
		H156.4z"/>
	<path class="st9" d="M202.5,914.3v-18.1h8.8c2.3,0,4,0.4,5.1,1.3c1.1,0.9,1.7,2,1.7,3.4c0,0.9-0.2,1.8-0.7,2.5s-1.1,1.2-1.9,1.6
		c-0.8,0.4-1.7,0.6-2.8,0.6l0.5-1.1c1.1,0,2.1,0.2,3,0.6c0.9,0.4,1.6,0.9,2.1,1.6s0.7,1.6,0.7,2.7c0,1.5-0.6,2.8-1.8,3.6
		s-3,1.3-5.4,1.3L202.5,914.3L202.5,914.3z M206.6,911.1h4.9c1.1,0,1.9-0.2,2.5-0.5c0.6-0.4,0.8-0.9,0.8-1.7s-0.3-1.3-0.8-1.7
		c-0.6-0.4-1.4-0.6-2.5-0.6h-5.2v-3h4.5c1,0,1.8-0.2,2.3-0.5c0.5-0.4,0.8-0.9,0.8-1.6c0-0.7-0.3-1.2-0.8-1.6
		c-0.5-0.4-1.3-0.5-2.3-0.5h-4.2V911.1z"/>
	<path class="st9" d="M232.5,914.3v-18.1h7.8c1.6,0,3,0.3,4.2,0.8s2.1,1.3,2.7,2.3c0.6,1,1,2.2,1,3.5s-0.3,2.5-1,3.5
		c-0.6,1-1.5,1.7-2.7,2.2s-2.6,0.8-4.2,0.8h-5.5l1.9-1.8v6.9h-4.2V914.3z M236.7,907.9l-1.9-2h5.3c1.3,0,2.3-0.3,2.9-0.8
		s1-1.3,1-2.3s-0.3-1.8-1-2.3s-1.6-0.8-2.9-0.8h-5.3l1.9-2V907.9z M244,914.3l-4.5-6.6h4.5l4.6,6.6H244z"/>
	<path class="st9" d="M259.5,914.3l8-18.1h4.1l8.1,18.1h-4.4l-6.6-15.9h1.7l-6.6,15.9H259.5z M263.5,910.4l1.1-3.2h9.3l1.1,3.2
		H263.5z"/>
	<path class="st9" d="M296.3,914.3l-7.8-18.1h4.5l6.8,16h-2.7l6.9-16h4.2l-7.8,18.1H296.3z"/>
	<path class="st9" d="M317.1,914.3l8-18.1h4.1l8.1,18.1H333l-6.6-15.9h1.7l-6.6,15.9H317.1z M321.2,910.4l1.1-3.2h9.3l1.1,3.2H321.2
		z"/>
	<path class="st9" d="M384.8,919.3v-24.1h3.7v24.1H384.8z"/>
	<path class="st9" d="M438.4,914.3v-18.1h3.5l7.7,12.7h-1.8l7.6-12.7h3.4l0.1,18.1H455v-12h0.7l-6,10.1h-1.9l-6.2-10.1h0.9v12H438.4
		z"/>
	<path class="st9" d="M471,914.3l8-18.1h4.1l8.1,18.1h-4.4l-6.6-15.9h1.7l-6.6,15.9H471z M475,910.4l1.1-3.2h9.3l1.1,3.2H475z
		 M478.7,894.7l3.5-3.7h4.3l-4.7,3.7H478.7z"/>
	<path class="st9" d="M503.4,914.3v-18.1h4.2v14.7h9.1v3.4L503.4,914.3L503.4,914.3z"/>
	<path class="st9" d="M527,914.3l8-18.1h4.1l8.1,18.1h-4.4l-6.6-15.9h1.7l-6.6,15.9H527z M531.1,910.4l1.1-3.2h9.3l1.1,3.2H531.1z"
		/>
	<path class="st9" d="M568,914.6c-1.4,0-2.7-0.2-3.9-0.7s-2.2-1.1-3.1-1.9c-0.9-0.8-1.6-1.8-2.1-3c-0.5-1.1-0.7-2.4-0.7-3.7
		c0-1.4,0.2-2.6,0.7-3.7c0.5-1.1,1.2-2.1,2.1-3c0.9-0.8,1.9-1.5,3.1-1.9c1.2-0.5,2.5-0.7,4-0.7c1.6,0,3,0.3,4.3,0.8s2.4,1.3,3.2,2.3
		l-2.7,2.5c-0.7-0.7-1.4-1.2-2.1-1.5c-0.8-0.3-1.6-0.5-2.5-0.5s-1.7,0.1-2.4,0.4c-0.7,0.3-1.3,0.7-1.9,1.2c-0.5,0.5-0.9,1.1-1.2,1.8
		s-0.4,1.5-0.4,2.3s0.1,1.6,0.4,2.3c0.3,0.7,0.7,1.3,1.2,1.8s1.1,0.9,1.9,1.2s1.5,0.4,2.4,0.4c0.8,0,1.6-0.1,2.4-0.4
		s1.5-0.7,2.3-1.4l2.4,3c-1,0.7-2.1,1.3-3.4,1.7S569.3,914.6,568,914.6z M571.4,911.7v-6.8h3.8v7.3L571.4,911.7z"/>
	<path class="st9" d="M587.1,914.3l8-18.1h4.1l8.1,18.1h-4.4l-6.6-15.9h1.7l-6.6,15.9H587.1z M591.1,910.4l1.1-3.2h9.3l1.1,3.2
		H591.1z"/>
	<path class="st9" d="M654.8,919.3v-24.1h3.7v24.1H654.8z"/>
	<path class="st9" d="M725.9,914.3v-18.1h3.5l7.7,12.7h-1.8l7.6-12.7h3.4l0.1,18.1h-3.9v-12h0.7l-6,10.1h-1.9l-6.2-10.1h0.9v12
		H725.9z"/>
	<path class="st9" d="M758.5,914.3l8-18.1h4.1l8.1,18.1h-4.4l-6.6-15.9h1.7l-6.6,15.9H758.5z M762.5,910.4l1.1-3.2h9.3l1.1,3.2
		H762.5z"/>
	<path class="st9" d="M791,914.3v-18.1h4.2v14.7h9.1v3.4L791,914.3L791,914.3z"/>
	<path class="st9" d="M816.9,914.3v-18.1h4.2v14.7h9.1v3.4L816.9,914.3L816.9,914.3z"/>
	<path class="st9" d="M851.2,914.6c-1.4,0-2.7-0.2-4-0.7c-1.2-0.5-2.3-1.1-3.1-2c-0.9-0.8-1.6-1.8-2.1-3c-0.5-1.1-0.7-2.4-0.7-3.7
		s0.2-2.6,0.7-3.7c0.5-1.1,1.2-2.1,2.1-3s1.9-1.5,3.1-2c1.2-0.5,2.5-0.7,3.9-0.7s2.7,0.2,3.9,0.7s2.2,1.1,3.1,2s1.6,1.8,2.1,3
		c0.5,1.1,0.7,2.4,0.7,3.7s-0.3,2.6-0.7,3.7c-0.5,1.1-1.2,2.1-2.1,3c-0.9,0.8-1.9,1.5-3.1,1.9C853.9,914.3,852.6,914.6,851.2,914.6z
		 M851.2,911c0.8,0,1.6-0.1,2.2-0.4c0.7-0.3,1.3-0.7,1.8-1.2s0.9-1.1,1.2-1.8s0.4-1.5,0.4-2.3c0-0.9-0.1-1.6-0.4-2.3
		c-0.3-0.7-0.7-1.3-1.2-1.8s-1.1-0.9-1.8-1.2s-1.4-0.4-2.2-0.4s-1.6,0.1-2.2,0.4c-0.7,0.3-1.3,0.7-1.8,1.2s-0.9,1.1-1.2,1.8
		s-0.4,1.5-0.4,2.3s0.1,1.6,0.4,2.3c0.3,0.7,0.7,1.3,1.2,1.8s1.1,0.9,1.8,1.2S850.4,911,851.2,911z"/>
	<path class="st9" d="M874.6,914.3v-18.1h7.8c1.6,0,3,0.3,4.2,0.8s2.1,1.3,2.7,2.3c0.6,1,1,2.2,1,3.5s-0.3,2.5-1,3.5
		s-1.5,1.7-2.7,2.2s-2.6,0.8-4.2,0.8h-5.5l1.9-1.8v6.9h-4.2V914.3z M878.7,907.9l-1.9-2h5.3c1.3,0,2.3-0.3,2.9-0.8
		c0.6-0.6,1-1.3,1-2.3s-0.3-1.8-1-2.3c-0.6-0.6-1.6-0.8-2.9-0.8h-5.3l1.9-2V907.9z M886,914.3l-4.5-6.6h4.5l4.6,6.6H886z"/>
	<path class="st9" d="M912.5,914.6c-1.4,0-2.7-0.2-3.9-0.7s-2.2-1.1-3.1-1.9c-0.9-0.8-1.6-1.8-2.1-3c-0.5-1.1-0.7-2.4-0.7-3.7
		c0-1.4,0.2-2.6,0.7-3.7c0.5-1.1,1.2-2.1,2.1-3c0.9-0.8,1.9-1.5,3.1-1.9c1.2-0.5,2.5-0.7,3.9-0.7c1.6,0,3,0.3,4.2,0.8
		c1.3,0.5,2.3,1.3,3.2,2.4l-2.7,2.5c-0.6-0.7-1.3-1.2-2.1-1.6c-0.8-0.4-1.6-0.5-2.5-0.5c-0.8,0-1.6,0.1-2.3,0.4
		c-0.7,0.3-1.3,0.7-1.8,1.2s-0.9,1.1-1.2,1.8s-0.4,1.5-0.4,2.3c0,0.9,0.1,1.6,0.4,2.3c0.3,0.7,0.7,1.3,1.2,1.8s1.1,0.9,1.8,1.2
		s1.5,0.4,2.3,0.4c0.9,0,1.7-0.2,2.5-0.5s1.4-0.9,2.1-1.6l2.7,2.5c-0.9,1-1.9,1.8-3.2,2.4C915.5,914.3,914.1,914.6,912.5,914.6z"/>
	<path class="st9" d="M930.3,914.3l8-18.1h4.1l8.1,18.1h-4.4l-6.6-15.9h1.7l-6.6,15.9H930.3z M934.4,910.4l1.1-3.2h9.3l1.1,3.2
		H934.4z"/>
	<path class="st9" d="M998,919.3v-24.1h3.7v24.1H998z"/>
	<path class="st9" d="M1055.3,914.3v-14.7h-5.8v-3.4h15.7v3.4h-5.8v14.7H1055.3z"/>
	<path class="st9" d="M1082,910.9h9.8v3.4h-14v-18.1h13.6v3.4h-9.5L1082,910.9L1082,910.9z M1081.7,903.5h8.7v3.3h-8.7V903.5z"/>
	<path class="st9" d="M1105.5,914.3v-18.1h3.5l10.7,13h-1.7v-13h4.1v18.1h-3.4l-10.7-13h1.7v13H1105.5z"/>
	<path class="st9" d="M1140.8,910.9h9.8v3.4h-14v-18.1h13.6v3.4h-9.5L1140.8,910.9L1140.8,910.9z M1140.5,903.5h8.7v3.3h-8.7V903.5z
		"/>
	<path class="st9" d="M1164.3,914.3v-18.1h7.8c1.6,0,3,0.3,4.2,0.8s2.1,1.3,2.7,2.3s1,2.2,1,3.5s-0.3,2.5-1,3.5s-1.5,1.7-2.7,2.2
		s-2.6,0.8-4.2,0.8h-5.5l1.9-1.8v6.9h-4.2L1164.3,914.3L1164.3,914.3z M1168.4,907.9l-1.9-2h5.3c1.3,0,2.3-0.3,2.9-0.8
		c0.6-0.6,1-1.3,1-2.3s-0.3-1.8-1-2.3c-0.6-0.6-1.6-0.8-2.9-0.8h-5.3l1.9-2V907.9z M1175.7,914.3l-4.5-6.6h4.5l4.6,6.6H1175.7z"/>
	<path class="st9" d="M1193.5,914.3v-18.1h4.2v18.1H1193.5z"/>
	<path class="st9" d="M1216.5,914.3h-4.2v-18.1h13.6v3.4h-9.5L1216.5,914.3L1216.5,914.3z M1216.2,904.3h8.7v3.4h-8.7V904.3z"/>
	<path class="st9" d="M1243.3,910.9h9.8v3.4h-14v-18.1h13.6v3.4h-9.5L1243.3,910.9L1243.3,910.9z M1243,903.5h8.7v3.3h-8.7V903.5z"
		/>
</g>
</svg>
