
<svg xmlns="http://www.w3.org/2000/svg" version="1.1" xmlns:xlink="http://www.w3.org/1999/xlink" preserveAspectRatio="none" x="0px" y="0px" width="800px" height="800px" viewBox="0 0 800 800">
<defs>
<linearGradient id="Gradient_1" gradientUnits="userSpaceOnUse" x1="206.3" y1="3.174999999999983" x2="206.3" y2="350.82500000000005" spreadMethod="pad">
<stop  offset="19.215686274509803%" stop-color="#FFCC00"/>

<stop  offset="63.92156862745098%" stop-color="#FF8A42"/>

<stop  offset="100%" stop-color="#FF4884"/>
</linearGradient>

<g id="S_mbolo_89_0_Layer0_0_FILL">
<path fill="url(#Gradient_1)" stroke="none" d="
M 278 16.05
Q 273.95859375 14.548046875 269.8 13.2 230.25 0.3 188.45 4 146.7 7.6 109.85 27.05 74.4 45.85 48.4 76.75 46.652734375 78.8337890625 44.95 80.95 31.3677734375 98.0224609375 21.75 117.2 14.8505859375 131.0171875 10 145.9 -2.85 185.45 0.8 227.3 1.2646484375 232.7890625 2.2 238.75 3.475 246.569140625 5.55 255.2 9.2947265625 270.4353515625 15.65 288.2 18.2015625 294.53359375 21.75 301.55 22.0951171875 302.258203125 22.45 302.95 25.05 307.6 27.3 311.5 30.842578125 317.6271484375 34.35 322.25 39.855078125 329.46953125 46.35 334.8 60.5408203125 346.379296875 79.5 349.05 94.7591796875 351.23046875 109.9 351 133.0630859375 350.70546875 155.95 344.8 160.6611328125 343.5939453125 165.2 342.2
L 165.25 342.2
Q 147.183203125 305.219140625 135.1 273.95 125.85 246.35 122.25 229.9 119.8 218.7 118.5 209.25 117.3 213.4 114.95 217.65
L 110.45 217.35 113.3 220.45
Q 111.5 223.3 109.2 226.05 104.95 221.65 105.05 222.2 105.1 222.6 107.6 227.95 105.2 230.6 102.7 232.8 101.45 233.9 100.65 234.5 99.15 225.9 101.2 218.1 102.9 211.85 106.8 206.4 103.25 209.65 99.3 212.9
L 97.15 208.6 97.75 214.2
Q 95.05 216.4 91.9 218.6
L 89.9 214.45 89.8 220.1
Q 86.15 222.6 83.15 224.15 81.65 225 80.95 225.2 83.9 208.85 92.7 200.85 99.2 194.95 108.05 193.9 104.45 193.45 99.95 192.05
L 103.05 189.35 98.5 191.55
Q 96.55 190.9 94.4 190
L 100.1 185.35 91.7 188.9
Q 88.75 187.7 86.35 186.5
L 89.9 183.25 84 185.3
Q 81.2 183.95 79.5 182.95 93.5 174.5 105.25 180.05 112.55 183.45 117.55 191.4 119.9 184 124.95 178.5 133.75 169.1 147.4 170.4
L 146.2 171.9
Q 144.7 173.75 143 175.65 140.25 175.25 138.35 174.85
L 141.35 177.5
Q 138.65 180.45 136.15 182.85
L 129.85 182.6 134.15 184.7
Q 129.55 188.75 125.2 191.45 134.2 189.6 142.2 193.65 154 199.65 161.3 217.5 158 184.1 157.95 151.1 158 126.3 159.55 110.85 155.95 117.2 150.65 122.9
L 143.65 120.5 146.95 126.65
Q 142.9 130.5 138.25 133.95 133.35 125.3 133.2 126.1 133.2 126.85 134.85 136.3 130.15 139.45 125.3 142 122.9 143.15 121.4 143.85 122.35 129.7 128.75 118.15 133.8 108.95 142.15 101.9 134.7 105.9 127.8 109.15
L 126.1 101.5 124.9 110.6
Q 118.7 113.4 113.95 115.3
L 112.3 107.9 109.95 116.8
Q 103.1 119.3 97.8 120.6 95.2 121.25 93.9 121.35 104.9 96.7 122.15 87.45 134.6 80.75 149.15 82.55 147.3830078125 81.8564453125 145.45 80.95 141.5873046875 79.1125 137.1 76.4
L 143.05 73.4 135 75.1
Q 131.6 72.9 129.05 71.05
L 139.9 65.95 125.25 68.2
Q 122.25 65.95 117.75 62.25
L 124.6 58.6 114.45 59.45
Q 110.65 56.25 108.35 53.95 133.75 46 150.15 59.5 159.81953125 67.50234375 164.65 80.95 164.9205078125 81.618359375 165.15 82.3 165.574609375 81.616796875 166 80.95 172.451171875 71.172265625 182 64.9 199.55 53.4 220.65 60.95
L 218.25 62.8
Q 215.1 65.15 211.65 67.55 207.55 65.75 204.7 64.45
L 208.25 69.8
Q 203.05 73.25 197.95 76.1
L 188.1 73.25 194 78.25
Q 191.2044921875 79.70234375 188.5 80.95 182.629296875 83.696484375 177.3 85.45 192.5 86.05 203.65 96 220 110.45 224.35 142.55
L 222.1 141.25
Q 219.15 139.55 215.95 137.6
L 211.85 124 210.65 134.2
Q 204.7 130.2 199.3 126.25
L 197.75 108.2 194.3 122.45
Q 186.15 116.05 179.6 109.75 186.5 122.9 189.5 138.95 192.95 157.6 188.8 170.7 185.35 165.1 181.1 156.05
L 184.4 149.65 179.55 152.7
Q 177 147.05 174.9 141.5
L 178.2 129.05 176.2 131.1
Q 173.9 133.45 172.55 135.05 167.7 121.05 165.7 108.4 162.4 149.9 169.35 197.9 174.65 234.8 188.85 284.15 191.2 292.05 197.1 309.4 197.5 310.45 197.85 311.5 198.35 312.9 198.85 314.25 199.4751953125 316.0005859375 202.25 322.65 202.809375 323.97734375 203.45 325.5 204.71875 324.735546875 207.7 322.75 213.8388671875 318.749609375 227.25 309.65
L 227.6 307.05 215.4 303.25
Q 215.35 303.25 215.3 303.25 212.25 302.35 210.5 299.7 210.4 299.55 210.35 299.45 210.3 299.35 210.25 299.25 208.9 296.7 209.25 293.9 209.25 293.85 209.25 293.75 209.25 293.7 209.25 293.6
L 215.65 252.4
Q 215.65 252.3 215.65 252.25 215.7 252.1 215.75 252 216.15 249.85 217.35 248.4 217.45 248.2 217.6 248.05 217.65 248 217.7 247.95 218.85 246.55 220.75 245.75 220.75 245.7 220.85 245.7
L 230.6 241.45 237.3 208.2 233.25 207.25 233.35 207.3
Q 222.7 206.15 224.5 193.65
L 228.95 161.05
Q 228.95 160.8 228.95 160.55
L 229.25 158.25
Q 229.25 158.2 229.25 158.15 229.25 158.1 229.25 158.05 229.45 155.85 230.8 154.1
L 230.85 154.05
Q 230.95 153.8 231.15 153.6 232.4 152.1 234 151.3 234.25 151.1 234.5 151.1
L 243.45 147.1 248.85 114.75
Q 249.15 112.85 250.65 111.7 250.7 111.6 250.85 111.5 252.45 110.3 254.55 110.65
L 255.35 110.75 256.2 104.4
Q 256.3 98.45 259.75 95.95 262.45 92.75 268 93.25
L 278 16.05
M 62.65 254.05
L 64.1 253.75 64.7 256.7 63.25 257
Q 56.8431640625 258.3173828125 55.6 264.6 55.530078125 265.15078125 55.1 265.5 54.709765625 265.8431640625 54.15 265.85 53.6453125 265.857421875 53.2 265.5 52.79765625 265.192578125 52.65 264.65 51.3115234375 258.659765625 45 257
L 43.55 256.6 44.3 253.7 45.75 254.1
Q 51.5318359375 255.6185546875 54.05 259.95 56.5865234375 255.30859375 62.65 254.05
M 66.4 269.6
L 64.95 269.3 65.6 266.35 67.05 266.65
Q 69.79765625 267.25390625 71.3 269.15 72.8064453125 267.296484375 75.75 266.65
L 77.2 266.35 77.8 269.3 76.35 269.6
Q 73.3447265625 270.24921875 72.85 273.05 72.7955078125 273.6109375 72.4 273.95 72.005078125 274.3298828125 71.45 274.35 70.933984375 274.37265625 70.5 274.05 70.0748046875 273.7232421875 69.95 273.2 69.2208984375 270.2458984375 66.4 269.6
M 353.4 96.7
L 353.5 96.7
Q 359.6 97.1 362.05 101.35 364.45 104.65 363.55 110.9
L 352.95 188.3 352.85 288.2
Q 374.38046875 290.4708984375 392.7 296.9 403.2140625 272.1779296875 406.3 259.8 414.75 226.35 411.75 191.7 408.1 149.8 388.7 113.05 379.608984375 95.8833984375 367.7 80.95 360.6080078125 72.0732421875 352.5 63.95
L 348.65 96.1 353.4 96.7
M 156 216.65
L 151.5 209.2 152.35 215.45
Q 148.25 213.95 144.4 212.45
L 140.8 201.9 140.9 210.9
Q 134.9 208.15 130.25 205.5 136.25 212.3 140.45 221.4 145.25 231.95 144.75 240.35
L 142.8 238.35
Q 140.4 235.75 138 232.8
L 139 228.55 136.6 231.05
Q 133.85 227.55 132.15 225.1
L 132.25 217.15 131.4 218.7
Q 130.4 220.4 129.8 221.6 125.46875 214.90625 122.55 208.6 130.338671875 251.7318359375 148.75 289.8 167.171875 327.867578125 174.4 339.35
L 174.4 339.3
Q 179.753125 337.03359375 185.9 334.5 185.95 334.45 186 334.45 179.2 314.7 178.35 311.5 177.5 308.45 176.65 305.2 172.2 286.9 170.8 280.05 164 244.2 161.45 218.25 157.65 217.15 156 216.65 Z"/>

<path fill="#FFFFFF" stroke="none" d="
M 64.95 269.3
L 66.4 269.6
Q 69.2208984375 270.2458984375 69.95 273.2 70.0748046875 273.7232421875 70.5 274.05 70.933984375 274.37265625 71.45 274.35 72.005078125 274.3298828125 72.4 273.95 72.7955078125 273.6109375 72.85 273.05 73.3447265625 270.24921875 76.35 269.6
L 77.8 269.3 77.2 266.35 75.75 266.65
Q 72.8064453125 267.296484375 71.3 269.15 69.79765625 267.25390625 67.05 266.65
L 65.6 266.35 64.95 269.3
M 64.1 253.75
L 62.65 254.05
Q 56.5865234375 255.30859375 54.05 259.95 51.5318359375 255.6185546875 45.75 254.1
L 44.3 253.7 43.55 256.6 45 257
Q 51.3115234375 258.659765625 52.65 264.65 52.79765625 265.192578125 53.2 265.5 53.6453125 265.857421875 54.15 265.85 54.709765625 265.8431640625 55.1 265.5 55.530078125 265.15078125 55.6 264.6 56.8431640625 258.3173828125 63.25 257
L 64.7 256.7 64.1 253.75
M 358.05 9.95
Q 357.3 7.8 355.4 6.35 355.35 6.3 355.3 6.25 354.85 5.95 354.4 5.75
L 354.45 5.75
Q 352.6 4.9 350.85 4.9
L 287.15 2.45
Q 284.15 2.2 281.55 4.5
L 281.5 4.5
Q 281.5 4.55 281.45 4.55
L 281.45 4.6
Q 279.4 6.45 278.95 9.15 278.85 9.45 278.85 9.75
L 278 16.05 268 93.25
Q 262.45 92.75 259.75 95.95 256.3 98.45 256.2 104.4
L 255.35 110.75 254.55 110.65
Q 252.45 110.3 250.85 111.5 250.7 111.6 250.65 111.7 249.15 112.85 248.85 114.75
L 243.45 147.1 234.5 151.1
Q 234.25 151.1 234 151.3 232.4 152.1 231.15 153.6 230.95 153.8 230.85 154.05
L 230.8 154.1
Q 229.45 155.85 229.25 158.05 229.25 158.1 229.25 158.15 229.25 158.2 229.25 158.25
L 228.95 160.55
Q 228.95 160.8 228.95 161.05
L 224.5 193.65
Q 222.7 206.15 233.35 207.3
L 233.25 207.25 237.3 208.2 230.6 241.45 220.85 245.7
Q 220.75 245.7 220.75 245.75 218.85 246.55 217.7 247.95 217.65 248 217.6 248.05 217.45 248.2 217.35 248.4 216.15 249.85 215.75 252 215.7 252.1 215.65 252.25 215.65 252.3 215.65 252.4
L 209.25 293.6
Q 209.25 293.7 209.25 293.75 209.25 293.85 209.25 293.9 208.9 296.7 210.25 299.25 210.3 299.35 210.35 299.45 210.4 299.55 210.5 299.7 212.25 302.35 215.3 303.25 215.35 303.25 215.4 303.25
L 227.6 307.05 227.25 309.65 226 318.6
Q 225.1 318.9 224.4 319.5 224.3 319.6 224.2 319.75 218.05 324.95 215.25 333.45 212 343.15 215.05 351.45 215.05 351.55 215.1 351.7 216.7 356.15 219.45 359 222.6 362.15 227.2 363.3 227.25 363.3 227.3 363.35 232.8 364.95 238.5 362.65 240.05 374.7 250.55 379 250.55 379.05 250.6 379.05 251.05 379.3 251.55 379.4
L 283.85 392.1 283.9 392.1
Q 284.95 392.55 285.8 392.65
L 285.75 392.65
Q 296.15 394.35 301.9 388.7
L 301.9 388.65
Q 302 388.6 302.05 388.5
L 302.05 388.55
Q 303.1 387.5 304 386.25 305.55 384.1 306.55 381.35 306.7 381.05 306.8 380.75 306.8 380.7 306.85 380.65
L 310.35 369.6 317.95 367.1
Q 318.25 370.3 319.05 373.35 321.55 382.15 327.75 386.25 329.6 387.5 331.8 388.3 340.6 391.55 350 386.25 350.75 385.85 351.5 385.35 361.55 379.1 366.4 366.8 368 362.85 368.75 359 370.3 350.9 368.2 343.35 365.05 331.95 355.5 328.5 354.2 328 352.85 327.7 352.9 327.05 352.85 326.3
L 352.85 288.2 352.95 188.3 363.55 110.9
Q 364.45 104.65 362.05 101.35 359.6 97.1 353.5 96.7
L 353.4 96.7 348.65 96.1 352.5 63.95 358.5 14.35
Q 358.95 12 358.1 10.05
L 358.05 10 358.05 9.95
M 351.4 335.15
Q 358.85 337 361.8 345.35 364.1 351.7 362.65 359 362.2 361.1 361.5 363.25 360.65 365.95 359.45 368.25 356.3 374.45 350.85 378.35 343.3 383.8 335.85 381.9 328.4 379.85 325.55 371.6 324.95 369.95 324.6 368.25 323.7 363.8 324.45 359 324.85 356.4 325.75 353.65 328.95 344 336.5 338.55 344.05 333.2 351.4 335.15
M 352.45 10.45
Q 353.2 11 353.5 11.9 353.85 12.65 353.7 13.5
L 343.15 100.6 343.15 100.7 343.3 100.7 336.2 158.15
Q 335.65 161.6 333.75 162.75
L 324.75 166.15
Q 322.6 167.15 320.95 168.75
L 327.3 126.7 290.5 122 283.55 166.35 308.25 170.85
Q 308.75 170.95 309.2 171.2
L 318.4 172.85
Q 317.75 174.85 317.4 177.4
L 317.25 180.3 282.4 173.9 278.1 201.2 314.4 208.35
Q 319.05 209.4 319.25 208.35
L 322.4 177.9
Q 322.65 175.5 323.4 173.9 324.5 171.7 326.6 170.85
L 335.75 167.3
Q 335.85 167.2 335.95 167.2 340.05 165.4 341.1 158.9
L 341.1 158.8 348.15 101.3 353.2 101.85 353.3 101.85
Q 359.85 102.3 358.7 110.35
L 348.05 188.2 347.95 326.8
Q 348.05 327.6 347.85 328.05 347.75 328.45 347.55 328.75 347.1 329.5 346.45 329.8
L 346.15 329.9
Q 346.05 330 345.85 330.1
L 345.75 330.1
Q 322.6 336.95 320 359 319.95 359.25 319.9 359.45 319.8 360.3 319.25 361.1 318.65 361.85 317.8 362.05
L 306.45 365.75 302.2 379.3
Q 302.05 379.4 302.05 379.5 300.85 382.95 298.65 385.15 294.35 389.15 286.5 387.8 286.25 387.8 285.85 387.6
L 252.9 374.6
Q 252.85 374.6 252.7 374.6 247.85 372.55 245.5 368.25 243.45 364.5 243.3 359.1 243.3 359.05 243.3 359 243.3 358.95 243.3 358.9
L 243.3 345.35 239.55 344 237.1 358.05
Q 235.35 358.75 233.65 359 232 359.25 230.4 359 229.45 358.9 228.6 358.6 222.3 357 219.95 350.1 217.45 343.25 220.1 335.15 222.5 327.9 227.75 323.45
L 226.95 328.95
Q 226.3 332.75 229.35 333.9 229.45 333.9 229.55 333.9
L 247 340.2
Q 247.1 340.2 247.2 340.2
L 247.3 340.2 300.45 358.8
Q 302.35 359.25 303.4 358.5 304.2 357.75 304.65 356.25
L 231.85 331.8
Q 230.8 331.4 230.2 330.45 229.65 329.6 229.75 328.45
L 233.3 303.65 216.85 298.55
Q 215.55 298.2 214.75 297.05 214.1 295.85 214.3 294.5
L 220.7 253.25
Q 220.9 252.25 221.45 251.55 222 250.8 222.95 250.4
L 233.4 245.9 240.05 212.6
Q 240.15 212.15 240.4 211.9 240.65 211.55 241.1 211.45 241.5 211.3 241.85 211.4
L 243.3 204.5 234.45 202.5
Q 228.5 201.75 229.55 194.5
L 234.05 161.45
Q 234.05 161.4 234.05 161.3
L 234.3 158.75
Q 234.45 157.8 235.1 157 235.65 156.25 236.45 155.85
L 246.35 151.5 252.35 115.5
Q 252.45 114.85 252.95 114.5 253.45 114.1 254.05 114.2
L 259.9 115 261.35 104.8
Q 261.35 101.2 263.35 99.8 264.95 97.95 268.6 98.5
L 272.4 98.9 283.95 10.25
Q 284.15 9.15 284.95 8.35 285.95 7.5 287.1 7.6
L 350.85 10.05
Q 351.6 10.05 352.45 10.45
M 231.55 262.8
L 226.2 289.8 261.55 300.8 267.55 272.95 231.55 262.8
M 327.15 324.95
L 337.65 322.05 337.65 266.45 328.3 318.75
Q 327.95 320.55 327.15 324.95
M 334.95 218.95
Q 333.95 218.75 333.15 219.3 332.3 219.85 332.1 220.95
L 325.55 261.65
Q 324.75 265.2 321.15 266.75
L 314.65 269.8 321.35 232.55
Q 321.3 232.5 321.25 232.5
L 281.9 223.7 273.35 266.35 306 275.5
Q 304.2 278.1 303.6 282.15
L 303.6 282.3 303.5 282.95 271.8 274.05 266.2 302.3 300.5 313.1
Q 305.5 314.6 305.6 312.9
L 308.45 282.75
Q 309.05 278.85 311.35 276.95 311.9 276.35 312.75 276.05
L 312.75 276 323.15 271.3
Q 329.15 268.65 330.3 262.7 330.4 262.7 330.4 262.6
L 337.1 221.7
Q 337.15 220.75 336.6 219.85 335.95 219 334.95 218.95
M 336.7 103.1
Q 336.8 103 336.8 102.9
L 347.2 16.1 289.65 13.9 278.6 99.65 336.3 106.35 336.7 103.2 336.7 103.1
M 249.4 347.45
L 249.4 358.8
Q 249.4 358.9 249.4 359 249.7 365.35 254 368.25 254.6 368.65 255.3 369
L 287.85 381.9
Q 294.15 382.75 296.25 377.3
L 300.15 365.25 249.4 347.45
M 254.3 358.45
L 254.3 354.4 293.8 368.25 291.5 375.4
Q 291.45 375.45 291.4 375.6 290.65 376.9 289 376.85
L 257.3 364.3
Q 254.65 362.7 254.35 359 254.3 358.75 254.3 358.45
M 278.1 222.85
L 278.05 222.85 242.75 214.75 234.6 255.4
Q 234.6 255.45 234.6 255.5
L 269.15 265.1 278.1 222.85
M 248 160
L 280.3 165.8 287.3 121.65 255.15 117.45 248.05 159.75
Q 248 159.85 248 160
M 240.85 166.15
L 237.3 192.9 274.75 200.4 279.1 173.2 279.15 173.15 240.85 166.15
M 335.3 365
Q 335.85 367 336.95 368.25
L 340.05 363.25
Q 341.3 361.25 339.95 360.5 339.85 360.5 339.65 360.5
L 334.7 362.8
Q 334.9 363.85 335.3 365
M 335.35 356.05
Q 335.1 356.8 334.95 357.55 339.35 358.05 339.95 358.05 340.5 357.9 340.8 357.25 341.15 356.6 341.1 356.25 340.9 355.85 340.8 355.45
L 337.45 351.35
Q 336.1 353.35 335.35 356.05
M 346.5 368.8
L 344.65 363.25
Q 344.3 362.1 343.5 362.5 342.65 362.8 342.5 363.85
L 341.65 370.45
Q 344.15 370.55 346.5 368.8
M 347.55 359.25
Q 346.8 359.2 346.25 359.75 345.65 360.3 346.65 361.4
L 350.05 365.25
Q 351.4 363.4 352.05 360.9 352.15 360.7 352.15 360.5
L 347.55 359.25
M 344.3 354.4
Q 344.7 354.1 344.9 353.05
L 346.9 346.55
Q 344.3 346 341.55 347.65
L 342.8 353.55
Q 342.8 354.25 343.35 354.5 343.85 354.7 344.3 354.4
M 352.15 351.85
Q 351.8 350.7 351.2 349.65
L 347.2 354.8
Q 346.7 355.15 346.7 355.65 346.7 356.1 347 356.3 347.3 356.5 347.75 356.4
L 352.85 354.95
Q 352.7 353.35 352.15 351.85 Z"/>

<path fill="#231F20" stroke="none" d="
M 353.5 11.9
Q 353.2 11 352.45 10.45 351.6 10.05 350.85 10.05
L 287.1 7.6
Q 285.95 7.5 284.95 8.35 284.15 9.15 283.95 10.25
L 272.4 98.9 268.6 98.5
Q 264.95 97.95 263.35 99.8 261.35 101.2 261.35 104.8
L 259.9 115 254.05 114.2
Q 253.45 114.1 252.95 114.5 252.45 114.85 252.35 115.5
L 246.35 151.5 236.45 155.85
Q 235.65 156.25 235.1 157 234.45 157.8 234.3 158.75
L 234.05 161.3
Q 234.05 161.4 234.05 161.45
L 229.55 194.5
Q 228.5 201.75 234.45 202.5
L 243.3 204.5 241.85 211.4
Q 241.5 211.3 241.1 211.45 240.65 211.55 240.4 211.9 240.15 212.15 240.05 212.6
L 233.4 245.9 222.95 250.4
Q 222 250.8 221.45 251.55 220.9 252.25 220.7 253.25
L 214.3 294.5
Q 214.1 295.85 214.75 297.05 215.55 298.2 216.85 298.55
L 233.3 303.65 229.75 328.45
Q 229.65 329.6 230.2 330.45 230.8 331.4 231.85 331.8
L 304.65 356.25
Q 304.2 357.75 303.4 358.5 302.35 359.25 300.45 358.8
L 247.3 340.2 247.2 340.2
Q 247.1 340.2 247 340.2
L 229.55 333.9
Q 229.45 333.9 229.35 333.9 226.3 332.75 226.95 328.95
L 227.75 323.45
Q 222.5 327.9 220.1 335.15 217.45 343.25 219.95 350.1 222.3 357 228.6 358.6 229.45 358.9 230.4 359 232 359.25 233.65 359 235.35 358.75 237.1 358.05
L 239.55 344 243.3 345.35 243.3 358.9
Q 243.3 358.95 243.3 359 243.3 359.05 243.3 359.1 243.45 364.5 245.5 368.25 247.85 372.55 252.7 374.6 252.85 374.6 252.9 374.6
L 285.85 387.6
Q 286.25 387.8 286.5 387.8 294.35 389.15 298.65 385.15 300.85 382.95 302.05 379.5 302.05 379.4 302.2 379.3
L 306.45 365.75 317.8 362.05
Q 318.65 361.85 319.25 361.1 319.8 360.3 319.9 359.45 319.95 359.25 320 359 322.6 336.95 345.75 330.1
L 345.85 330.1
Q 346.05 330 346.15 329.9
L 346.45 329.8
Q 347.1 329.5 347.55 328.75 347.75 328.45 347.85 328.05 348.05 327.6 347.95 326.8
L 348.05 188.2 358.7 110.35
Q 359.85 102.3 353.3 101.85
L 353.2 101.85 348.15 101.3 341.1 158.8 341.1 158.9
Q 340.05 165.4 335.95 167.2 335.85 167.2 335.75 167.3
L 326.6 170.85
Q 324.5 171.7 323.4 173.9 322.65 175.5 322.4 177.9
L 319.25 208.35
Q 319.05 209.4 314.4 208.35
L 278.1 201.2 282.4 173.9 317.25 180.3 317.4 177.4
Q 317.75 174.85 318.4 172.85
L 309.2 171.2
Q 308.75 170.95 308.25 170.85
L 283.55 166.35 290.5 122 327.3 126.7 320.95 168.75
Q 322.6 167.15 324.75 166.15
L 333.75 162.75
Q 335.65 161.6 336.2 158.15
L 343.3 100.7 343.15 100.7 343.15 100.6 353.7 13.5
Q 353.85 12.65 353.5 11.9
M 237.3 192.9
L 240.85 166.15 279.15 173.15 279.1 173.2 274.75 200.4 237.3 192.9
M 280.3 165.8
L 248 160
Q 248 159.85 248.05 159.75
L 255.15 117.45 287.3 121.65 280.3 165.8
M 278.05 222.85
L 278.1 222.85 269.15 265.1 234.6 255.5
Q 234.6 255.45 234.6 255.4
L 242.75 214.75 278.05 222.85
M 249.4 358.8
L 249.4 347.45 300.15 365.25 296.25 377.3
Q 294.15 382.75 287.85 381.9
L 255.3 369
Q 254.6 368.65 254 368.25 249.7 365.35 249.4 359 249.4 358.9 249.4 358.8
M 336.8 102.9
Q 336.8 103 336.7 103.1
L 336.7 103.2 336.3 106.35 278.6 99.65 289.65 13.9 347.2 16.1 336.8 102.9
M 333.15 219.3
Q 333.95 218.75 334.95 218.95 335.95 219 336.6 219.85 337.15 220.75 337.1 221.7
L 330.4 262.6
Q 330.4 262.7 330.3 262.7 329.15 268.65 323.15 271.3
L 312.75 276 312.75 276.05
Q 311.9 276.35 311.35 276.95 309.05 278.85 308.45 282.75
L 305.6 312.9
Q 305.5 314.6 300.5 313.1
L 266.2 302.3 271.8 274.05 303.5 282.95 303.6 282.3 303.6 282.15
Q 304.2 278.1 306 275.5
L 273.35 266.35 281.9 223.7 321.25 232.5
Q 321.3 232.5 321.35 232.55
L 314.65 269.8 321.15 266.75
Q 324.75 265.2 325.55 261.65
L 332.1 220.95
Q 332.3 219.85 333.15 219.3
M 337.65 322.05
L 327.15 324.95
Q 327.95 320.55 328.3 318.75
L 337.65 266.45 337.65 322.05
M 226.2 289.8
L 231.55 262.8 267.55 272.95 261.55 300.8 226.2 289.8
M 361.8 345.35
Q 358.85 337 351.4 335.15 344.05 333.2 336.5 338.55 328.95 344 325.75 353.65 324.85 356.4 324.45 359 323.7 363.8 324.6 368.25 324.95 369.95 325.55 371.6 328.4 379.85 335.85 381.9 343.3 383.8 350.85 378.35 356.3 374.45 359.45 368.25 360.65 365.95 361.5 363.25 362.2 361.1 362.65 359 364.1 351.7 361.8 345.35
M 351.2 349.65
Q 351.8 350.7 352.15 351.85 352.7 353.35 352.85 354.95
L 347.75 356.4
Q 347.3 356.5 347 356.3 346.7 356.1 346.7 355.65 346.7 355.15 347.2 354.8
L 351.2 349.65
M 344.9 353.05
Q 344.7 354.1 344.3 354.4 343.85 354.7 343.35 354.5 342.8 354.25 342.8 353.55
L 341.55 347.65
Q 344.3 346 346.9 346.55
L 344.9 353.05
M 346.25 359.75
Q 346.8 359.2 347.55 359.25
L 352.15 360.5
Q 352.15 360.7 352.05 360.9 351.4 363.4 350.05 365.25
L 346.65 361.4
Q 345.65 360.3 346.25 359.75
M 344.65 363.25
L 346.5 368.8
Q 344.15 370.55 341.65 370.45
L 342.5 363.85
Q 342.65 362.8 343.5 362.5 344.3 362.1 344.65 363.25
M 334.95 357.55
Q 335.1 356.8 335.35 356.05 336.1 353.35 337.45 351.35
L 340.8 355.45
Q 340.9 355.85 341.1 356.25 341.15 356.6 340.8 357.25 340.5 357.9 339.95 358.05 339.35 358.05 334.95 357.55
M 336.95 368.25
Q 335.85 367 335.3 365 334.9 363.85 334.7 362.8
L 339.65 360.5
Q 339.85 360.5 339.95 360.5 341.3 361.25 340.05 363.25
L 336.95 368.25 Z"/>
</g>
</defs>

<g transform="matrix( 1.833892822265625, 0, 0, 1.833892822265625, 21.75,37.35) ">
<g transform="matrix( 1, 0, 0, 1, 0,0) ">
<use xlink:href="#S_mbolo_89_0_Layer0_0_FILL"/>
</g>
</g>
</svg>
